<?xml version="1.0" encoding="UTF-8"?>
<!-- Created with Inkscape (http://www.inkscape.org/) -->
<svg width="1e3" height="1e3" version="1.1" viewBox="0 0 1e3 1e3" xmlns="http://www.w3.org/2000/svg" xmlns:cc="http://creativecommons.org/ns#" xmlns:dc="http://purl.org/dc/elements/1.1/" xmlns:rdf="http://www.w3.org/1999/02/22-rdf-syntax-ns#">
 <metadata>
  <rdf:RDF>
   <cc:Work rdf:about="">
    <dc:format>image/svg+xml</dc:format>
    <dc:type rdf:resource="http://purl.org/dc/dcmitype/StillImage"/>
   </cc:Work>
  </rdf:RDF>
 </metadata>
 <path d="m726.1 194.35-115.62 27.952-8.7847 2.0137 0.39473 41.222-51.99-29.4-55.607 12.74 84.278 83.933 83.244 84.904 10.312-36.809-23.893-65.621 39.408 10.241 5.5177-19.692z"/>
 <path d="m844.86 51.244-76.092 36.754 28.051 57.453-62.912 31.699 10.781 21.395 84.039-42.346-27.875-57.094 54.428-26.289z" color="#000000" style="-inkscape-stroke:none"/>
 <path transform="matrix(-4.3171 -3.8417 3.9834 -4.1635 599.23 1517.2)" d="m114.56 43.607c-9.1977 0.15136-18.438 2.5768-26.869 7.5938-24.122 14.354-33.59 46.487-18.789 70.969 13.075 21.626 42.081 30.079 64.062 16.523 19.128-11.795 26.567-37.681 14.25-57.16-10.515-16.63-33.29-23.055-50.262-11.963-14.129 9.2348-19.544 28.912-9.6562 43.371 7.951 11.628 24.561 16.037 36.494 7.3184 9.124-6.6668 12.535-20.263 4.9141-29.643-2.69-3.3109-6.5734-5.5007-10.734-6.1328s-8.7469 0.42452-12.119 3.7695c-2.0779 2.0613-3.3471 4.8657-3.5254 7.873s1.0932 6.4987 4.2305 8.3398c2.0556 1.2064 3.8117 1.1133 5.8242 0.47656 1.0062-0.31836 2.1917-0.89975 2.9707-2.2578 0.77899-1.3581 0.62824-3.2294-0.0312-4.5176l-5.3398 2.7344c0.0452 0.0883-0.13093-0.68544 0.16601-1.2031 0.29695-0.51768 0.54267-0.51416 0.42383-0.47656-0.23767 0.0752-1.4722-0.22249-0.97656 0.06836-1.0903-0.63987-1.3594-1.4251-1.2773-2.8086 0.082-1.3835 0.87228-3.0864 1.7617-3.9688 1.9357-1.9201 4.367-2.4961 6.9902-2.0977 2.6232 0.39849 5.2914 1.9054 6.9805 3.9844 5.2317 6.4395 2.7638 16.22-3.7988 21.016-8.9747 6.5574-21.851 3.134-28.002-5.8613-7.86-11.493-3.458-27.482 7.9883-34.963 14.004-9.152 33.114-3.7599 41.908 10.148 10.439 16.509 4.0492 38.749-12.328 48.848-19.01 11.723-44.382 4.3299-55.779-14.521-13.005-21.51-4.6064-50.017 16.723-62.709 24.009-14.286 55.655-4.8815 69.637 18.928 15.565 26.506 5.1508 61.292-21.141 76.563l3.0137 5.1894c29.114-16.91 40.612-55.311 23.301-84.789-10.747-18.3-30.775-28.974-51.01-28.641z" color="#000000" style="-inkscape-stroke:none"/>
</svg>
