<?xml version="1.0" encoding="UTF-8"?>
<!-- Created with Inkscape (http://www.inkscape.org/) -->
<svg width="1e3" height="1e3" version="1.1" viewBox="0 0 1e3 1e3" xmlns="http://www.w3.org/2000/svg" xmlns:cc="http://creativecommons.org/ns#" xmlns:dc="http://purl.org/dc/elements/1.1/" xmlns:rdf="http://www.w3.org/1999/02/22-rdf-syntax-ns#">
 <metadata>
  <rdf:RDF>
   <cc:Work rdf:about="">
    <dc:format>image/svg+xml</dc:format>
    <dc:type rdf:resource="http://purl.org/dc/dcmitype/StillImage"/>
   </cc:Work>
  </rdf:RDF>
 </metadata>
 <path d="m814.43 191.21-0.55859 0.16406-185.59 54.182 0.71289 0.37891c63.311 33.614 97.993 65.389 134.32 134.18l0.39062 0.74024zm-0.93359 0.95508-49.998 186.94c-36.087-68.089-70.823-99.978-133.51-133.36zm0.46643-0.47661-184.81 53.956c63.343 33.631 98.109 65.486 134.46 134.32zm-591.57 460.91-54.346 186.15 0.5625-0.15039 189.09-50.57-0.74023-0.39063c-68.795-36.329-100.57-71.012-134.18-134.32zm0.18554 1.709c33.383 62.683 65.273 97.418 133.36 133.51l-186.94 49.998zm-54.053 183.97 53.956-184.81c33.631 63.343 65.486 98.109 134.32 134.46zm-0.9237-650.57 0.15039 0.5625 50.572 189.09 0.39062-0.74024c36.329-68.795 71.012-100.57 134.32-134.18l0.71289-0.37891zm0.93555 0.95703 183.5 53.574c-62.683 33.384-97.418 65.273-133.51 133.36zm-0.46768-0.47856 184.81 53.956c-63.343 33.631-98.109 65.486-134.46 134.32zm591.57 460.91-0.37695 0.71289c-33.614 63.311-65.389 97.993-134.18 134.32l-0.74023 0.39063 189.65 50.721-0.16211-0.55859zm-0.1836 1.707 53.572 183.51-186.94-49.998c68.09-36.088 99.979-70.824 133.36-133.51zm54.052 183.97-53.956-184.81c-33.631 63.343-65.486 98.109-134.32 134.46zm-612.89-405.82-170.05 93.197 0.50391 0.29297 169.46 97.945-0.24609-0.80078c-22.957-74.335-20.901-121.33 0.0976-189.86zm-1.0762 1.3379c-20.718 67.931-22.733 115.04-0.10352 188.71l-167.54-96.83zm-168.31 91.868 168.84-92.531c-21.009 68.572-23.068 115.68-0.0982 190.06zm744.22-92.389 0.23633 0.77148c20.999 68.537 23.057 115.53 0.0996 189.87l-0.24805 0.79883 169.97-98.236-0.51172-0.2793zm1.0762 1.3398 167.64 91.875-167.54 96.832c22.629-73.666 20.613-120.78-0.10547-188.71zm168.31 91.868-168.84-92.531c21.009 68.572 23.068 115.68 0.0982 190.06zm-550.93 278.43 93.197 170.06 0.29297-0.50391 97.947-169.47-0.79883 0.2461c-74.337 22.957-121.33 20.901-189.87-0.0977zm1.3379 1.0762c67.931 20.718 115.04 22.732 188.71 0.10352l-96.834 167.54zm91.868 168.31-92.531-168.84c68.572 21.009 115.68 23.068 190.06 0.0981zm0.80211-914.29-0.2793 0.51172-92.92 169.55 0.77148-0.23633c68.537-20.998 115.53-23.054 189.87-0.0977l0.80078 0.2461zm0.0156 1.3359 96.838 167.54c-73.671-22.63-120.78-20.617-188.71 0.10157zm-0.00771-0.66742-92.531 168.84c68.572-21.009 115.68-23.068 190.06-0.0982zm2.1308 170.53c-159.05 0-288 128.48-288 286.95 0 158.47 128.95 286.95 288 286.95s288-128.48 288-286.95c0-158.47-128.95-286.95-288-286.95zm0 1c158.51 0 287 128.02 287 285.95 0 157.93-128.49 285.95-287 285.95-158.51 0-287-128.02-287-285.95 0-157.93 128.49-285.95 287-285.95zm287.5 285.95a287.5 286.45 0 0 1-287.5 286.45 287.5 286.45 0 0 1-287.5-286.45 287.5 286.45 0 0 1 287.5-286.45 287.5 286.45 0 0 1 287.5 286.45z" color="#000000" style="-inkscape-stroke:none"/>
</svg>
