<?xml version="1.0" encoding="UTF-8" standalone="no"?>
<!-- Created with Inkscape (http://www.inkscape.org/) -->

<svg
   width="1e3"
   height="1e3"
   version="1.1"
   viewBox="0 0 1e3 1e3"
   id="svg30"
   sodipodi:docname="brightness.svg"
   inkscape:version="1.1.2 (0a00cf5339, 2022-02-04)"
   xmlns:inkscape="http://www.inkscape.org/namespaces/inkscape"
   xmlns:sodipodi="http://sodipodi.sourceforge.net/DTD/sodipodi-0.dtd"
   xmlns="http://www.w3.org/2000/svg"
   xmlns:svg="http://www.w3.org/2000/svg"
   xmlns:rdf="http://www.w3.org/1999/02/22-rdf-syntax-ns#"
   xmlns:cc="http://creativecommons.org/ns#"
   xmlns:dc="http://purl.org/dc/elements/1.1/">
  <defs
     id="defs34" />
  <sodipodi:namedview
     id="namedview32"
     pagecolor="#ffffff"
     bordercolor="#666666"
     borderopacity="1.0"
     inkscape:pageshadow="2"
     inkscape:pageopacity="0.0"
     inkscape:pagecheckerboard="0"
     showgrid="false"
     inkscape:zoom="0.585"
     inkscape:cx="488.03419"
     inkscape:cy="500"
     inkscape:window-width="1482"
     inkscape:window-height="863"
     inkscape:window-x="5097"
     inkscape:window-y="487"
     inkscape:window-maximized="0"
     inkscape:current-layer="svg30" />
  <metadata
     id="metadata2">
    <rdf:RDF>
      <cc:Work
         rdf:about="">
        <dc:format>image/svg+xml</dc:format>
        <dc:type
           rdf:resource="http://purl.org/dc/dcmitype/StillImage" />
      </cc:Work>
    </rdf:RDF>
  </metadata>
  <g
     fill-opacity=".83137"
     id="g28">
    <ellipse
       cx="490.05"
       cy="514.67"
       rx="287.5"
       ry="286.45"
       id="ellipse4"
       style="fill:#000000;fill-opacity:1" />
    <path
       d="m487.92 57.19-92.531 168.84c68.572-21.009 115.68-23.068 190.06-0.0982z"
       stroke="#000"
       stroke-width=".6559px"
       id="path6" />
    <path
       d="m487.11 970.81-92.531-168.84c68.572 21.009 115.68 23.068 190.06 0.0981z"
       stroke="#000"
       stroke-width=".6559px"
       id="path8" />
    <g
       transform="matrix(0 2.479 -2.479 0 1276.8 -478.8)"
       stroke="#000"
       stroke-width=".26458px"
       id="g14">
      <path
         d="m404.11 133.91-37.326 68.107c27.661-8.4749 46.664-9.3055 76.667-0.0396z"
         id="path10" />
      <path
         d="m403.78 502.45-37.326-68.107c27.661 8.4749 46.664 9.3055 76.667 0.0396z"
         id="path12" />
    </g>
    <g
       transform="matrix(-1.7529 1.7529 -1.7529 -1.7529 1756.6 361.15)"
       opacity=".5"
       stroke="#000"
       stroke-width=".26458px"
       id="g20">
      <path
         d="m404.11 133.91-37.326 68.107c27.661-8.4749 46.664-9.3055 76.667-0.0396z"
         id="path16" />
      <path
         d="m403.78 502.45-37.326-68.107c27.661 8.4749 46.664 9.3055 76.667 0.0396z"
         id="path18" />
    </g>
    <g
       transform="matrix(1.7529 1.7529 1.7529 -1.7529 -774.57 364.65)"
       opacity=".5"
       stroke="#000"
       stroke-width=".26458px"
       id="g26">
      <path
         d="m404.11 133.91-37.326 68.107c27.661-8.4749 46.664-9.3055 76.667-0.0396z"
         id="path22" />
      <path
         d="m403.78 502.45-37.326-68.107c27.661 8.4749 46.664 9.3055 76.667 0.0396z"
         id="path24" />
    </g>
  </g>
</svg>
