<?xml version="1.0" encoding="UTF-8"?>
<!-- Created with Inkscape (http://www.inkscape.org/) -->
<svg width="1e3" height="1e3" version="1.1" viewBox="0 0 1e3 1e3" xmlns="http://www.w3.org/2000/svg" xmlns:cc="http://creativecommons.org/ns#" xmlns:dc="http://purl.org/dc/elements/1.1/" xmlns:rdf="http://www.w3.org/1999/02/22-rdf-syntax-ns#">
 <metadata>
  <rdf:RDF>
   <cc:Work rdf:about="">
    <dc:format>image/svg+xml</dc:format>
    <dc:type rdf:resource="http://purl.org/dc/dcmitype/StillImage"/>
   </cc:Work>
  </rdf:RDF>
 </metadata>
 <g fill-opacity=".83137">
  <ellipse cx="490.05" cy="514.67" rx="287.5" ry="286.45"/>
  <path d="m487.92 57.19-92.531 168.84c68.572-21.009 115.68-23.068 190.06-0.0982z" stroke="#000" stroke-width=".6559px"/>
  <path d="m487.11 970.81-92.531-168.84c68.572 21.009 115.68 23.068 190.06 0.0981z" stroke="#000" stroke-width=".6559px"/>
  <g transform="matrix(0 2.479 -2.479 0 1276.8 -478.8)" stroke="#000" stroke-width=".26458px">
   <path d="m404.11 133.91-37.326 68.107c27.661-8.4749 46.664-9.3055 76.667-0.0396z"/>
   <path d="m403.78 502.45-37.326-68.107c27.661 8.4749 46.664 9.3055 76.667 0.0396z"/>
  </g>
  <g transform="matrix(-1.7529 1.7529 -1.7529 -1.7529 1756.6 361.15)" opacity=".5" stroke="#000" stroke-width=".26458px">
   <path d="m404.11 133.91-37.326 68.107c27.661-8.4749 46.664-9.3055 76.667-0.0396z"/>
   <path d="m403.78 502.45-37.326-68.107c27.661 8.4749 46.664 9.3055 76.667 0.0396z"/>
  </g>
  <g transform="matrix(1.7529 1.7529 1.7529 -1.7529 -774.57 364.65)" opacity=".5" stroke="#000" stroke-width=".26458px">
   <path d="m404.11 133.91-37.326 68.107c27.661-8.4749 46.664-9.3055 76.667-0.0396z"/>
   <path d="m403.78 502.45-37.326-68.107c27.661 8.4749 46.664 9.3055 76.667 0.0396z"/>
  </g>
 </g>
</svg>
