<?xml version="1.0" encoding="UTF-8"?>
<!-- Created with Inkscape (http://www.inkscape.org/) -->
<svg width="1e3" height="1e3" version="1.1" viewBox="0 0 1e3 1e3" xmlns="http://www.w3.org/2000/svg" xmlns:cc="http://creativecommons.org/ns#" xmlns:dc="http://purl.org/dc/elements/1.1/" xmlns:rdf="http://www.w3.org/1999/02/22-rdf-syntax-ns#">
 <metadata>
  <rdf:RDF>
   <cc:Work rdf:about="">
    <dc:format>image/svg+xml</dc:format>
    <dc:type rdf:resource="http://purl.org/dc/dcmitype/StillImage"/>
   </cc:Work>
  </rdf:RDF>
 </metadata>
 <path d="m757.27 48.957c-59.726 0-108.31 48.584-108.31 108.31v334.04a202.39 202.39 0 0 0-98.75 173.42 202.39 202.39 0 0 0 98.75 173.42v25.098c0 59.726 48.582 108.31 108.31 108.31 59.726 0 108.31-48.582 108.31-108.31v-30.92a202.39 202.39 0 0 0 89.41-167.6 202.39 202.39 0 0 0-89.41-167.9v-339.56c0-59.726-48.582-108.31-108.31-108.31zm0 32c42.551 0 76.307 33.757 76.307 76.309v322.04a202.39 202.39 0 0 0-80.977-16.969 202.39 202.39 0 0 0-71.639 13.65v-318.72c0-42.551 33.757-76.309 76.309-76.309zm76.307 769.03v13.26c0 42.551-33.755 76.307-76.307 76.307-42.551 0-76.309-33.755-76.309-76.307v-9.7773a202.39 202.39 0 0 0 71.639 13.65 202.39 202.39 0 0 0 80.977-17.133z" style="-inkscape-stroke:none;paint-order:stroke fill markers"/>
 <path d="m235.73 50.172c-59.726 0-108.31 48.582-108.31 108.31v85.416a202.39 202.39 0 0 0-86.41 165.35 202.39 202.39 0 0 0 86.41 165.35v289.86c0 59.726 48.584 108.31 108.31 108.31 59.726 0 108.31-48.582 108.31-108.31v-280.16a202.39 202.39 0 0 0 101.75-175.06 202.39 202.39 0 0 0-101.75-175.53v-75.24c0-59.726-48.582-108.31-108.31-108.31zm0 32c42.551 0 76.309 33.755 76.309 76.307v60.389a202.39 202.39 0 0 0-68.639-12.008 202.39 202.39 0 0 0-83.979 18.254v-66.635c0-42.551 33.757-76.307 76.309-76.307zm-76.309 511.21a202.39 202.39 0 0 0 83.979 18.254 202.39 202.39 0 0 0 68.639-12.533v265.35c0 42.551-33.757 76.309-76.309 76.309-42.551 0-76.309-33.757-76.309-76.309v-271.07z" style="-inkscape-stroke:none;paint-order:stroke fill markers"/>
</svg>
