<?xml version="1.0" encoding="UTF-8"?>
<!-- Created with Inkscape (http://www.inkscape.org/) -->
<svg width="1e3" height="1e3" version="1.1" viewBox="0 0 1e3 1e3" xmlns="http://www.w3.org/2000/svg" xmlns:cc="http://creativecommons.org/ns#" xmlns:dc="http://purl.org/dc/elements/1.1/" xmlns:rdf="http://www.w3.org/1999/02/22-rdf-syntax-ns#">
 <metadata>
  <rdf:RDF>
   <cc:Work rdf:about="">
    <dc:format>image/svg+xml</dc:format>
    <dc:type rdf:resource="http://purl.org/dc/dcmitype/StillImage"/>
   </cc:Work>
  </rdf:RDF>
 </metadata>
 <path d="m243.53 54.762-31.65 148.26-140.08 57.979 131.22 75.916 11.854 151.14 112.75-101.34 147.4 35.43-16.719-37.641-44.82-100.91 79.244-129.24-150.78 15.713zm22.561 89.043 58.822 68.91 90.113-9.3906-47.359 77.238 36.779 82.805-88.094-21.174-67.385 60.564-7.084-90.324-78.424-45.371 83.715-34.65z" color="#000000" opacity=".5" style="-inkscape-stroke:none"/>
 <g opacity=".9915">
  <path d="m816.64 379.75-53.809-56.573-80.502 9.2482 41.093-65.189-34.31-68.511 79.207 16.286 59.297-51.591 7.8586 75.252 70.957 36.625-74.349 30.224z" color="#000000" stroke-width="26.288" style="-inkscape-stroke:none"/>
  <path d="m838.06 136.91-73.467 63.92-99.363-20.432 43.119 86.1-51.766 82.117 101.24-11.629 66.578 69.998 5.1074-24.555 14.016-67.367 94.316-38.342-90.029-46.471zm-20.893 53.025 5.9688 57.164 51.883 26.779-54.381 22.107-11.762 56.535-41.039-43.148-59.77 6.8672 30.424-48.262-25.502-50.92 59.049 12.141z" color="#000000" style="-inkscape-stroke:none"/>
 </g>
 <g opacity=".6">
  <path d="m700.16 917.31-98.778-108.68-147.78 17.762 75.436-125.23-62.984-131.61 145.4 31.289 108.85-99.105 14.426 144.56 130.26 70.362-136.48 58.057z" color="#000000" stroke-width="49.367" style="-inkscape-stroke:none"/>
  <path d="m740 450.43-135.76 123.61-182.15-39.197 78.953 164.98-94.639 157.11 185.29-22.271 123.14 135.49 9.5469-48.02 25.805-129.8 171.65-73.018-163.83-88.498zm-39.373 102.61 10.854 108.75 96.68 52.223-101.31 43.098-21.344 107.37-74.416-81.875-110.27 13.254 56.232-93.35-47.016-98.244 108.65 23.381z" color="#000000" style="-inkscape-stroke:none"/>
 </g>
 <path d="m241.76 573.26c-41.364-3e-3 -81.465 23.593-98.016 64.178-19.778 48.498 2.2314 106.92 51.922 126.78 44.024 17.595 96.939-2.5194 114.57-47.799 15.402-39.548-2.8248-86.967-43.709-102.36-35.069-13.203-77.011 3.151-90.137 39.664-10.995 30.591 3.5043 67.08 35.684 77.893h2e-3c26.11 8.7709 57.2-3.9145 65.619-31.826 6.5234-21.628-4.4243-47.422-28.193-53.281v-0.00195c-8.586-2.1164-17.534-0.91029-25.199 3.2383s-14.175 11.899-15.604 21.85c-0.92959 6.4734 0.49708 12.738 4.1856 18.275 3.6885 5.5375 11.176 10.373 19.484 9.4043 6.5694-0.76621 9.1018-3.2786 12.139-7.5547 1.5184-2.138 3.2129-5.2976 2.6445-9.7832-0.5684-4.4856-4.2737-8.5136-7.5625-10.105l-8.8574 18.295c-0.82174-0.39775-3.3936-2.8507-3.7461-5.6328-0.35253-2.7821 0.6399-4.1102 0.94727-4.543 0.61473-0.86558-1.3049-0.47044 2.0801-0.86524-0.32165 0.0375 0.42245 0.46848-0.21093-0.48242-0.63339-0.95089-1.1058-3.2598-0.98242-4.1191 0.4546-3.1656 2.1251-5.2208 5.1562-6.8613 3.0311-1.6405 7.2954-2.2083 10.66-1.3789 11.307 2.7873 17.017 16.34 13.598 27.678-4.8348 16.028-23.815 23.759-39.686 18.428-20.643-6.9364-30.352-31.377-23.029-51.75 9.0614-25.207 38.986-36.875 63.846-27.516 29.742 11.199 43.359 46.615 31.93 75.961-13.343 34.259-54.266 49.82-88.09 36.301-38.764-15.491-56.262-61.926-40.643-100.23 17.643-43.263 69.593-62.697 112.37-44.963 47.754 19.797 69.122 77.266 49.268 124.52l18.738 7.875c24.138-57.444-1.6792-126.9-60.223-151.17-13.243-5.4902-27.171-8.1122-40.959-8.1133z" color="#000000" style="-inkscape-stroke:none"/>
</svg>
