<?xml version="1.0" encoding="UTF-8"?>
<!-- Created with Inkscape (http://www.inkscape.org/) -->
<svg width="1e3" height="1e3" version="1.1" viewBox="0 0 1e3 1e3" xmlns="http://www.w3.org/2000/svg" xmlns:cc="http://creativecommons.org/ns#" xmlns:dc="http://purl.org/dc/elements/1.1/" xmlns:rdf="http://www.w3.org/1999/02/22-rdf-syntax-ns#">
 <metadata>
  <rdf:RDF>
   <cc:Work rdf:about="">
    <dc:format>image/svg+xml</dc:format>
    <dc:type rdf:resource="http://purl.org/dc/dcmitype/StillImage"/>
   </cc:Work>
  </rdf:RDF>
 </metadata>
 <path d="m208.5 51.721c-86.447 0-156.56 70.11-156.56 156.56v607.45c0 86.447 70.11 156.56 156.56 156.56h587.01c86.447 0 156.56-70.11 156.56-156.56v-607.45c0-86.447-70.11-156.56-156.56-156.56zm0 33.014h275.79l-192.9 199.8h439.14l-202.89-199.8h267.86c68.728 0 123.54 54.814 123.54 123.54v607.45c0 68.728-54.814 123.54-123.54 123.54h-587.01c-68.728 0-123.54-54.814-123.54-123.54v-607.45c0-68.728 54.814-123.54 123.54-123.54zm297.52 25.033 143.95 141.75h-280.8zm176.38 212.1-3.2871 0.0352-0.75977 0.32422c-22.57 1.8316-41.9 16.64-50.811 38.555l0.0918-0.22071-128.72 303.87-134.9-301.07c-5.1902-11.775-13.61-21.712-24.412-28.213-9.9366-6.2338-21.446-9.5364-33.145-9.416-13.796 0.14193-27.008 4.1671-37.117 12.688s-16.447 20.7-19.752 34.523l0.0879-0.35157-123.57 470.96 116.25-1.1973 79.051-302.87 118.53 265.96-0.0937-0.21484c10.695 24.946 32.761 41.319 58.312 41.057 12.931-0.13291 25.431-3.9315 35.125-11.852l0.0976-0.082c9.181-7.6187 16.382-17.701 21.895-29.537l0.12305-0.26368 113.79-268.77 85.295 301.31 116.88-1.2012-132.56-468.43-0.0352-0.1211c-4.0423-13.491-10.55-25.124-20.424-33.367-9.8737-8.2434-22.761-12.243-35.932-12.107zm0.33594 33.014h4e-3c6.9506-0.0714 10.85 1.4435 14.434 4.4355 3.5775 2.9868 7.1905 8.3019 9.9414 17.459l120.71 426.55-48.461 0.49804-103.99-367.36-150.1 354.55c-3.874 8.2778-8.2798 14.013-12.934 17.891-3.3122 2.6912-7.3714 4.3014-14.529 4.375-13.814 0.14199-20.398-4.189-27.629-21.055l-0.0469-0.10742-156.9-352.06-96.455 369.55-47.773 0.49023 112.64-429.3 0.043-0.17578c2.1473-8.9805 5.3658-13.961 8.918-16.955s8.107-4.8368 16.182-4.9199c5.7214-0.0589 10.366 1.2549 15.357 4.4121l0.17969 0.11328 0.18164 0.10937c4.9614 2.9624 8.4445 6.8454 11.289 13.299l0.0195 0.0449 165.94 370.34 158.32-373.74 0.0449-0.11133c5.9165-14.552 11.306-18.199 24.611-18.336z" color="#000000" style="-inkscape-stroke:none"/>
</svg>
