<?xml version="1.0" encoding="UTF-8"?>
<!-- Created with Inkscape (http://www.inkscape.org/) -->
<svg width="1e3" height="1e3" version="1.1" viewBox="0 0 1e3 1e3" xmlns="http://www.w3.org/2000/svg" xmlns:cc="http://creativecommons.org/ns#" xmlns:dc="http://purl.org/dc/elements/1.1/" xmlns:rdf="http://www.w3.org/1999/02/22-rdf-syntax-ns#">
 <metadata>
  <rdf:RDF>
   <cc:Work rdf:about="">
    <dc:format>image/svg+xml</dc:format>
    <dc:type rdf:resource="http://purl.org/dc/dcmitype/StillImage"/>
   </cc:Work>
  </rdf:RDF>
 </metadata>
 <path d="m855.56 656.83-38.057 22.566c17.356 29.27 21.899 49.159 21.453 60.646-0.44561 11.488-4.0655 15.918-10.193 20.607-12.256 9.3784-36.855 11.078-36.855 11.078l-0.04102 21.129-0.0625-21.125c-38.274 0.11488-65.585 7.0513-85.004 20.787s-28.41 34.67-29.762 52.797c-2.7027 36.253 16.912 65.801 16.912 65.801l37.953-22.738s-11.979-23.186-10.742-39.773c0.61827-8.2935 2.4797-13.806 11.188-19.965 8.7063-6.1583 26.791-12.564 59.572-12.664 6.8e-4 3e-5 0.01484-4e-5 0.01563 0 0.62659 0.03046 35.226 1.6111 63.715-20.189 14.375-11 26.589-30.132 27.516-54.029 0.92697-23.897-7.618-51.216-27.607-84.928z" color="#000000" opacity=".5" style="-inkscape-stroke:none"/>
 <g transform="matrix(.061567 -.026761 -.026761 -.061567 209.83 913.02)" stroke="#0f0">
  <path d="m2882 7943c4-2601 9-4962 10-5249l3-521 1105 1034c608 569 1153 1079 1211 1133l106 99 503-1282c589-1502 941-2394 998-2527 42-98 123-210 152-210 49 0 867 267 1095 357 295 117 375 174 375 271 0 34-157 408-825 1960-455 1054-827 1921-828 1927-1 5 12 8 28 7 17-1 783-65 1704-142 920-78 1677-139 1681-138 5 2-1625 1787-3622 3968-1996 2181-3645 3982-3664 4003-19 20-35 37-36 37-2 0 0-2127 4-4727zm3399 442 2993-3270-39-2c-22-1-717 55-1545 125-828 71-1506 125-1508 121-5-11 1178-2774 1495-3494 63-143 160-358 215-478s98-221 95-224c-8-7-818-293-832-293-5 0-381 944-834 2098-454 1153-829 2107-836 2120-10 21-71-34-1100-997-600-561-1092-1018-1094-1015-7 6-16 8584-10 8582 4-2 1354-1474 3e3 -3273z" stroke="#0f0"/>
 </g>
</svg>
