<?xml version="1.0" encoding="UTF-8"?>
<!-- Created with Inkscape (http://www.inkscape.org/) -->
<svg width="1e3" height="1e3" version="1.1" viewBox="0 0 1e3 1e3" xmlns="http://www.w3.org/2000/svg" xmlns:cc="http://creativecommons.org/ns#" xmlns:dc="http://purl.org/dc/elements/1.1/" xmlns:rdf="http://www.w3.org/1999/02/22-rdf-syntax-ns#">
 <metadata>
  <rdf:RDF>
   <cc:Work rdf:about="">
    <dc:format>image/svg+xml</dc:format>
    <dc:type rdf:resource="http://purl.org/dc/dcmitype/StillImage"/>
   </cc:Work>
  </rdf:RDF>
 </metadata>
 <path d="m773.35 635.61-31.762 18.832c14.485 24.429 18.278 41.029 17.906 50.617-0.37179 9.5879-3.3936 13.286-8.5078 17.199-10.228 7.8272-30.76 9.2461-30.76 9.2461l-0.0332 17.662-0.05274-17.66c-31.943 0.0959-54.738 5.8851-70.945 17.35-16.207 11.464-23.708 28.938-24.836 44.066-2.2553 30.257 14.113 54.918 14.113 54.918l31.678-18.979s-9.9987-19.351-8.9668-33.195c0.51593-6.922 2.0706-11.522 9.3379-16.662 7.267-5.1403 22.361-10.488 49.727-10.57 1.9e-4 1e-5 0.0039-1e-5 0.0039 0 0.5184 0.0252 29.397 1.3454 53.176-16.852 11.997-9.1807 22.191-25.147 22.965-45.092s-6.3596-42.745-23.043-70.881zm81.34 13.621-31.553 19.186c19.449 31.986 25.167 54.192 24.869 67.738-0.29801 13.546-4.8796 19.483-12.129 24.939-14.498 10.913-42.1 11.979-42.1 11.979l-0.32812 17.438 0.24414-17.436c-40.266-0.56296-68.299 6.2177-87.791 19.74s-28.09 34.196-29.145 52.361c-2.1097 36.33 18.441 67.039 18.441 67.039l31.469-19.326s-14.191-25.863-13.047-45.572c0.57225-9.8545 3.1033-17.067 13.328-24.16s30.501-13.658 66.227-13.158c0.52019 0.0313 36.331 2.1057 64.904-19.4 14.391-10.832 26.318-29.627 26.846-53.631 0.52805-24.003-8.6076-52.165-30.236-87.736zm81.75 25.16-31.551 19.186c23.208 38.167 30.286 64.981 29.912 81.963s-6.4684 25.182-15.697 32.129c-18.458 13.893-51.898 14.85-51.898 14.85l-0.32031 17.033 0.23828-17.031c-47.219-0.65998-79.671 7.3428-101.88 22.752s-31.826 38.635-33.029 59.363c-2.4073 41.458 21.324 77.342 21.324 77.342l31.467-19.326s-17.368-31.039-15.926-55.875c0.72107-12.418 4.2689-22.182 17.213-31.162s37.638-16.766 80.316-16.17v-0.00195c0.53214 0.029 42.172 2.2181 74.705-22.27 16.371-12.322 29.805-33.381 30.408-60.82 0.60352-27.439-9.8919-60.208-35.279-101.96l-0.00391-0.00196z" style="-inkscape-stroke:none"/>
 <g transform="matrix(.061567 -.026761 -.026761 -.061567 209.83 913.02)" stroke="#000">
  <g stroke="none">
   <g>
    <path d="m2882 7943c4-2601 9-4962 10-5249l3-521 1105 1034c608 569 1153 1079 1211 1133l106 99 503-1282c589-1502 941-2394 998-2527 42-98 123-210 152-210 49 0 867 267 1095 357 295 117 375 174 375 271 0 34-157 408-825 1960-455 1054-827 1921-828 1927-1 5 12 8 28 7 17-1 783-65 1704-142 920-78 1677-139 1681-138 5 2-1625 1787-3622 3968-1996 2181-3645 3982-3664 4003-19 20-35 37-36 37-2 0 0-2127 4-4727zm3399 442 2993-3270-39-2c-22-1-717 55-1545 125-828 71-1506 125-1508 121-5-11 1178-2774 1495-3494 63-143 160-358 215-478s98-221 95-224c-8-7-818-293-832-293-5 0-381 944-834 2098-454 1153-829 2107-836 2120-10 21-71-34-1100-997-600-561-1092-1018-1094-1015-7 6-16 8584-10 8582 4-2 1354-1474 3e3 -3273z" color="#000000" style="-inkscape-stroke:none"/>
    <path d="m6970 419.5c-7.5718 0-18.067 7.1112-30.428 19.174-12.36 12.063-26.528 29.142-41.102 49.283-29.148 40.282-59.911 92.802-80.93 141.85-57.025 133.06-409.01 1025-998.01 2527l-502.73 1281.3-105.46-98.498c-57.994-53.995-603-564-1211-1133l-1105.8-1034.8-3.0059 522.14c-1 287-6 2648-10 5249-2 1300-3.5 2481.8-4.25 3338.5-0.375 428.38-0.5625 775.5-0.5312 1015.5 0.016 120.02 0.086 213.26 0.2148 276.5 0.064 31.62 0.144 55.737 0.2383 71.951 0.047 8.108 0.098 14.24 0.1523 18.346 0.027 2.053 0.057 3.6 0.086 4.637 0.015 0.519 0.029 0.909 0.045 1.178 0.01 0.134 0.015 0.235 0.025 0.32 0.01 0.08 0.5117 0.539 0.5195 0.539 0.2083 0 0.2853-0.06 0.377-0.109 0.092-0.05 0.1799-0.111 0.2793-0.184 0.1987-0.145 0.4389-0.344 0.7304-0.602 0.5831-0.515 1.3678-1.262 2.3399-2.218 1.9441-1.913 4.6314-4.663 7.8828-8.039 6.5028-6.753 15.254-16.005 24.754-26.004 4.7214-5.218 111.37-121.75 299.83-327.62 188.45-205.88 458.73-501.12 790.8-863.88 664.12-725.5 1575.4-1721 2573.4-2811.5 998.5-1090.5 1905.3-2082 2561.8-2801.1 328.25-359.56 593.94-651.03 777.25-852.74 91.657-100.85 162.72-179.26 210.71-232.52 23.997-26.63 42.226-46.973 54.379-60.691 6.077-6.8591 10.635-12.061 13.637-15.568 1.501-1.7535 2.611-3.0807 3.334-3.9864 0.361-0.4528 0.625-0.7982 0.798-1.0508 0.09-0.1262 0.151-0.2244 0.204-0.332 0.05-0.1075 0.279-0.578-0.248-0.789l-0.03-0.012-0.03-0.01c-0.18-0.045-0.218-0.027-0.351-0.027-0.134-3e-4 -0.307 0-0.524 0.01-0.435 0.015-1.047 0.046-1.838 0.09-1.581 0.089-3.877 0.2359-6.873 0.4414-5.991 0.411-14.777 1.0537-26.217 1.916-22.88 1.7247-56.372 4.3301-99.326 7.7285-85.907 6.797-209.66 16.766-362.03 29.203-304.75 24.875-724 59.625-1184 98.625-460.5 38.5-882.25 73.75-1191 99.5-154.37 12.875-280.5 23.375-369.09 30.719-44.297 3.6719-79.211 6.5547-103.58 8.5508s-38.234 3.1062-40.312 3.2285c-7.9605 0.4975-15.175-0-20.225-1.2363-2.5246-0.6158-4.5065-1.4201-5.7461-2.3242-1.2395-0.9042-1.715-1.8056-1.5078-2.8418v-0.01-0.01c-0.01 0.048 0.018-0.071 0.068-0.2148s0.1258-0.3445 0.2227-0.5977c0.1936-0.5062 0.4767-1.2238 0.8496-2.1465 0.7458-1.8454 1.846-4.5128 3.291-7.9804 2.8899-6.9353 7.1603-17.071 12.738-30.24 11.156-26.339 27.545-64.815 48.607-114.11 42.125-98.593 102.94-240.47 177.94-415.09 150-349.25 356.75-829.5 584.25-1356.5 334-776 540.25-1257.5 663-1549.3 61.376-145.88 101.88-244.31 127.04-308.42 12.58-32.051 21.324-55.518 26.926-72.043 5.6022-16.525 8.0781-26.042 8.0781-30.484 0-48.637-20.132-87.352-77.082-128.41s-150.72-84.554-298.23-143.06c-114.03-45.013-375.52-134.26-614.65-212.26-119.56-39.001-233.54-75.19-320.68-101.63-43.573-13.22-80.439-24.002-107.95-31.48-13.755-3.7394-25.17-6.6526-33.92-8.6328-8.7448-1.9822-14.797-3.0352-17.973-3.0352zm0 1c2.949 0 9.031 1.0329 17.758 3.0078 8.7269 1.9749 20.132 4.8859 33.879 8.623 27.494 7.4743 64.354 18.255 107.92 31.473 87.135 26.436 201.1 62.622 320.66 101.62 239.12 77.998 500.63 167.25 614.6 212.24 147.49 58.495 241.22 102 298.02 142.94s76.668 79.231 76.668 127.59c0 4.0576-2.4304 13.666-8.0234 30.164-5.5931 16.498-14.334 39.953-26.91 71.996-25.153 64.086-65.653 162.52-127.03 308.4-122.75 291.75-329 773.25-663 1549.2-227.5 527-434.25 1007.2-584.25 1356.5-75 174.62-135.81 316.5-177.94 415.09-21.063 49.297-37.455 87.774-48.611 114.12-5.5783 13.17-9.8469 23.307-12.738 30.246-1.4457 3.4694-2.5466 6.1385-3.2949 7.9902-0.3742 0.9259-0.6617 1.6472-0.8594 2.1641-0.099 0.2585-0.1747 0.4655-0.2305 0.625-0.053 0.1531-0.086 0.2339-0.1093 0.3652-2e-4 7e-4 1e-4 0 0 0-0.2917 1.4629 0.4824 2.8109 1.8984 3.8437 1.4167 1.0334 3.4973 1.8541 6.0977 2.4883 5.2001 1.2684 12.485 1.766 20.523 1.2637 2.1712-0.1277 15.965-1.2363 40.336-3.2324 24.371-1.9961 59.285-4.8789 103.58-8.5508 88.594-7.3438 214.72-17.844 369.09-30.719 308.75-25.75 730.5-61 1191-99.5 460-39 879.25-73.75 1184-98.625 152.37-12.437 276.12-22.406 362.03-29.203 42.953-3.3984 76.445-6.004 99.323-7.7285 11.438-0.8623 20.224-1.5033 26.211-1.9141 2.993-0.2053 5.287-0.3531 6.861-0.4414 0.704-0.039 1.211-0.062 1.623-0.078-0.137 0.1818-0.233 0.3174-0.438 0.5742-0.708 0.8875-1.815 2.2118-3.312 3.961-2.995 3.4982-7.55 8.6996-13.625 15.557-12.15 13.714-30.378 34.056-54.373 60.686-47.991 53.259-119.05 131.67-210.71 232.52-183.31 201.7-449 493.17-777.25 852.73-656.5 719.12-1563.3 1710.6-2561.8 2801.1-998 1090.5-1909.3 2086-2573.4 2811.5-332.06 362.75-602.34 658-790.8 863.88-188.45 205.88-295.05 322.34-299.83 327.63-9.4971 9.997-18.243 19.243-24.738 25.988-3.2486 3.374-5.9363 6.124-7.8672 8.024-0.9654 0.95-1.7432 1.687-2.3007 2.179-0.1223 0.108-0.1889 0.155-0.2891 0.239-0.01-0.209-0.017-0.365-0.025-0.66-0.029-1.028-0.057-2.571-0.084-4.621-0.055-4.102-0.1052-10.232-0.1523-18.338-0.094-16.212-0.1739-40.331-0.2383-71.95-0.1289-63.237-0.1992-156.48-0.2148-276.49-0.031-240.03 0.1562-587.16 0.5312-1015.5 0.75-856.75 2.25-2038.5 4.25-3338.5 4-2601 9-4962 10-5249l2.9941-519.86 1104.2 1033.2c608 569 1153 1079 1211 1133l106.54 99.502 503.27-1282.7c589-1502 941.02-2394 998-2527 20.981-48.956 51.718-101.44 80.82-141.65 14.551-20.109 28.696-37.154 40.992-49.154s22.8-18.889 29.728-18.889zm185 449c-0.2654 0-0.3467 0.11311-0.416 0.17773-0.069 0.0646-0.1189 0.12696-0.1719 0.19922-0.1059 0.14453-0.2192 0.328-0.3535 0.56641-0.2687 0.47682-0.6182 1.1681-1.0566 2.084-0.8769 1.8317-2.1031 4.5556-3.6739 8.1562-3.1415 7.2013-7.6576 17.907-13.48 31.941-11.646 28.069-28.513 69.452-50.029 122.72-43.032 106.53-104.66 260.6-180.28 450.72-151.25 380.25-358.5 904.75-585 1481.8-227 576.5-434.25 1103.3-585.62 1487.5-75.687 192.12-137.41 348.63-180.64 457.91-21.617 54.64-38.614 97.476-50.424 127.06-5.9051 14.79-10.513 26.267-13.754 34.248-1.6206 3.9906-2.9006 7.1076-3.8281 9.3262-0.9275 2.2187-1.5252 3.5798-1.7032 3.9102l-0.01 0.01-0.01 0.012c-0.5947 1.2488-1.3306 2.1389-2.4355 2.5957-1.105 0.4567-2.6498 0.4964-4.9024-0.1719-4.5051-1.3366-11.719-5.4974-23.303-14.109-23.168-17.224-63.888-52.224-136.45-117.97-145.12-131.49-417.62-385.99-932.12-867.49-300-280.5-573-535-771.25-719-99.125-92-179.56-166.38-235.35-217.56-27.891-25.594-49.618-45.39-64.438-58.697-7.4095-6.6535-13.092-11.686-16.957-15.01-1.9326-1.662-3.4105-2.8964-4.4297-3.6992-0.5096-0.4014-0.902-0.6925-1.1953-0.8848-0.1466-0.096-0.2638-0.1678-0.3906-0.2226-0.063-0.027-0.1254-0.055-0.2383-0.066-0.1081-0.011-0.3465 0.037-0.4902 0.2246-0.4757 0.454-0.1593 0.4291-0.1856 0.7012-0.029 0.2984-0.056 0.7152-0.084 1.2617-0.055 1.093-0.1108 2.6957-0.166 4.8047-0.1104 4.218-0.2209 10.462-0.332 18.666-0.2222 16.408-0.4454 40.662-0.6699 72.24-0.449 63.157-0.9014 155.61-1.3535 273.17-0.9043 235.13-1.8067 570.69-2.6739 973.19-1.7343 805-3.3281 1877.8-4.5156 2950.3s-1.9688 2144.8-2.0781 2948.8c-0.055 402 0.059 736.94 0.373 971.31 0.1572 117.19 0.365 209.24 0.627 271.96 0.131 31.359 0.2748 55.388 0.4336 71.562 0.079 8.087 0.1634 14.208 0.25 18.305 0.043 2.048 0.087 3.59 0.1328 4.621 0.023 0.515 0.044 0.903 0.068 1.172 0.024 0.268 0.7032 0.804 0.7266 0.797l0.033-0.01 0.031-0.02c0.2012-0.1 0.1621-0.112 0.2265-0.172 0.064-0.06 0.1443-0.136 0.2442-0.236 0.1997-0.199 0.4767-0.486 0.8359-0.859 0.7183-0.748 1.7595-1.847 3.1211-3.297 2.7232-2.9 6.7274-7.2 11.982-12.865 10.51-11.331 26.021-28.126 46.277-50.104 40.512-43.955 100.01-108.65 176.43-191.84 152.84-166.39 373.41-406.8 645.28-703.36 543.75-593.12 1292.8-1410.9 2115.8-2310.4l2993.7-3270.8-40.062-2.0547c-1.4577-0.066-5.4271 0.098-11.932 0.4707-6.5045 0.3725-15.505 0.9579-26.869 1.7441-22.729 1.5725-54.917 3.9512-95.512 7.0528-81.189 6.2032-196 15.297-336 26.609-280 22.625-660.75 54.125-1074.8 89.125-414 35.5-790.5 66.75-1063.7 88.625-136.62 10.937-247.44 19.531-324.22 25.141-38.39 2.8046-68.27 4.8616-88.613 6.0937-10.172 0.6161-17.96 1.026-23.23 1.2188-2.635 0.096-4.6424 0.1398-5.9942 0.1269-0.6758-0.01-1.1892-0.029-1.5214-0.061-0.051-0-0.063-0.01-0.1055-0.016 0.016-0.084 0.025-0.1503 0.055-0.2696 0.1-0.3977 0.2745-0.9744 0.5195-1.7168 0.4899-1.4846 1.2631-3.6332 2.3125-6.416 2.0988-5.5656 5.2983-13.677 9.5313-24.184 8.4658-21.013 21.071-51.609 37.314-90.613 32.488-78.008 79.528-189.65 137.11-325.56 115.16-271.83 272.47-640.73 439.84-1031.8 334.75-782.12 709.75-1652.9 868.25-2012.9 62.998-143 160-358 215-477.99 27.502-60.003 52.003-115.26 69.256-155.89 8.6264-20.316 15.439-36.975 19.912-48.752 2.2366-5.8885 3.8882-10.555 4.8907-13.859 0.5012-1.6521 0.8397-2.9611 1.0097-3.9317 0.085-0.4852 0.129-0.8843 0.1231-1.2207-0.01-0.3363-0.023-0.6396-0.293-0.9101l-0.024-0.024c-0.2423-0.212-0.5481-0.3564-1.0703-0.6054-0.5223-0.2491-1.2274-0.5606-2.1153-0.9356-1.7757-0.7498-4.2805-1.7516-7.4707-2.9922-6.3803-2.4811-15.501-5.9125-26.973-10.158-22.944-8.4912-55.296-20.238-93.938-34.137-77.283-27.797-179.72-64.203-282.35-100.39-102.63-36.188-205.44-72.158-283.47-99.08-39.016-13.461-71.837-24.661-95.344-32.496-11.754-3.9175-21.178-6.9936-27.887-9.0918-3.3546-1.0491-6.03-1.8526-7.9824-2.3965-0.9763-0.27193-1.7728-0.47875-2.3868-0.61914-0.6139-0.14038-1.0186-0.2207-1.3437-0.2207zm0.1797 1.0312c0.1743 0.0165 0.4471 0.051 0.9414 0.16406 0.5887 0.1346 1.3727 0.33801 2.3398 0.60742 1.9344 0.53883 4.6041 1.3413 7.9532 2.3887 6.698 2.0947 16.119 5.1695 27.869 9.0859 23.501 7.8329 56.321 19.032 95.336 32.492 78.029 26.921 180.84 62.889 283.46 99.076 102.62 36.187 205.06 72.594 282.34 100.39 38.64 13.898 70.991 25.644 93.93 34.133 11.469 4.2447 20.586 7.675 26.957 10.152 3.1854 1.2387 5.6839 2.2394 7.4434 2.9824 0.8798 0.3715 1.5755 0.6801 2.0742 0.918 0.4851 0.2313 0.7936 0.4261 0.8184 0.4433-0.063-0.063-0-0.01 0 0.209 0 0.2291-0.031 0.5827-0.1093 1.0313-0.1572 0.8971-0.4876 2.1833-0.9825 3.8144-0.9897 3.2624-2.6349 7.9158-4.8671 13.793-4.4645 11.754-11.277 28.408-19.9 48.717-17.247 40.618-41.746 95.865-69.244 155.86-55.001 120-152 335-215 478.01-158.5 360.01-533.5 1230.8-868.25 2012.9-167.38 391.06-324.69 759.97-439.85 1031.8-57.578 135.91-104.62 247.56-137.11 325.57-16.244 39.006-28.852 69.603-37.32 90.623-4.2343 10.51-7.4351 18.626-9.539 24.205-1.052 2.7896-1.8299 4.9431-2.3282 6.4531-0.2491 0.755-0.4266 1.3476-0.5371 1.789-0.055 0.2207-0.094 0.4018-0.1152 0.5606-0.021 0.1588-0.074 0.2665 0.045 0.5273v0.01 0.01c0.09 0.1798 0.2046 0.2331 0.2832 0.2714 0.079 0.038 0.1447 0.057 0.2149 0.074 0.1404 0.035 0.2951 0.056 0.4883 0.074 0.3864 0.037 0.9165 0.058 1.6074 0.064 1.3817 0.013 3.3982-0.03 6.041-0.1269 5.2857-0.1934 13.076-0.6024 23.252-1.2188 20.352-1.2326 50.237-3.2929 88.629-6.0976 76.783-5.6096 187.6-14.203 324.22-25.141 273.25-21.875 649.75-53.125 1063.8-88.625 414-35 794.75-66.5 1074.7-89.125 140-11.312 254.81-20.406 336-26.609 40.593-3.1015 72.78-5.4807 95.504-7.0528 11.362-0.786 20.358-1.37 26.855-1.7422 6.4964-0.372 10.533-0.5274 11.826-0.4687l37.94 1.9453-2992.3 3269.2c-823 899.5-1572 1717.3-2115.8 2310.4-271.87 296.56-492.44 536.97-645.28 703.36-76.422 83.196-135.91 147.89-176.42 191.84-20.256 21.978-35.767 38.77-46.275 50.1-5.2543 5.665-9.258 9.964-11.978 12.861-1.3603 1.449-2.4002 2.547-3.1133 3.289-0.1821 0.19-0.2807 0.287-0.4199 0.43-0.01-0.163-0.018-0.249-0.027-0.455-0.045-1.016-0.088-2.553-0.1308-4.598-0.086-4.089-0.1707-10.212-0.25-18.297-0.1587-16.17-0.3026-40.195-0.4336-71.554-0.262-62.718-0.4698-154.76-0.627-271.95-0.3144-234.38-0.4277-569.31-0.373-971.31 0.1093-804 0.8906-1876.3 2.0781-2948.8s2.7813-2145.2 4.5156-2950.2c0.8672-402.5 1.7696-738.06 2.6739-973.19 0.4521-117.56 0.9045-210.01 1.3535-273.17 0.2245-31.578 0.4478-55.832 0.6699-72.236 0.111-8.202 0.2218-14.441 0.332-18.65 0.055-2.1048 0.1096-3.7041 0.1641-4.7812 0.021-0.4202 0.044-0.6914 0.064-0.9493 0.2394 0.1671 0.5038 0.3565 0.9043 0.6719 0.9966 0.7849 2.4673 2.0146 4.3946 3.6719 3.8544 3.3147 9.5345 8.341 16.941 14.992 14.814 13.302 36.54 33.1 64.43 58.693 55.78 51.186 136.22 125.56 235.34 217.56 198.25 184 471.25 438.5 771.25 719 514.5 481.5 787 736 932.13 867.51 72.566 65.753 113.28 100.75 136.52 118.03 11.619 8.638 18.851 12.852 23.615 14.266 2.3822 0.7067 4.1787 0.7151 5.5683 0.1406 1.3853-0.5726 2.2944-1.7098 2.9493-3.08 0.2604-0.4849 0.8165-1.7674 1.7441-3.9864 0.9299-2.2243 2.2088-5.3436 3.8301-9.3359 3.2426-7.9846 7.8523-19.462 13.758-34.254 11.811-29.583 28.807-72.42 50.424-127.06 43.234-109.28 104.95-265.78 180.64-457.91 151.38-384.25 358.63-911 585.62-1487.5 226.5-577 433.75-1101.5 585-1481.7 75.625-190.12 137.25-344.19 180.28-450.72 21.515-53.265 38.382-94.647 50.025-122.71 5.8217-14.032 10.338-24.733 13.475-31.924 1.5684-3.5952 2.7933-6.314 3.6602-8.125 0.4335-0.90548 0.7778-1.5859 1.0254-2.0254 0.1071-0.19014 0.1871-0.31119 0.25-0.40234z" color="#000000" style="-inkscape-stroke:none"/>
   </g>
   <path d="m6970 419.5c-7.5718 0-18.067 7.1112-30.428 19.174-12.36 12.063-26.528 29.142-41.102 49.283-29.148 40.282-59.911 92.802-80.93 141.85-57.025 133.06-409.01 1025-998.01 2527l-502.73 1281.3-105.46-98.498c-57.994-53.995-603-564-1211-1133l-1105.8-1034.8-3.0059 522.14c-1 287-6 2648-10 5249-2 1300-3.5 2481.8-4.25 3338.5-0.375 428.38-0.5625 775.5-0.5312 1015.5 0.016 120.02 0.086 213.26 0.2148 276.5 0.064 31.62 0.144 55.737 0.2383 71.951 0.047 8.108 0.098 14.24 0.1523 18.346 0.027 2.053 0.057 3.6 0.086 4.637 0.015 0.519 0.029 0.909 0.045 1.178 0.01 0.134 0.015 0.235 0.025 0.32 0.01 0.08 0.5117 0.539 0.5195 0.539 0.2083 0 0.2853-0.06 0.377-0.109 0.092-0.05 0.1799-0.111 0.2793-0.184 0.1987-0.145 0.4389-0.344 0.7304-0.602 0.5831-0.515 1.3678-1.262 2.3399-2.218 1.9441-1.913 4.6314-4.663 7.8828-8.039 6.5028-6.753 15.254-16.005 24.754-26.004 4.7214-5.218 111.37-121.75 299.83-327.62 188.45-205.88 458.73-501.12 790.8-863.88 664.12-725.5 1575.4-1721 2573.4-2811.5 998.5-1090.5 1905.3-2082 2561.8-2801.1 328.25-359.56 593.94-651.03 777.25-852.74 91.657-100.85 162.72-179.26 210.71-232.52 23.997-26.63 42.226-46.973 54.379-60.691 6.077-6.8591 10.635-12.061 13.637-15.568 1.501-1.7535 2.611-3.0807 3.334-3.9864 0.361-0.4528 0.625-0.7982 0.798-1.0508 0.09-0.1262 0.151-0.2244 0.204-0.332 0.05-0.1075 0.279-0.578-0.248-0.789l-0.03-0.012-0.03-0.01c-0.18-0.045-0.218-0.027-0.351-0.027-0.134-3e-4 -0.307 0-0.524 0.01-0.435 0.015-1.047 0.046-1.838 0.09-1.581 0.089-3.877 0.2359-6.873 0.4414-5.991 0.411-14.777 1.0537-26.217 1.916-22.88 1.7247-56.372 4.3301-99.326 7.7285-85.907 6.797-209.66 16.766-362.03 29.203-304.75 24.875-724 59.625-1184 98.625-460.5 38.5-882.25 73.75-1191 99.5-154.37 12.875-280.5 23.375-369.09 30.719-44.297 3.6719-79.211 6.5547-103.58 8.5508s-38.234 3.1062-40.312 3.2285c-7.9605 0.4975-15.175 0-20.225-1.2363-2.5246-0.6158-4.5065-1.4201-5.7461-2.3242-1.2395-0.9042-1.715-1.8056-1.5078-2.8418v-0.02c-0.01 0.048 0.018-0.071 0.068-0.2148s0.1258-0.3445 0.2227-0.5977c0.1936-0.5062 0.4767-1.2238 0.8496-2.1465 0.7458-1.8454 1.846-4.5128 3.291-7.9804 2.8899-6.9353 7.1603-17.071 12.738-30.24 11.156-26.339 27.545-64.815 48.607-114.11 42.125-98.593 102.94-240.47 177.94-415.09 150-349.25 356.75-829.5 584.25-1356.5 334-776 540.25-1257.5 663-1549.3 61.376-145.88 101.88-244.31 127.04-308.42 12.58-32.051 21.324-55.518 26.926-72.043 5.6022-16.525 8.0781-26.042 8.0781-30.484 0-48.637-20.132-87.352-77.082-128.41s-150.72-84.554-298.23-143.06c-114.03-45.013-375.52-134.26-614.65-212.26-119.56-39.001-233.54-75.19-320.68-101.63-43.573-13.22-80.439-24.002-107.95-31.48-13.755-3.7394-25.17-6.6526-33.92-8.6328-8.7448-1.9822-14.797-3.0352-17.973-3.0352zm0 1c2.949 0 9.031 1.0329 17.758 3.0078 8.7269 1.9749 20.132 4.8859 33.879 8.623 27.494 7.4743 64.354 18.255 107.92 31.473 87.135 26.436 201.1 62.622 320.66 101.62 239.12 77.998 500.63 167.25 614.6 212.24 147.49 58.495 241.22 102 298.02 142.94s76.668 79.231 76.668 127.59c0 4.0576-2.4304 13.666-8.0234 30.164-5.5931 16.498-14.334 39.953-26.91 71.996-25.153 64.086-65.653 162.52-127.03 308.4-122.75 291.75-329 773.25-663 1549.2-227.5 527-434.25 1007.2-584.25 1356.5-75 174.62-135.81 316.5-177.94 415.09-21.063 49.297-37.455 87.774-48.611 114.12-5.5783 13.17-9.8469 23.307-12.738 30.246-1.4457 3.4694-2.5466 6.1385-3.2949 7.9902-0.3742 0.9259-0.6617 1.6472-0.8594 2.1641-0.099 0.2585-0.1747 0.4655-0.2305 0.625-0.053 0.1531-0.086 0.2339-0.1093 0.3652-2e-4 7e-4 1e-4 0 0 0-0.2917 1.4629 0.4824 2.8109 1.8984 3.8437 1.4167 1.0334 3.4973 1.8541 6.0977 2.4883 5.2001 1.2684 12.485 1.766 20.523 1.2637 2.1712-0.1277 15.965-1.2363 40.336-3.2324 24.371-1.9961 59.285-4.8789 103.58-8.5508 88.594-7.3438 214.72-17.844 369.09-30.719 308.75-25.75 730.5-61 1191-99.5 460-39 879.25-73.75 1184-98.625 152.37-12.437 276.12-22.406 362.03-29.203 42.953-3.3984 76.445-6.004 99.323-7.7285 11.438-0.8623 20.224-1.5033 26.211-1.9141 2.993-0.2053 5.287-0.3531 6.861-0.4414 0.704-0.039 1.211-0.062 1.623-0.078-0.137 0.1818-0.233 0.3174-0.438 0.5742-0.708 0.8875-1.815 2.2118-3.312 3.961-2.995 3.4982-7.55 8.6996-13.625 15.557-12.15 13.714-30.378 34.056-54.373 60.686-47.991 53.259-119.05 131.67-210.71 232.52-183.31 201.7-449 493.17-777.25 852.73-656.5 719.12-1563.3 1710.6-2561.8 2801.1-998 1090.5-1909.3 2086-2573.4 2811.5-332.06 362.75-602.34 658-790.8 863.88-188.45 205.88-295.05 322.34-299.83 327.63-9.4971 9.997-18.243 19.243-24.738 25.988-3.2486 3.374-5.9363 6.124-7.8672 8.024-0.9654 0.95-1.7432 1.687-2.3007 2.179-0.1223 0.108-0.1889 0.155-0.2891 0.239-0.01-0.209-0.017-0.365-0.025-0.66-0.029-1.028-0.057-2.571-0.084-4.621-0.055-4.102-0.1052-10.232-0.1523-18.338-0.094-16.212-0.1739-40.331-0.2383-71.95-0.1289-63.237-0.1992-156.48-0.2148-276.49-0.031-240.03 0.1562-587.16 0.5312-1015.5 0.75-856.75 2.25-2038.5 4.25-3338.5 4-2601 9-4962 10-5249l2.9941-519.86 1104.2 1033.2c608 569 1153 1079 1211 1133l106.54 99.502 503.27-1282.7c589-1502 941.02-2394 998-2527 20.981-48.956 51.718-101.44 80.82-141.65 14.551-20.109 28.696-37.154 40.992-49.154s22.8-18.889 29.728-18.889zm185 449c-0.2654 0-0.3467 0.11311-0.416 0.17773-0.069 0.0646-0.1189 0.12696-0.1719 0.19922-0.1059 0.14453-0.2192 0.328-0.3535 0.56641-0.2687 0.47682-0.6182 1.1681-1.0566 2.084-0.8769 1.8317-2.1031 4.5556-3.6739 8.1562-3.1415 7.2013-7.6576 17.907-13.48 31.941-11.646 28.069-28.513 69.452-50.029 122.72-43.032 106.53-104.66 260.6-180.28 450.72-151.25 380.25-358.5 904.75-585 1481.8-227 576.5-434.25 1103.3-585.62 1487.5-75.687 192.12-137.41 348.63-180.64 457.91-21.617 54.64-38.614 97.476-50.424 127.06-5.9051 14.79-10.513 26.267-13.754 34.248-1.6206 3.9906-2.9006 7.1076-3.8281 9.3262-0.9275 2.2187-1.5252 3.5798-1.7032 3.9102l-0.01 0.01-0.01 0.012c-0.5947 1.2488-1.3306 2.1389-2.4355 2.5957-1.105 0.4567-2.6498 0.4964-4.9024-0.1719-4.5051-1.3366-11.719-5.4974-23.303-14.109-23.168-17.224-63.888-52.224-136.45-117.97-145.12-131.49-417.62-385.99-932.12-867.49-300-280.5-573-535-771.25-719-99.125-92-179.56-166.38-235.35-217.56-27.891-25.594-49.618-45.39-64.438-58.697-7.4095-6.6535-13.092-11.686-16.957-15.01-1.9326-1.662-3.4105-2.8964-4.4297-3.6992-0.5096-0.4014-0.902-0.6925-1.1953-0.8848-0.1466-0.096-0.2638-0.1678-0.3906-0.2226-0.063-0.027-0.1254-0.055-0.2383-0.066-0.1081-0.011-0.3465 0.037-0.4902 0.2246-0.4757 0.454-0.1593 0.4291-0.1856 0.7012-0.029 0.2984-0.056 0.7152-0.084 1.2617-0.055 1.093-0.1108 2.6957-0.166 4.8047-0.1104 4.218-0.2209 10.462-0.332 18.666-0.2222 16.408-0.4454 40.662-0.6699 72.24-0.449 63.157-0.9014 155.61-1.3535 273.17-0.9043 235.13-1.8067 570.69-2.6739 973.19-1.7343 805-3.3281 1877.8-4.5156 2950.3s-1.9688 2144.8-2.0781 2948.8c-0.055 402 0.059 736.94 0.373 971.31 0.1572 117.19 0.365 209.24 0.627 271.96 0.131 31.359 0.2748 55.388 0.4336 71.562 0.079 8.087 0.1634 14.208 0.25 18.305 0.043 2.048 0.087 3.59 0.1328 4.621 0.023 0.515 0.044 0.903 0.068 1.172 0.024 0.268 0.7032 0.804 0.7266 0.797l0.033-0.01 0.031-0.02c0.2012-0.1 0.1621-0.112 0.2265-0.172 0.064-0.06 0.1443-0.136 0.2442-0.236 0.1997-0.199 0.4767-0.486 0.8359-0.859 0.7183-0.748 1.7595-1.847 3.1211-3.297 2.7232-2.9 6.7274-7.2 11.982-12.865 10.51-11.331 26.021-28.126 46.277-50.104 40.512-43.955 100.01-108.65 176.43-191.84 152.84-166.39 373.41-406.8 645.28-703.36 543.75-593.12 1292.8-1410.9 2115.8-2310.4l2993.7-3270.8-40.062-2.0547c-1.4577-0.066-5.4271 0.098-11.932 0.4707-6.5045 0.3725-15.505 0.9579-26.869 1.7441-22.729 1.5725-54.917 3.9512-95.512 7.0528-81.189 6.2032-196 15.297-336 26.609-280 22.625-660.75 54.125-1074.8 89.125-414 35.5-790.5 66.75-1063.7 88.625-136.62 10.937-247.44 19.531-324.22 25.141-38.39 2.8046-68.27 4.8616-88.613 6.0937-10.172 0.6161-17.96 1.026-23.23 1.2188-2.635 0.096-4.6424 0.1398-5.9942 0.1269-0.6758-0.01-1.1892-0.029-1.5214-0.061-0.051 0-0.063-0.01-0.1055-0.016 0.016-0.084 0.025-0.1503 0.055-0.2696 0.1-0.3977 0.2745-0.9744 0.5195-1.7168 0.4899-1.4846 1.2631-3.6332 2.3125-6.416 2.0988-5.5656 5.2983-13.677 9.5313-24.184 8.4658-21.013 21.071-51.609 37.314-90.613 32.488-78.008 79.528-189.65 137.11-325.56 115.16-271.83 272.47-640.73 439.84-1031.8 334.75-782.12 709.75-1652.9 868.25-2012.9 62.998-143 160-358 215-477.99 27.502-60.003 52.003-115.26 69.256-155.89 8.6264-20.316 15.439-36.975 19.912-48.752 2.2366-5.8885 3.8882-10.555 4.8907-13.859 0.5012-1.6521 0.8397-2.9611 1.0097-3.9317 0.085-0.4852 0.129-0.8843 0.1231-1.2207-0.01-0.3363-0.023-0.6396-0.293-0.9101l-0.024-0.024c-0.2423-0.212-0.5481-0.3564-1.0703-0.6054-0.5223-0.2491-1.2274-0.5606-2.1153-0.9356-1.7757-0.7498-4.2805-1.7516-7.4707-2.9922-6.3803-2.4811-15.501-5.9125-26.973-10.158-22.944-8.4912-55.296-20.238-93.938-34.137-77.283-27.797-179.72-64.203-282.35-100.39-102.63-36.188-205.44-72.158-283.47-99.08-39.016-13.461-71.837-24.661-95.344-32.496-11.754-3.9175-21.178-6.9936-27.887-9.0918-3.3546-1.0491-6.03-1.8526-7.9824-2.3965-0.9763-0.27193-1.7728-0.47875-2.3868-0.61914-0.6139-0.14038-1.0186-0.2207-1.3437-0.2207zm0.1797 1.0312c0.1743 0.0165 0.4471 0.051 0.9414 0.16406 0.5887 0.1346 1.3727 0.33801 2.3398 0.60742 1.9344 0.53883 4.6041 1.3413 7.9532 2.3887 6.698 2.0947 16.119 5.1695 27.869 9.0859 23.501 7.8329 56.321 19.032 95.336 32.492 78.029 26.921 180.84 62.889 283.46 99.076 102.62 36.187 205.06 72.594 282.34 100.39 38.64 13.898 70.991 25.644 93.93 34.133 11.469 4.2447 20.586 7.675 26.957 10.152 3.1854 1.2387 5.6839 2.2394 7.4434 2.9824 0.8798 0.3715 1.5755 0.6801 2.0742 0.918 0.4851 0.2313 0.7936 0.4261 0.8184 0.4433-0.063-0.063 0-0.01 0 0.209 0 0.2291-0.031 0.5827-0.1093 1.0313-0.1572 0.8971-0.4876 2.1833-0.9825 3.8144-0.9897 3.2624-2.6349 7.9158-4.8671 13.793-4.4645 11.754-11.277 28.408-19.9 48.717-17.247 40.618-41.746 95.865-69.244 155.86-55.001 120-152 335-215 478.01-158.5 360.01-533.5 1230.8-868.25 2012.9-167.38 391.06-324.69 759.97-439.85 1031.8-57.578 135.91-104.62 247.56-137.11 325.57-16.244 39.006-28.852 69.603-37.32 90.623-4.2343 10.51-7.4351 18.626-9.539 24.205-1.052 2.7896-1.8299 4.9431-2.3282 6.4531-0.2491 0.755-0.4266 1.3476-0.5371 1.789-0.055 0.2207-0.094 0.4018-0.1152 0.5606-0.021 0.1588-0.074 0.2665 0.045 0.5273v0.02c0.09 0.1798 0.2046 0.2331 0.2832 0.2714 0.079 0.038 0.1447 0.057 0.2149 0.074 0.1404 0.035 0.2951 0.056 0.4883 0.074 0.3864 0.037 0.9165 0.058 1.6074 0.064 1.3817 0.013 3.3982-0.03 6.041-0.1269 5.2857-0.1934 13.076-0.6024 23.252-1.2188 20.352-1.2326 50.237-3.2929 88.629-6.0976 76.783-5.6096 187.6-14.203 324.22-25.141 273.25-21.875 649.75-53.125 1063.8-88.625 414-35 794.75-66.5 1074.7-89.125 140-11.312 254.81-20.406 336-26.609 40.593-3.1015 72.78-5.4807 95.504-7.0528 11.362-0.786 20.358-1.37 26.855-1.7422 6.4964-0.372 10.533-0.5274 11.826-0.4687l37.94 1.9453-2992.3 3269.2c-823 899.5-1572 1717.3-2115.8 2310.4-271.87 296.56-492.44 536.97-645.28 703.36-76.422 83.196-135.91 147.89-176.42 191.84-20.256 21.978-35.767 38.77-46.275 50.1-5.2543 5.665-9.258 9.964-11.978 12.861-1.3603 1.449-2.4002 2.547-3.1133 3.289-0.1821 0.19-0.2807 0.287-0.4199 0.43-0.01-0.163-0.018-0.249-0.027-0.455-0.045-1.016-0.088-2.553-0.1308-4.598-0.086-4.089-0.1707-10.212-0.25-18.297-0.1587-16.17-0.3026-40.195-0.4336-71.554-0.262-62.718-0.4698-154.76-0.627-271.95-0.3144-234.38-0.4277-569.31-0.373-971.31 0.1093-804 0.8906-1876.3 2.0781-2948.7s2.7813-2145.2 4.5156-2950.2c0.8672-402.5 1.7696-738.06 2.6739-973.19 0.4521-117.56 0.9045-210.01 1.3535-273.17 0.2245-31.578 0.4478-55.832 0.6699-72.236 0.111-8.202 0.2218-14.441 0.332-18.65 0.055-2.1048 0.1096-3.7041 0.1641-4.7812 0.021-0.4202 0.044-0.6914 0.064-0.9493 0.2394 0.1671 0.5038 0.3565 0.9043 0.6719 0.9966 0.7849 2.4673 2.0146 4.3946 3.6719 3.8544 3.3147 9.5345 8.341 16.941 14.992 14.814 13.302 36.54 33.1 64.43 58.693 55.78 51.186 136.22 125.56 235.34 217.56 198.25 184 471.25 438.5 771.25 719 514.5 481.5 787 736 932.13 867.51 72.566 65.753 113.28 100.75 136.52 118.03 11.619 8.638 18.851 12.852 23.615 14.266 2.3822 0.7067 4.1787 0.7151 5.5683 0.1406 1.3853-0.5726 2.2944-1.7098 2.9493-3.08 0.2604-0.4849 0.8165-1.7674 1.7441-3.9864 0.9299-2.2243 2.2088-5.3436 3.8301-9.3359 3.2426-7.9846 7.8523-19.462 13.758-34.254 11.811-29.583 28.807-72.42 50.424-127.06 43.234-109.28 104.95-265.78 180.64-457.91 151.38-384.25 358.63-911 585.62-1487.5 226.5-577 433.75-1101.5 585-1481.7 75.625-190.12 137.25-344.19 180.28-450.72 21.515-53.265 38.382-94.647 50.025-122.71 5.8217-14.032 10.338-24.733 13.475-31.924 1.5684-3.5952 2.7933-6.314 3.6602-8.125 0.4335-0.90548 0.7778-1.5859 1.0254-2.0254 0.1071-0.19014 0.1871-0.31119 0.25-0.40234z" color="#000000" fill="#0f0" style="-inkscape-stroke:none"/>
   <path d="m6970 419c-7.8848 0-18.386 7.2236-30.777 19.316-12.392 12.094-26.571 29.191-41.156 49.348-29.171 40.314-59.947 92.854-80.984 141.94-57.05 133.12-409.01 1025-998.01 2527l-502.46 1280.6-104.92-97.996c-57.988-53.989-603-564-1211-1133l-1106.7-1035.6-3.0117 523.29c-1 287.01-6 2648-10 5249-2 1300-3.5 2481.8-4.25 3338.5-0.375 428.38-0.5626 775.5-0.5312 1015.5 0.016 120.02 0.086 213.26 0.2148 276.5 0.064 31.621 0.144 55.738 0.2383 71.953 0.047 8.109 0.098 14.242 0.1523 18.35 0.027 2.055 0.057 3.603 0.086 4.645 0.015 0.52 0.03 0.913 0.047 1.193 0.01 0.127 0.014 0.23 0.027 0.342 0.03 0.237 0.086 0.235 0.1172 0.278 0.031 0.04 0.059 0.08 0.09 0.111 0.062 0.07 0.1308 0.138 0.1992 0.205 0.068 0.07 0.1353 0.13 0.1875 0.178 0.026 0.02 0.049 0.04 0.068 0.06 0.01 0 0.018 0.02 0.029 0.03 0.01 0 0.011 0 0.025 0.02 0.01 0 0.035 0.03 0.035 0.03 2e-4 0 0.055 0.03 0.055 0.03 1e-4 0 0.062 0.03 0.062 0.03 1e-4 0 0.1465-0.479 0.1465-0.479 0.3043 0 0.5686 0.356 0.6133 0.332 0.1245-0.07 0.2303-0.143 0.336-0.221 0.219-0.16 0.4687-0.368 0.7656-0.631 0.5959-0.527 1.383-1.277 2.3574-2.235 1.9506-1.919 4.6398-4.671 7.8926-8.049 6.5055-6.756 15.257-16.009 24.756-26.007h0.01c4.6928-5.187 111.37-121.75 299.82-327.62 188.45-205.88 458.74-501.13 790.8-863.88 664.12-725.5 1575.4-1721 2573.4-2811.5 998.5-1090.5 1905.3-2082 2561.8-2801.1 328.25-359.56 593.94-651.03 777.25-852.74 91.658-100.85 162.72-179.26 210.71-232.53 23.998-26.631 42.228-46.973 54.383-60.693 6.078-6.8602 10.639-12.063 13.645-15.574 1.503-1.7556 2.613-3.0854 3.343-4 0.362-0.4535 0.628-0.8001 0.815-1.0722 0.1-0.1391 0.179-0.2665 0.246-0.4024v-0.01c0.02-0.042 0.143-0.2646 0.139-0.5743-0-0.3096-0.249-0.7281-0.655-0.8906l-0.04-0.018-0.06-0.019-0.02-0.01c-0.226-0.057-0.383-0.041-0.47-0.041-0.136-3e-4 -0.319-7e-4 -0.547 0.01-0.443 0.015-1.054 0.048-1.844 0.092-1.585 0.089-3.882 0.2358-6.879 0.4414-5.993 0.4112-14.78 1.0537-26.221 1.916-22.881 1.7248-56.373 4.3301-99.328 7.7285-85.907 6.7971-209.66 16.766-362.03 29.203-304.75 24.875-724 59.625-1184 98.625-460.5 38.5-882.25 73.75-1191 99.5-154.37 12.875-280.5 23.375-369.09 30.719-44.297 3.6719-79.21 6.5547-103.58 8.5508-24.37 1.9961-38.271 3.109-40.303 3.2285-7.921 0.495-15.102-0.01-20.074-1.2226-2.4857-0.6064-4.4216-1.4064-5.5703-2.2442-0.5804-0.4234-0.9499-0.8264-1.1484-1.2012-0.1986-0.3747-0.2478-0.72-0.1641-1.1386v-0.014c5e-4 -0 0-0.01 0-0.01 0.011-0.037 0.028-0.091 0.047-0.1465 0.046-0.132 0.1203-0.3299 0.2168-0.582 0.1918-0.5015 0.4756-1.216 0.8476-2.1367 0.7446-1.8422 1.8445-4.5079 3.2891-7.9746 2.8892-6.9335 7.1585-17.069 12.736-30.238 11.155-26.338 27.545-64.813 48.608-114.11 42.124-98.592 102.94-240.47 177.94-415.09 150-349.25 356.75-829.5 584.25-1356.5 334-776 540.25-1257.5 663-1549.3 61.376-145.88 101.88-244.32 127.04-308.43 12.581-32.055 21.327-55.528 26.934-72.066 5.6066-16.538 8.1035-26.016 8.1035-30.644 0-48.775-20.263-87.704-77.289-128.81-57.026-41.108-150.82-84.608-298.34-143.12-114.07-45.026-375.55-134.27-614.68-212.27-119.57-39.001-233.54-75.192-320.69-101.63-43.576-13.22-80.446-24.003-107.96-31.484-13.759-3.7405-25.178-6.6559-33.939-8.6387-8.7542-1.9962-14.796-3.0584-18.082-3.0584zm0 1c-3.6298 0-8.0496 1.7741-13.121 5.0234-5.0714 3.2493-10.792 7.9916-16.957 14.008 12.329-12.032 22.819-19.031 30.078-19.031zm0 1c2.8322 0 8.9319 1.024 17.646 2.9961 8.7152 1.9723 20.117 4.8812 33.859 8.6172 27.485 7.472 64.343 18.252 107.91 31.469 87.13 26.434 201.09 62.619 320.65 101.62 239.12 77.997 500.63 167.26 614.57 212.23 147.48 58.491 241.18 101.99 297.91 142.88 56.724 40.891 76.461 78.962 76.461 127.19 0 3.8579-2.4079 13.52-7.9961 30.004-5.5885 16.485-14.327 39.934-26.902 71.973-25.15 64.078-65.65 162.52-127.02 308.39-122.75 291.74-329 773.24-663 1549.2-227.5 527-434.25 1007.2-584.25 1356.5-75 174.62-135.81 316.5-177.94 415.09-21.063 49.297-37.456 87.776-48.613 114.12-5.5785 13.171-9.8461 23.31-12.738 30.25-1.4461 3.4703-2.5473 6.1393-3.2969 7.9941-0.3747 0.9271-0.6633 1.6509-0.8633 2.1739-0.1 0.2613-0.1787 0.4719-0.2363 0.6367-0.01 0.021-0.012 0.044-0.019 0.065l-0.027-0.035-0.076 0.3868v0.016c-1e-4 7e-4 2e-4 0 0 0-5e-4 0-0 0-0 0.01v0.025h0.012c-0.3145 1.6719 0.5864 3.2134 2.0879 4.3086 1.5032 1.0965 3.6362 1.9271 6.2734 2.5703 5.2753 1.2867 12.596 1.7801 20.674 1.2754 2.2166-0.1303 15.976-1.2382 40.348-3.2343 24.372-1.9962 59.285-4.8789 103.58-8.5508 88.594-7.3438 214.72-17.844 369.09-30.719 308.75-25.75 730.5-61 1191-99.5 460-39 879.25-73.75 1184-98.625 152.37-12.437 276.12-22.406 362.03-29.203 42.953-3.3984 76.444-6.0041 99.321-7.7285 11.437-0.8623 20.224-1.5034 26.209-1.9141 2.992-0.2052 5.283-0.3513 6.853-0.4394 0.228-0.013 0.334-0.016 0.524-0.025-0.705 0.8742-1.672 2.0401-3.057 3.6582-2.991 3.4939-7.547 8.6929-13.621 15.549-12.148 13.712-30.375 34.055-54.369 60.684-47.99 53.258-119.05 131.67-210.71 232.52-183.31 201.7-449 493.17-777.25 852.73-656.5 719.12-1563.3 1710.6-2561.8 2801.1-998 1090.5-1909.3 2086-2573.4 2811.5-332.06 362.75-602.34 658-790.8 863.88-188.45 205.88-295.02 322.32-299.83 327.63-9.4942 9.994-18.236 19.237-24.727 25.977-3.2472 3.372-5.9351 6.122-7.8594 8.015-0.7477 0.736-1.2702 1.22-1.7715 1.68-0.026-1.016-0.052-2.331-0.076-4.193-0.055-4.1-0.1053-10.229-0.1524-18.334-0.094-16.211-0.1739-40.331-0.2383-71.95-0.1289-63.236-0.1992-156.48-0.2148-276.49-0.031-240.03 0.1562-587.16 0.5312-1015.5 0.75-856.75 2.25-2038.5 4.25-3338.5 4-2601 9.0001-4962 10-5249l2.9883-518.71 1103.3 1032.4c608 569 1153 1079 1211 1133l107.08 100 503.54-1283.4c588.99-1502 941.03-2394.1 997.98-2527 20.963-48.913 51.687-101.37 80.766-141.56 14.539-20.093 28.674-37.121 40.938-49.09 6.1312-5.9836 11.81-10.686 16.797-13.881 4.9867-3.195 9.2836-4.8652 12.582-4.8652zm184.38 448 0.051 0.23632c-0.039 0.0292-0.1896 0.0783-0.1894 0.0781-0.098 0.0921-0.1721 0.18721-0.2324 0.26953-0.1246 0.17011-0.2453 0.36763-0.3848 0.61524-0.2791 0.49533-0.6314 1.1924-1.0722 2.1133-0.8819 1.8421-2.1097 4.5705-3.6817 8.1738-3.1439 7.2068-7.659 17.913-13.482 31.949-11.647 28.072-28.515 69.456-50.031 122.72-43.032 106.53-104.66 260.6-180.29 450.72-151.25 380.25-358.5 904.75-585 1481.8-227 576.5-434.25 1103.3-585.62 1487.5-75.687 192.12-137.41 348.63-180.64 457.91-21.617 54.64-38.614 97.475-50.424 127.05-5.9049 14.79-10.512 26.267-13.752 34.246-1.6202 3.9897-2.8998 7.1045-3.8262 9.3204-0.9159 2.1909-1.5268 3.5641-1.664 3.8242l-0.024 0.029-0.025 0.057c-0.5655 1.1875-1.2103 1.9505-2.1757 2.3496-0.9625 0.3978-2.3807 0.4596-4.5684-0.1894-4.3734-1.2975-11.582-5.4326-23.148-14.031-23.133-17.198-63.853-52.196-136.41-117.94-145.11-131.49-417.61-385.99-932.11-867.49-300-280.5-573-535-771.25-719-99.126-92-179.56-166.38-235.35-217.57-27.892-25.595-49.62-45.392-64.441-58.701-7.4108-6.6547-13.094-11.689-16.965-15.018-1.9354-1.6643-3.417-2.9013-4.4473-3.7129-0.5153-0.4059-0.9147-0.7031-1.2305-0.9101-0.1532-0.1003-0.297-0.1903-0.4668-0.2637-0.057-0.025-0.2091-0.086-0.3847-0.1035-0.1628-0.016-0.297 0.01-0.457 0.066-0.1588 0.059-0.3329 0.1682-0.4727 0.3477-0.1083 0.1073-0.2023 0.2047-0.2695 0.3222-0.079 0.1373-0.1218 0.3447-0.092 0.5 0.024 0.1267 0.051 0.161 0.064 0.1836-0.029 0.3096-0.055 0.7076-0.082 1.2383-0.055 1.1006-0.1107 2.7053-0.166 4.8165-0.1105 4.2221-0.2209 10.467-0.332 18.672-0.2223 16.41-0.4454 40.665-0.6699 72.244-0.4491 63.158-0.9015 155.61-1.3536 273.17-0.9043 235.13-1.8066 570.69-2.6738 973.19-1.7343 805-3.3281 1877.8-4.5156 2950.3s-1.9688 2144.8-2.0781 2948.8c-0.055 402 0.059 736.94 0.373 971.31 0.1572 117.19 0.365 209.24 0.627 271.96 0.131 31.36 0.2747 55.389 0.4336 71.565 0.079 8.088 0.1633 14.21 0.25 18.31 0.043 2.05 0.087 3.594 0.1328 4.633 0.023 0.518 0.045 0.908 0.07 1.194 0.023 0.261 0.1281 0.379 0.2207 0.5 0.093 0.12 0.1966 0.225 0.2969 0.32 0.1003 0.1 0.1961 0.177 0.2754 0.24 0.04 0.03 0.073 0.06 0.1074 0.08 0.017 0.01 0.034 0.02 0.062 0.04 0.014 0 0.03 0.02 0.066 0.03 0.018 0 0.083 0.02 0.084 0.02 3e-4 0 0.088 0.01 0.088 0.01 2e-4 0 0.1658-0.02 0.166-0.02l0.1015-0.03 0.09-0.06-0.049 0.03c0.2386-0.119 0.3795-0.286 0.3458-0.254 0.065-0.06 0.1507-0.143 0.2558-0.248 0.2061-0.206 0.4848-0.493 0.8438-0.866 0.7205-0.75 1.7626-1.85 3.125-3.3 2.7246-2.902 6.729-7.202 11.984-12.868 10.511-11.331 26.023-28.127 46.279-50.105 40.512-43.955 100.01-108.65 176.43-191.84 152.84-166.39 373.41-406.8 645.28-703.36 543.75-593.12 1292.8-1410.9 2115.8-2310.4l2994.4-3271.6-41.125-2.1094c-1.5361-0.069-5.4767 0.098-11.984 0.4707-6.5081 0.3727-15.51 0.9598-26.875 1.7461-22.731 1.5726-54.921 3.9511-95.516 7.0527-81.19 6.2033-196 15.297-336 26.609-280 22.625-660.75 54.125-1074.8 89.125-414 35.5-790.5 66.75-1063.7 88.625-136.62 10.937-247.44 19.532-324.21 25.141-38.388 2.8045-68.266 4.86-88.605 6.0918-10.17 0.616-17.957 1.0263-23.219 1.2188-2.6296 0.096-4.6325 0.1396-5.9687 0.1269-0.4527-0.01-0.7087-0.024-1-0.039 0.1001-0.3636 0.2165-0.7686 0.414-1.3672 0.4859-1.4723 1.2586-3.6173 2.3067-6.3965 2.0962-5.5587 5.295-13.669 9.5273-24.174 8.4644-21.01 21.067-51.604 37.311-90.608 32.487-78.006 79.528-189.65 137.11-325.56 115.16-271.83 272.47-640.73 439.84-1031.8 334.75-782.12 709.75-1652.9 868.24-2012.9 62.996-142.99 160-357.99 215-477.99 27.503-60.007 52.006-115.26 69.262-155.9 8.6278-20.319 15.441-36.984 19.918-48.772 2.2388-5.894 3.8936-10.566 4.9024-13.891 0.5043-1.6624 0.8471-2.9838 1.0234-3.9902 0.088-0.5022 0.1377-0.9295 0.1309-1.3164-0.01-0.3402-0.043-0.8509-0.4395-1.248l-0.012-0.014-0.023-0.023-0.014-0.01c-0.3145-0.2752-0.6621-0.433-1.1836-0.6816-0.5339-0.2547-1.2448-0.5687-2.1367-0.9454-1.7839-0.7532-4.2899-1.7545-7.4824-2.9961-6.3852-2.4829-15.507-5.9159-26.98-10.162-22.947-8.4922-55.299-20.24-93.941-34.139-77.284-27.798-179.73-64.203-282.35-100.39-102.63-36.188-205.44-72.159-283.48-99.082-39.017-13.462-71.838-24.662-95.348-32.498-11.755-3.918-21.182-6.9938-27.896-9.0938-3.3574-1.05-6.0348-1.854-7.9961-2.4004-0.9809-0.27321-1.7837-0.48177-2.4101-0.625-0.6201-0.14178-1.0476-0.23437-1.4551-0.23437zm0.6191 1.002h0.012c0.035 1.9e-4 0.1334 0.0264 0.1738 0.0293l-0.068-6e-3 -0.1035 0.0371-0.1465 0.0508c0.018-0.0216 0.038-0.0488 0.059-0.0684 0.1395-0.13007-0.049-0.043 0.074-0.043zm3.5957 0.82031c1.9435 0.54141 4.6151 1.3444 7.9668 2.3926 6.7036 2.0964 16.127 5.1709 27.879 9.0879 23.504 7.834 56.322 19.033 95.338 32.494-39.014-13.46-71.835-24.658-95.338-32.492-11.752-3.917-21.175-6.9915-27.879-9.0879-3.3519-1.0482-6.0233-1.8532-7.9668-2.3945zm-3.1758 0.25977c0.1542 0.0212 0.2691 0.0302 0.5899 0.10351 0.576 0.13171 1.3539 0.33344 2.3164 0.60157 1.9253 0.5363 4.5931 1.3363 7.9394 2.3828 6.6925 2.093 16.111 5.168 27.859 9.084 23.498 7.8319 56.316 19.03 95.33 32.49 78.028 26.921 180.84 62.887 283.46 99.074 102.62 36.187 205.06 72.595 282.34 100.39 38.639 13.898 70.99 25.643 93.926 34.131 11.468 4.2442 20.584 7.6749 26.949 10.15 3.1829 1.2377 5.6782 2.2369 7.4297 2.9765 0.8754 0.3697 1.5674 0.6758 2.0547 0.9082 0.2198 0.1048 0.3947 0.1981 0.5254 0.2715-0 0.1908-0.025 0.48-0.094 0.875-0.1506 0.8598-0.4771 2.1355-0.9687 3.7559-0.9834 3.2415-2.6254 7.8882-4.8555 13.76-4.4602 11.743-11.272 28.393-19.894 48.699-17.244 40.612-41.742 95.855-69.238 155.85-55.003 120.01-152 335.01-215 478.02-158.5 360.01-533.5 1230.8-868.25 2012.9-167.38 391.06-324.69 759.97-439.85 1031.8-57.578 135.91-104.62 247.56-137.11 325.58-16.245 39.007-28.852 69.603-37.322 90.627-4.235 10.512-7.4365 18.631-9.543 24.217-1.0532 2.7929-1.8334 4.9499-2.3359 6.4726-0.2514 0.7618-0.4314 1.3628-0.5469 1.8242-0.057 0.2292-0.1017 0.4262-0.1269 0.6153-0.011 0.079-0.078 0.4417 0.086 0.8008l-0.045-0.2071v0.1389l0.053 0.1055c0.1483 0.2963 0.441 0.4616 0.5117 0.4961 0.1164 0.056 0.2272 0.087 0.3105 0.1074 0.1785 0.044 0.3581 0.069 0.5625 0.088 0.4117 0.039 0.9516 0.06 1.6504 0.066 1.3967 0.013 3.4158-0.03 6.0625-0.1269 5.2935-0.1937 13.088-0.6042 23.266-1.2207 20.356-1.2329 50.242-3.2929 88.635-6.0977 76.785-5.6097 187.6-14.203 324.22-25.141 273.25-21.875 649.76-53.125 1063.8-88.625 414-35 794.75-66.5 1074.7-89.125 140-11.312 254.81-20.406 336-26.609 40.592-3.1014 72.778-5.4808 95.5-7.0527 11.361-0.7859 20.356-1.3702 26.85-1.7422 6.4914-0.3717 10.565-0.5234 11.772-0.4687l36.881 1.8906-2991.6 3268.4c-823 899.5-1572 1717.3-2115.8 2310.4-271.87 296.56-492.44 536.97-645.28 703.36-76.422 83.195-135.91 147.89-176.42 191.84-20.256 21.978-35.768 38.771-46.275 50.1-5.2539 5.665-9.2574 9.962-11.976 12.857-1.188 1.266-2.0216 2.147-2.7149 2.871-0.037-0.989-0.075-2.147-0.1113-3.873-0.086-4.085-0.1707-10.207-0.25-18.291-0.1587-16.168-0.3026-40.192-0.4336-71.55-0.262-62.717-0.4697-154.76-0.6269-271.95-0.3144-234.37-0.4278-569.31-0.3731-971.31 0.1093-804 0.8906-1876.3 2.0781-2948.8s2.7814-2145.3 4.5157-2950.2c0.8672-402.5 1.7695-738.06 2.6738-973.19 0.4521-117.56 0.9045-210.01 1.3535-273.17 0.2245-31.577 0.4479-55.832 0.6699-72.234 0.111-8.201 0.222-14.439 0.3321-18.645 0.055-2.1027 0.1099-3.6986 0.164-4.7675 6e-4 -0.012 0-0.016 0-0.027 0.062 0.048 0.088 0.062 0.1582 0.1172 0.985 0.7758 2.4523 2.0032 4.3769 3.6582 3.8491 3.3101 9.5281 8.3344 16.934 14.984 14.811 13.3 36.536 33.097 64.426 58.689 55.778 51.185 136.22 125.56 235.34 217.56 198.25 184 471.25 438.5 771.25 719 514.5 481.5 787 736 932.14 867.51 72.569 65.756 113.29 100.76 136.56 118.06 11.636 8.6508 18.88 12.892 23.771 14.344 2.4469 0.7259 4.3706 0.7564 5.9024 0.1231 1.529-0.632 2.5209-1.8897 3.207-3.3242 0.2949-0.5515 0.8317-1.801 1.7559-4.0118 0.9311-2.2272 2.2104-5.3467 3.832-9.3398 3.2433-7.9863 7.8541-19.464 13.76-34.256 11.811-29.584 28.806-72.421 50.424-127.06 43.235-109.28 104.95-265.78 180.64-457.91 151.37-384.25 358.63-911 585.62-1487.5 226.5-577 433.75-1101.5 585-1481.7 75.625-190.12 137.25-344.18 180.28-450.71 21.515-53.264 38.383-94.646 50.025-122.71 5.8211-14.03 10.336-24.731 13.471-31.916 1.5671-3.5924 2.7904-6.3087 3.6523-8.1094 0.4311-0.90047 0.7732-1.5762 1.0098-1.9961 0.028-0.0496 0.041-0.0623 0.064-0.10156zm417.83 142.79c102.62 36.187 205.06 72.592 282.34 100.39 38.64 13.898 70.992 25.644 93.934 34.135 11.471 4.2452 20.59 7.6771 26.965 10.156 3.1878 1.2397 5.6895 2.24 7.457 2.9863 0.8839 0.3733 1.5851 0.6822 2.0957 0.9258 0.073 0.035 0.07 0.044 0.1328 0.074-0.051-0.026-0.079-0.044-0.1347-0.07-0.5102-0.2434-1.2096-0.5544-2.0938-0.9277-1.7675-0.7464-4.2691-1.7487-7.457-2.9883-6.3755-2.4793-15.494-5.9091-26.965-10.154-22.941-8.4902-55.293-20.236-93.934-34.135-77.281-27.797-179.72-64.203-282.34-100.39zm413.72 149.1c0.01 0 0.024 0.013 0.029 0.018 7e-4 6e-4 0 0 0 0 0.1066 0.1073 0.1003 0.2544 0.1094 0.4277-1e-4 5e-4 0 0.01 0 0.01 0-2e-4 -0.039 0.1212-0.039 0.1211 1e-4 -2e-4 -0.1212 0.1622-0.1211 0.1621s-0.2189 0.1114-0.2187 0.1113c1e-4 0-0.1897 0.01-0.1895 0.01 4e-4 0-0.1724-0.061-0.1719-0.061 1e-4 1e-4 -0-0-0-0l0.6348-0.7598-0.035-0.035zm0.1426 0.2676v0.021 0.047c-0-0.015-0.01-0.06-0.01-0.068zm-0.01 0.7344c-0.017 0.221-0.021 0.4139-0.072 0.709-0.1637 0.9347-0.498 2.2313-0.996 3.873-2e-4 6e-4 -0 0-0 0-0.9962 3.2831-2.6429 7.9442-4.877 13.826-4.4687 11.766-11.281 28.42-19.906 48.732 8.6243-20.311 15.436-36.967 19.904-48.732 2.2343-5.8828 3.8829-10.543 4.8789-13.826 0.4982-1.6419 0.8324-2.9387 0.9961-3.8731 0.052-0.2993 0.057-0.4909 0.074-0.7109zm-25.856 67.144c-17.25 40.625-41.749 95.876-69.248 155.88-41.25 90-106.12 233.44-162.56 359.86 56.437-126.42 121.31-269.86 162.56-359.86 27.5-60 52-115.25 69.25-155.88zm-439.71 990.28c-188.03 433.44-461.73 1069.9-712.79 1656.5-167.37 391.06-324.69 759.97-439.84 1031.8-57.578 135.91-104.62 247.56-137.11 325.57 32.488-78.01 79.526-189.65 137.1-325.57 115.16-271.83 272.47-640.74 439.84-1031.8 251.06-586.59 524.77-1223 712.79-1656.5zm-4230.6 854.68-0.045 0.5918c0-0.054 0.01-0.1597 0.014-0.207 0.012-0.1198-0.023-0.2116-0.049-0.2988 0.02-0.025 0.023-0.031 0.08-0.086zm0.3867 0.051c0.04 0.024 0.063 0.034 0.1133 0.066 0.2708 0.1776 0.6563 0.4625 1.1602 0.8594 1.008 0.794 2.4842 2.0259 4.414 3.6855 3.8596 3.3191 9.5398 8.3523 16.947 15.004-7.4083-6.6524-13.09-11.679-16.949-14.998-1.93-1.6596-3.404-2.8915-4.4121-3.6856-0.4081-0.3213-0.6827-0.5197-0.9258-0.6894zm22.637 19.615c14.816 13.305 36.543 33.1 64.434 58.693 55.781 51.187 136.22 125.56 235.34 217.56 198.25 184 471.25 438.5 771.25 719 514.5 481.5 787 736 932.12 867.5 54.421 49.312 90.93 81.33 115.57 101.53-24.642-20.203-61.153-52.217-115.57-101.53-145.12-131.5-417.63-386-932.12-867.5-300-280.5-573-535-771.25-719-99.125-92-179.56-166.38-235.34-217.56-27.89-25.593-49.615-45.393-64.432-58.697zm6885.9 1566.6c-0 0.01-0 0.014-0.01 0.023-0.07 0.097-0.223 0.2911-0.325 0.4257zm-0.789 1.043v0.01c-0.716 0.8969-1.823 2.2233-3.322 3.9747-2.48 2.8972-6.687 7.6729-11.277 12.871 4.594-5.2032 8.799-9.9818 11.281-12.881 1.499-1.7514 2.607-3.0761 3.322-3.9726zm-28.889 32.859c-11.555 12.964-23.715 26.587-42.447 47.375-47.99 53.258-119.05 131.67-210.7 232.51 91.656-100.85 162.72-179.26 210.71-232.52 18.728-20.784 30.886-34.402 42.441-47.365zm-3382.5 238.37 0.3125 0.3184s0.014 0.055 0.014 0.055v0.088l-0.6055-0.062c-0.1203-0.078-0.3066-0.1992-0.3066-0.1992s0.043-0.057 0.043-0.057 0.045-0.047 0.045-0.047l0.4942-0.096zm-0.6113 0.2481s0.1586 0.079 0.291 0.1445l-0.3262-0.033c0.01-0.032 0.026-0.082 0.035-0.1113zm-0.5293 0.031s0.4525 0.1063 0.4746 0.1114l-0.4746 0.3886v-0.5zm0.9765 0.1914s0.084 0.033 0.1465 0.057l-0.076-0.01-0.07-0.049zm3129.5 41.055c-183.31 201.7-449 493.17-777.25 852.74-656.5 719.12-1563.3 1710.6-2561.8 2801.1-998 1090.5-1909.3 2086-2573.4 2811.5-332.06 362.75-602.34 658-790.8 863.88-188.45 205.88-295.08 322.38-299.83 327.62-9.4967 9.996-18.246 19.246-24.744 25.994-3.25 3.375-5.9355 6.123-7.873 8.029-4e-4 1e-3 -0 0-0 0-0.9684 0.953-1.7485 1.696-2.3183 2.199-0.2793 0.248-0.5034 0.432-0.6797 0.561l0.377-0.316c0.087-0.07 0.1629-0.127 0.2988-0.246 0.5702-0.504 1.3533-1.244 2.3222-2.198 1.9375-1.906 4.625-4.659 7.875-8.035 6.498-6.748 15.246-15.994 24.742-25.99 4.75-5.25 111.38-121.75 299.83-327.62 188.45-205.88 458.74-501.12 790.8-863.88 664.13-725.51 1575.4-1721 2573.4-2811.5 998.5-1090.5 1905.3-2082 2561.8-2801.1 328.25-359.56 593.93-651.02 777.24-852.72zm-4433.1 113.58c-0.4386 0.4813-0.9549 0.8622-1.5742 1.1191v0c-1.247 0.5155-2.9161 0.5286-5.2325-0.1582 2.3176 0.6875 3.9888 0.6699 5.2364 0.1542 0.6199-0.2563 1.1348-0.6389 1.5742-1.1191zm3751.1 23.275 39.002 2-1890 2064.9 1890-2064.9-39.002-2c-1.3801-0.063-5.3787 0.097-11.879 0.4688-6.5009 0.3724-15.498 0.9561-26.861 1.7421-22.727 1.5723-54.912 3.9512-95.506 7.0528-81.187 6.2031-196 15.299-336 26.611-280 22.625-660.75 54.125-1074.7 89.125-414 35.5-790.5 66.75-1063.8 88.625-136.62 10.938-247.44 19.529-324.22 25.139-38.391 2.8046-68.274 4.8653-88.621 6.0976-10.174 0.6163-17.962 1.0257-23.24 1.2188-2.6389 0.097-4.6509 0.1398-6.0176 0.1269-0.683-0.01-1.2014-0.028-1.5625-0.062-0.182-0.017-0.3118-0.035-0.4141-0.06h-0.014l0.3145 0.043h0.012c0.035 0.01 0.1059 0.018 0.1641 0.018 0.3604 0.033 0.8535 0.051 1.5136 0.061 1.3674 0.013 3.377-0.031 6.0157-0.1269 5.2779-0.1931 13.068-0.6026 23.242-1.2188 20.348-1.2323 50.23-3.291 88.621-6.0957 76.781-5.6093 187.59-14.203 324.22-25.141 273.25-21.875 649.75-53.125 1063.8-88.625 414-35 794.75-66.5 1074.8-89.125 140-11.313 254.81-20.406 336-26.609 40.594-3.1015 72.783-5.4804 95.51-7.0527 11.363-0.7861 20.362-1.3699 26.863-1.7422 6.5002-0.3724 10.497-0.5331 11.877-0.4707zm-3003.2 122.24c-16.243 39.004-28.847 69.601-37.314 90.617-4.2337 10.508-7.4338 18.621-9.5352 24.193 2.1013-5.5724 5.2981-13.684 9.5313-24.191 8.4672-21.017 21.074-51.614 37.318-90.619zm-46.852 114.81c-1.0502 2.785-1.8246 4.9372-2.3184 6.4336-0.247 0.7485-0.4236 1.3317-0.5293 1.752-0.035 0.1388-0.047 0.2285-0.06 0.2988l-0.045 0.2305v-0.021c0.017-0.1285 0.051-0.2936 0.1036-0.5059 0.1054-0.4213 0.2804-1.0057 0.5273-1.7539 0.4941-1.4973 1.2715-3.6473 2.3223-6.4336zm-3307 7319.6v0.06c-0-0.03-0-0.04-0.01-0.07z" color="#000000" style="-inkscape-stroke:none"/>
  </g>
 </g>
</svg>
