<?xml version="1.0" encoding="UTF-8"?>
<!-- Created with Inkscape (http://www.inkscape.org/) -->
<svg width="1e3" height="1e3" version="1.1" viewBox="0 0 1e3 1e3" xmlns="http://www.w3.org/2000/svg" xmlns:cc="http://creativecommons.org/ns#" xmlns:dc="http://purl.org/dc/elements/1.1/" xmlns:rdf="http://www.w3.org/1999/02/22-rdf-syntax-ns#">
 <metadata>
  <rdf:RDF>
   <cc:Work rdf:about="">
    <dc:format>image/svg+xml</dc:format>
    <dc:type rdf:resource="http://purl.org/dc/dcmitype/StillImage"/>
   </cc:Work>
  </rdf:RDF>
 </metadata>
 <g>
  <path d="m936.44 674.39-31.551 19.186c23.208 38.167 30.286 64.981 29.912 81.963s-6.4681 25.182-15.697 32.129c-18.458 13.893-51.898 14.85-51.898 14.85l-0.32031 17.033 0.23828-17.031c-47.219-0.65998-79.672 7.3428-101.88 22.752s-31.826 38.635-33.029 59.363c-2.4073 41.458 21.324 77.342 21.324 77.342l31.467-19.326s-17.368-31.039-15.926-55.875c0.72107-12.418 4.269-22.182 17.213-31.162s37.638-16.766 80.316-16.17v-0.00195c0.53214 0.029 42.172 2.2176 74.705-22.27 16.371-12.322 29.805-33.381 30.408-60.82 0.60352-27.439-9.8916-60.209-35.279-101.96z" color="#000000" opacity=".5" style="-inkscape-stroke:none"/>
  <path d="m854.69 649.23-31.553 19.186c19.449 31.986 25.167 54.192 24.869 67.738-0.29801 13.546-4.8797 19.483-12.129 24.939-14.498 10.913-42.1 11.979-42.1 11.979l-0.32813 17.438 0.24415-17.436c-40.266-0.56296-68.299 6.2175-87.791 19.74s-28.09 34.196-29.145 52.361c-2.1097 36.33 18.443 67.039 18.443 67.039l31.467-19.326s-14.189-25.863-13.045-45.572c0.57225-9.8545 3.1032-17.067 13.328-24.16s30.499-13.658 66.225-13.158c0.52019 0.03133 36.333 2.1061 64.906-19.4 14.391-10.832 26.316-29.627 26.844-53.631 0.52805-24.003-8.6073-52.165-30.236-87.736z" color="#000000" opacity=".5" style="-inkscape-stroke:none"/>
  <path d="m773.35 635.61-31.762 18.832c14.485 24.429 18.278 41.029 17.906 50.617-0.37179 9.5879-3.3936 13.286-8.5078 17.199-10.228 7.8272-30.76 9.2461-30.76 9.2461l-0.03321 17.662-0.05273-17.66c-31.943 0.0959-54.738 5.8855-70.945 17.35-16.207 11.464-23.708 28.938-24.836 44.066-2.2553 30.257 14.113 54.918 14.113 54.918l31.678-18.979s-9.9987-19.351-8.9668-33.195c0.51593-6.922 2.0706-11.522 9.3379-16.662 7.267-5.1403 22.361-10.488 49.727-10.57 1.9e-4 1e-5 0.00371-1e-5 0.00391 0 0.5184 0.0252 29.397 1.345 53.176-16.852 11.997-9.1807 22.191-25.147 22.965-45.092s-6.3596-42.745-23.043-70.881z" color="#000000" opacity=".5" style="-inkscape-stroke:none"/>
 </g>
 <g transform="matrix(.061567 -.026761 -.026761 -.061567 209.83 913.02)" stroke="#0f0">
  <path d="m2882 7943c4-2601 9-4962 10-5249l3-521 1105 1034c608 569 1153 1079 1211 1133l106 99 503-1282c589-1502 941-2394 998-2527 42-98 123-210 152-210 49 0 867 267 1095 357 295 117 375 174 375 271 0 34-157 408-825 1960-455 1054-827 1921-828 1927-1 5 12 8 28 7 17-1 783-65 1704-142 920-78 1677-139 1681-138 5 2-1625 1787-3622 3968-1996 2181-3645 3982-3664 4003-19 20-35 37-36 37-2 0 0-2127 4-4727zm3399 442 2993-3270-39-2c-22-1-717 55-1545 125-828 71-1506 125-1508 121-5-11 1178-2774 1495-3494 63-143 160-358 215-478s98-221 95-224c-8-7-818-293-832-293-5 0-381 944-834 2098-454 1153-829 2107-836 2120-10 21-71-34-1100-997-600-561-1092-1018-1094-1015-7 6-16 8584-10 8582 4-2 1354-1474 3e3 -3273z" stroke="#0f0"/>
 </g>
</svg>
