<?xml version="1.0" encoding="UTF-8"?>
<!-- Created with Inkscape (http://www.inkscape.org/) -->
<svg width="1e3" height="1e3" version="1.1" viewBox="0 0 1e3 1e3" xmlns="http://www.w3.org/2000/svg" xmlns:cc="http://creativecommons.org/ns#" xmlns:dc="http://purl.org/dc/elements/1.1/" xmlns:rdf="http://www.w3.org/1999/02/22-rdf-syntax-ns#">
 <metadata>
  <rdf:RDF>
   <cc:Work rdf:about="">
    <dc:format>image/svg+xml</dc:format>
    <dc:type rdf:resource="http://purl.org/dc/dcmitype/StillImage"/>
   </cc:Work>
  </rdf:RDF>
 </metadata>
 <path d="m855.56 656.83-38.057 22.566c17.356 29.27 21.899 49.159 21.453 60.646-0.44561 11.488-4.0655 15.918-10.193 20.607-12.256 9.3784-36.855 11.078-36.855 11.078l-0.04102 21.129-0.0625-21.125c-38.274 0.11488-65.585 7.0513-85.004 20.787s-28.41 34.67-29.762 52.797c-2.7027 36.253 16.912 65.801 16.912 65.801l37.953-22.738s-11.979-23.186-10.742-39.773c0.61827-8.2935 2.4797-13.806 11.188-19.965 8.7063-6.1583 26.791-12.564 59.572-12.664 6.8e-4 3e-5 0.01484-4e-5 0.01563 0 0.62659 0.03046 35.226 1.6111 63.715-20.189 14.375-11 26.589-30.132 27.516-54.029 0.92697-23.897-7.618-51.216-27.607-84.928z" color="#000000" style="-inkscape-stroke:none"/>
 <g transform="matrix(.061567 -.026761 -.026761 -.061567 209.83 913.02)" stroke="#000">
  <g stroke="#000">
   <path d="m2882 7943c4-2601 9-4962 10-5249l3-521 1105 1034c608 569 1153 1079 1211 1133l106 99 503-1282c589-1502 941-2394 998-2527 42-98 123-210 152-210 49 0 867 267 1095 357 295 117 375 174 375 271 0 34-157 408-825 1960-455 1054-827 1921-828 1927-1 5 12 8 28 7 17-1 783-65 1704-142 920-78 1677-139 1681-138 5 2-1625 1787-3622 3968-1996 2181-3645 3982-3664 4003-19 20-35 37-36 37-2 0 0-2127 4-4727zm3399 442 2993-3270-39-2c-22-1-717 55-1545 125-828 71-1506 125-1508 121-5-11 1178-2774 1495-3494 63-143 160-358 215-478s98-221 95-224c-8-7-818-293-832-293-5 0-381 944-834 2098-454 1153-829 2107-836 2120-10 21-71-34-1100-997-600-561-1092-1018-1094-1015-7 6-16 8584-10 8582 4-2 1354-1474 3e3 -3273z" color="#000000" style="-inkscape-stroke:none"/>
   <path d="m6970 419.5c-7.5718 0-18.067 7.1112-30.428 19.174-12.36 12.063-26.528 29.142-41.102 49.283-29.148 40.282-59.911 92.802-80.93 141.85-57.025 133.06-409.01 1025-998.01 2527l-502.73 1281.3-105.46-98.498c-57.994-53.995-603-564-1211-1133l-1105.8-1034.8-3.0059 522.14c-1 287-6 2648-10 5249-2 1300-3.5 2481.8-4.25 3338.5-0.375 428.38-0.5625 775.5-0.5312 1015.5 0.016 120.02 0.086 213.26 0.2148 276.5 0.064 31.62 0.144 55.737 0.2383 71.951 0.047 8.108 0.098 14.24 0.1523 18.346 0.027 2.053 0.057 3.6 0.086 4.637 0.015 0.519 0.029 0.909 0.045 1.178 0.01 0.134 0.015 0.235 0.025 0.32 0.01 0.08 0.5117 0.539 0.5195 0.539 0.2083 0 0.2853-0.06 0.377-0.109 0.092-0.05 0.1799-0.111 0.2793-0.184 0.1987-0.145 0.4389-0.344 0.7304-0.602 0.5831-0.515 1.3678-1.262 2.3399-2.218 1.9441-1.913 4.6314-4.663 7.8828-8.039 6.5028-6.753 15.254-16.005 24.754-26.004 4.7214-5.218 111.37-121.75 299.83-327.62 188.45-205.88 458.73-501.12 790.8-863.88 664.12-725.5 1575.4-1721 2573.4-2811.5 998.5-1090.5 1905.3-2082 2561.8-2801.1 328.25-359.56 593.94-651.03 777.25-852.74 91.657-100.85 162.72-179.26 210.71-232.52 23.997-26.63 42.226-46.973 54.379-60.691 6.077-6.8591 10.635-12.061 13.637-15.568 1.501-1.7535 2.611-3.0807 3.334-3.9864 0.361-0.4528 0.625-0.7982 0.798-1.0508 0.09-0.1262 0.151-0.2244 0.204-0.332 0.05-0.1075 0.279-0.578-0.248-0.789l-0.03-0.012-0.03-0.01c-0.18-0.045-0.218-0.027-0.351-0.027-0.134-3e-4 -0.307 0-0.524 0.01-0.435 0.015-1.047 0.046-1.838 0.09-1.581 0.089-3.877 0.2359-6.873 0.4414-5.991 0.411-14.777 1.0537-26.217 1.916-22.88 1.7247-56.372 4.3301-99.326 7.7285-85.907 6.797-209.66 16.766-362.03 29.203-304.75 24.875-724 59.625-1184 98.625-460.5 38.5-882.25 73.75-1191 99.5-154.37 12.875-280.5 23.375-369.09 30.719-44.297 3.6719-79.211 6.5547-103.58 8.5508s-38.234 3.1062-40.312 3.2285c-7.9605 0.4975-15.175-0-20.225-1.2363-2.5246-0.6158-4.5065-1.4201-5.7461-2.3242-1.2395-0.9042-1.715-1.8056-1.5078-2.8418v-0.01-0.01c-0.01 0.048 0.018-0.071 0.068-0.2148s0.1258-0.3445 0.2227-0.5977c0.1936-0.5062 0.4767-1.2238 0.8496-2.1465 0.7458-1.8454 1.846-4.5128 3.291-7.9804 2.8899-6.9353 7.1603-17.071 12.738-30.24 11.156-26.339 27.545-64.815 48.607-114.11 42.125-98.593 102.94-240.47 177.94-415.09 150-349.25 356.75-829.5 584.25-1356.5 334-776 540.25-1257.5 663-1549.3 61.376-145.88 101.88-244.31 127.04-308.42 12.58-32.051 21.324-55.518 26.926-72.043 5.6022-16.525 8.0781-26.042 8.0781-30.484 0-48.637-20.132-87.352-77.082-128.41s-150.72-84.554-298.23-143.06c-114.03-45.013-375.52-134.26-614.65-212.26-119.56-39.001-233.54-75.19-320.68-101.63-43.573-13.22-80.439-24.002-107.95-31.48-13.755-3.7394-25.17-6.6526-33.92-8.6328-8.7448-1.9822-14.797-3.0352-17.973-3.0352zm0 1c2.949 0 9.031 1.0329 17.758 3.0078 8.7269 1.9749 20.132 4.8859 33.879 8.623 27.494 7.4743 64.354 18.255 107.92 31.473 87.135 26.436 201.1 62.622 320.66 101.62 239.12 77.998 500.63 167.25 614.6 212.24 147.49 58.495 241.22 102 298.02 142.94s76.668 79.231 76.668 127.59c0 4.0576-2.4304 13.666-8.0234 30.164-5.5931 16.498-14.334 39.953-26.91 71.996-25.153 64.086-65.653 162.52-127.03 308.4-122.75 291.75-329 773.25-663 1549.2-227.5 527-434.25 1007.2-584.25 1356.5-75 174.62-135.81 316.5-177.94 415.09-21.063 49.297-37.455 87.774-48.611 114.12-5.5783 13.17-9.8469 23.307-12.738 30.246-1.4457 3.4694-2.5466 6.1385-3.2949 7.9902-0.3742 0.9259-0.6617 1.6472-0.8594 2.1641-0.099 0.2585-0.1747 0.4655-0.2305 0.625-0.053 0.1531-0.086 0.2339-0.1093 0.3652-2e-4 7e-4 1e-4 0 0 0-0.2917 1.4629 0.4824 2.8109 1.8984 3.8437 1.4167 1.0334 3.4973 1.8541 6.0977 2.4883 5.2001 1.2684 12.485 1.766 20.523 1.2637 2.1712-0.1277 15.965-1.2363 40.336-3.2324 24.371-1.9961 59.285-4.8789 103.58-8.5508 88.594-7.3438 214.72-17.844 369.09-30.719 308.75-25.75 730.5-61 1191-99.5 460-39 879.25-73.75 1184-98.625 152.37-12.437 276.12-22.406 362.03-29.203 42.953-3.3984 76.445-6.004 99.323-7.7285 11.438-0.8623 20.224-1.5033 26.211-1.9141 2.993-0.2053 5.287-0.3531 6.861-0.4414 0.704-0.039 1.211-0.062 1.623-0.078-0.137 0.1818-0.233 0.3174-0.438 0.5742-0.708 0.8875-1.815 2.2118-3.312 3.961-2.995 3.4982-7.55 8.6996-13.625 15.557-12.15 13.714-30.378 34.056-54.373 60.686-47.991 53.259-119.05 131.67-210.71 232.52-183.31 201.7-449 493.17-777.25 852.73-656.5 719.12-1563.3 1710.6-2561.8 2801.1-998 1090.5-1909.3 2086-2573.4 2811.5-332.06 362.75-602.34 658-790.8 863.88-188.45 205.88-295.05 322.34-299.83 327.63-9.4971 9.997-18.243 19.243-24.738 25.988-3.2486 3.374-5.9363 6.124-7.8672 8.024-0.9654 0.95-1.7432 1.687-2.3007 2.179-0.1223 0.108-0.1889 0.155-0.2891 0.239-0.01-0.209-0.017-0.365-0.025-0.66-0.029-1.028-0.057-2.571-0.084-4.621-0.055-4.102-0.1052-10.232-0.1523-18.338-0.094-16.212-0.1739-40.331-0.2383-71.95-0.1289-63.237-0.1992-156.48-0.2148-276.49-0.031-240.03 0.1562-587.16 0.5312-1015.5 0.75-856.75 2.25-2038.5 4.25-3338.5 4-2601 9-4962 10-5249l2.9941-519.86 1104.2 1033.2c608 569 1153 1079 1211 1133l106.54 99.502 503.27-1282.7c589-1502 941.02-2394 998-2527 20.981-48.956 51.718-101.44 80.82-141.65 14.551-20.109 28.696-37.154 40.992-49.154s22.8-18.889 29.728-18.889zm185 449c-0.2654 0-0.3467 0.11311-0.416 0.17773-0.069 0.0646-0.1189 0.12696-0.1719 0.19922-0.1059 0.14453-0.2192 0.328-0.3535 0.56641-0.2687 0.47682-0.6182 1.1681-1.0566 2.084-0.8769 1.8317-2.1031 4.5556-3.6739 8.1562-3.1415 7.2013-7.6576 17.907-13.48 31.941-11.646 28.069-28.513 69.452-50.029 122.72-43.032 106.53-104.66 260.6-180.28 450.72-151.25 380.25-358.5 904.75-585 1481.8-227 576.5-434.25 1103.3-585.62 1487.5-75.687 192.12-137.41 348.63-180.64 457.91-21.617 54.64-38.614 97.476-50.424 127.06-5.9051 14.79-10.513 26.267-13.754 34.248-1.6206 3.9906-2.9006 7.1076-3.8281 9.3262-0.9275 2.2187-1.5252 3.5798-1.7032 3.9102l-0.01 0.01-0.01 0.012c-0.5947 1.2488-1.3306 2.1389-2.4355 2.5957-1.105 0.4567-2.6498 0.4964-4.9024-0.1719-4.5051-1.3366-11.719-5.4974-23.303-14.109-23.168-17.224-63.888-52.224-136.45-117.97-145.12-131.49-417.62-385.99-932.12-867.49-300-280.5-573-535-771.25-719-99.125-92-179.56-166.38-235.35-217.56-27.891-25.594-49.618-45.39-64.438-58.697-7.4095-6.6535-13.092-11.686-16.957-15.01-1.9326-1.662-3.4105-2.8964-4.4297-3.6992-0.5096-0.4014-0.902-0.6925-1.1953-0.8848-0.1466-0.096-0.2638-0.1678-0.3906-0.2226-0.063-0.027-0.1254-0.055-0.2383-0.066-0.1081-0.011-0.3465 0.037-0.4902 0.2246-0.4757 0.454-0.1593 0.4291-0.1856 0.7012-0.029 0.2984-0.056 0.7152-0.084 1.2617-0.055 1.093-0.1108 2.6957-0.166 4.8047-0.1104 4.218-0.2209 10.462-0.332 18.666-0.2222 16.408-0.4454 40.662-0.6699 72.24-0.449 63.157-0.9014 155.61-1.3535 273.17-0.9043 235.13-1.8067 570.69-2.6739 973.19-1.7343 805-3.3281 1877.8-4.5156 2950.3s-1.9688 2144.8-2.0781 2948.8c-0.055 402 0.059 736.94 0.373 971.31 0.1572 117.19 0.365 209.24 0.627 271.96 0.131 31.359 0.2748 55.388 0.4336 71.562 0.079 8.087 0.1634 14.208 0.25 18.305 0.043 2.048 0.087 3.59 0.1328 4.621 0.023 0.515 0.044 0.903 0.068 1.172 0.024 0.268 0.7032 0.804 0.7266 0.797l0.033-0.01 0.031-0.02c0.2012-0.1 0.1621-0.112 0.2265-0.172 0.064-0.06 0.1443-0.136 0.2442-0.236 0.1997-0.199 0.4767-0.486 0.8359-0.859 0.7183-0.748 1.7595-1.847 3.1211-3.297 2.7232-2.9 6.7274-7.2 11.982-12.865 10.51-11.331 26.021-28.126 46.277-50.104 40.512-43.955 100.01-108.65 176.43-191.84 152.84-166.39 373.41-406.8 645.28-703.36 543.75-593.12 1292.8-1410.9 2115.8-2310.4l2993.7-3270.8-40.062-2.0547c-1.4577-0.066-5.4271 0.098-11.932 0.4707-6.5045 0.3725-15.505 0.9579-26.869 1.7441-22.729 1.5725-54.917 3.9512-95.512 7.0528-81.189 6.2032-196 15.297-336 26.609-280 22.625-660.75 54.125-1074.8 89.125-414 35.5-790.5 66.75-1063.7 88.625-136.62 10.937-247.44 19.531-324.22 25.141-38.39 2.8046-68.27 4.8616-88.613 6.0937-10.172 0.6161-17.96 1.026-23.23 1.2188-2.635 0.096-4.6424 0.1398-5.9942 0.1269-0.6758-0.01-1.1892-0.029-1.5214-0.061-0.051-0-0.063-0.01-0.1055-0.016 0.016-0.084 0.025-0.1503 0.055-0.2696 0.1-0.3977 0.2745-0.9744 0.5195-1.7168 0.4899-1.4846 1.2631-3.6332 2.3125-6.416 2.0988-5.5656 5.2983-13.677 9.5313-24.184 8.4658-21.013 21.071-51.609 37.314-90.613 32.488-78.008 79.528-189.65 137.11-325.56 115.16-271.83 272.47-640.73 439.84-1031.8 334.75-782.12 709.75-1652.9 868.25-2012.9 62.998-143 160-358 215-477.99 27.502-60.003 52.003-115.26 69.256-155.89 8.6264-20.316 15.439-36.975 19.912-48.752 2.2366-5.8885 3.8882-10.555 4.8907-13.859 0.5012-1.6521 0.8397-2.9611 1.0097-3.9317 0.085-0.4852 0.129-0.8843 0.1231-1.2207-0.01-0.3363-0.023-0.6396-0.293-0.9101l-0.024-0.024c-0.2423-0.212-0.5481-0.3564-1.0703-0.6054-0.5223-0.2491-1.2274-0.5606-2.1153-0.9356-1.7757-0.7498-4.2805-1.7516-7.4707-2.9922-6.3803-2.4811-15.501-5.9125-26.973-10.158-22.944-8.4912-55.296-20.238-93.938-34.137-77.283-27.797-179.72-64.203-282.35-100.39-102.63-36.188-205.44-72.158-283.47-99.08-39.016-13.461-71.837-24.661-95.344-32.496-11.754-3.9175-21.178-6.9936-27.887-9.0918-3.3546-1.0491-6.03-1.8526-7.9824-2.3965-0.9763-0.27193-1.7728-0.47875-2.3868-0.61914-0.6139-0.14038-1.0186-0.2207-1.3437-0.2207zm0.1797 1.0312c0.1743 0.0165 0.4471 0.051 0.9414 0.16406 0.5887 0.1346 1.3727 0.33801 2.3398 0.60742 1.9344 0.53883 4.6041 1.3413 7.9532 2.3887 6.698 2.0947 16.119 5.1695 27.869 9.0859 23.501 7.8329 56.321 19.032 95.336 32.492 78.029 26.921 180.84 62.889 283.46 99.076 102.62 36.187 205.06 72.594 282.34 100.39 38.64 13.898 70.991 25.644 93.93 34.133 11.469 4.2447 20.586 7.675 26.957 10.152 3.1854 1.2387 5.6839 2.2394 7.4434 2.9824 0.8798 0.3715 1.5755 0.6801 2.0742 0.918 0.4851 0.2313 0.7936 0.4261 0.8184 0.4433-0.063-0.063-0-0.01 0 0.209 0 0.2291-0.031 0.5827-0.1093 1.0313-0.1572 0.8971-0.4876 2.1833-0.9825 3.8144-0.9897 3.2624-2.6349 7.9158-4.8671 13.793-4.4645 11.754-11.277 28.408-19.9 48.717-17.247 40.618-41.746 95.865-69.244 155.86-55.001 120-152 335-215 478.01-158.5 360.01-533.5 1230.8-868.25 2012.9-167.38 391.06-324.69 759.97-439.85 1031.8-57.578 135.91-104.62 247.56-137.11 325.57-16.244 39.006-28.852 69.603-37.32 90.623-4.2343 10.51-7.4351 18.626-9.539 24.205-1.052 2.7896-1.8299 4.9431-2.3282 6.4531-0.2491 0.755-0.4266 1.3476-0.5371 1.789-0.055 0.2207-0.094 0.4018-0.1152 0.5606-0.021 0.1588-0.074 0.2665 0.045 0.5273v0.01 0.01c0.09 0.1798 0.2046 0.2331 0.2832 0.2714 0.079 0.038 0.1447 0.057 0.2149 0.074 0.1404 0.035 0.2951 0.056 0.4883 0.074 0.3864 0.037 0.9165 0.058 1.6074 0.064 1.3817 0.013 3.3982-0.03 6.041-0.1269 5.2857-0.1934 13.076-0.6024 23.252-1.2188 20.352-1.2326 50.237-3.2929 88.629-6.0976 76.783-5.6096 187.6-14.203 324.22-25.141 273.25-21.875 649.75-53.125 1063.8-88.625 414-35 794.75-66.5 1074.7-89.125 140-11.312 254.81-20.406 336-26.609 40.593-3.1015 72.78-5.4807 95.504-7.0528 11.362-0.786 20.358-1.37 26.855-1.7422 6.4964-0.372 10.533-0.5274 11.826-0.4687l37.94 1.9453-2992.3 3269.2c-823 899.5-1572 1717.3-2115.8 2310.4-271.87 296.56-492.44 536.97-645.28 703.36-76.422 83.196-135.91 147.89-176.42 191.84-20.256 21.978-35.767 38.77-46.275 50.1-5.2543 5.665-9.258 9.964-11.978 12.861-1.3603 1.449-2.4002 2.547-3.1133 3.289-0.1821 0.19-0.2807 0.287-0.4199 0.43-0.01-0.163-0.018-0.249-0.027-0.455-0.045-1.016-0.088-2.553-0.1308-4.598-0.086-4.089-0.1707-10.212-0.25-18.297-0.1587-16.17-0.3026-40.195-0.4336-71.554-0.262-62.718-0.4698-154.76-0.627-271.95-0.3144-234.38-0.4277-569.31-0.373-971.31 0.1093-804 0.8906-1876.3 2.0781-2948.8s2.7813-2145.2 4.5156-2950.2c0.8672-402.5 1.7696-738.06 2.6739-973.19 0.4521-117.56 0.9045-210.01 1.3535-273.17 0.2245-31.578 0.4478-55.832 0.6699-72.236 0.111-8.202 0.2218-14.441 0.332-18.65 0.055-2.1048 0.1096-3.7041 0.1641-4.7812 0.021-0.4202 0.044-0.6914 0.064-0.9493 0.2394 0.1671 0.5038 0.3565 0.9043 0.6719 0.9966 0.7849 2.4673 2.0146 4.3946 3.6719 3.8544 3.3147 9.5345 8.341 16.941 14.992 14.814 13.302 36.54 33.1 64.43 58.693 55.78 51.186 136.22 125.56 235.34 217.56 198.25 184 471.25 438.5 771.25 719 514.5 481.5 787 736 932.13 867.51 72.566 65.753 113.28 100.75 136.52 118.03 11.619 8.638 18.851 12.852 23.615 14.266 2.3822 0.7067 4.1787 0.7151 5.5683 0.1406 1.3853-0.5726 2.2944-1.7098 2.9493-3.08 0.2604-0.4849 0.8165-1.7674 1.7441-3.9864 0.9299-2.2243 2.2088-5.3436 3.8301-9.3359 3.2426-7.9846 7.8523-19.462 13.758-34.254 11.811-29.583 28.807-72.42 50.424-127.06 43.234-109.28 104.95-265.78 180.64-457.91 151.38-384.25 358.63-911 585.62-1487.5 226.5-577 433.75-1101.5 585-1481.7 75.625-190.12 137.25-344.19 180.28-450.72 21.515-53.265 38.382-94.647 50.025-122.71 5.8217-14.032 10.338-24.733 13.475-31.924 1.5684-3.5952 2.7933-6.314 3.6602-8.125 0.4335-0.90548 0.7778-1.5859 1.0254-2.0254 0.1071-0.19014 0.1871-0.31119 0.25-0.40234z" color="#000000" fill="#0f0" style="-inkscape-stroke:none"/>
  </g>
 </g>
</svg>
