<?xml version="1.0" encoding="UTF-8"?>
<!-- Created with Inkscape (http://www.inkscape.org/) -->
<svg width="1e3" height="1e3" version="1.1" viewBox="0 0 1e3 1e3" xmlns="http://www.w3.org/2000/svg" xmlns:cc="http://creativecommons.org/ns#" xmlns:dc="http://purl.org/dc/elements/1.1/" xmlns:rdf="http://www.w3.org/1999/02/22-rdf-syntax-ns#">
 <metadata>
  <rdf:RDF>
   <cc:Work rdf:about="">
    <dc:format>image/svg+xml</dc:format>
    <dc:type rdf:resource="http://purl.org/dc/dcmitype/StillImage"/>
   </cc:Work>
  </rdf:RDF>
 </metadata>
 <path d="M 916.38,516 A 420.38,420.38 0 0 1 496,936.38 420.38,420.38 0 0 1 75.619995,516 420.38,420.38 0 0 1 496,95.619995 420.38,420.38 0 0 1 916.38,516 Z" color="#000000" fill="#f00" stroke-width="77.265" style="-inkscape-stroke:none"/>
 <path d="m496 56.988c-121.72 0-238.5 48.37-324.57 134.44-86.071 86.071-134.44 202.85-134.44 324.57s48.37 238.5 134.44 324.57c86.071 86.071 202.85 134.44 324.57 134.44s238.5-48.37 324.57-134.44 134.44-202.85 134.44-324.57-48.37-238.5-134.44-324.57-202.85-134.44-324.57-134.44zm0 77.264c101.26 0 198.33 40.211 269.94 111.81 71.602 71.602 111.81 168.68 111.81 269.94s-40.211 198.33-111.81 269.94c-71.602 71.602-168.68 111.81-269.94 111.81s-198.33-40.211-269.94-111.81c-71.602-71.602-111.81-168.68-111.81-269.94s40.211-198.33 111.81-269.94c71.602-71.602 168.68-111.81 269.94-111.81z" color="#000000" style="-inkscape-stroke:none"/>
 <path d="m498.25 449.91-92.898 170.72-7.1748 12.84 44.098 48.546-86.243 26.861-45.422 81.268 178.24-0.41029 178.17 1.9741-28.076-56.03-94.851-49.617 52.609-34.682-15.02-29.976z"/>
 <path d="m477.83 192.96-45.838 99.742 72.525 36.373-37.484 85.191 28.254 12.432 49.307-112.06-72.096-36.156 33.381-72.633z" color="#000000" style="-inkscape-stroke:none"/>
</svg>
