<?xml version="1.0" encoding="UTF-8"?>
<!-- Created with Inkscape (http://www.inkscape.org/) -->
<svg width="1e3" height="1e3" version="1.1" viewBox="0 0 1e3 1e3" xmlns="http://www.w3.org/2000/svg" xmlns:cc="http://creativecommons.org/ns#" xmlns:dc="http://purl.org/dc/elements/1.1/" xmlns:rdf="http://www.w3.org/1999/02/22-rdf-syntax-ns#">
 <metadata>
  <rdf:RDF>
   <cc:Work rdf:about="">
    <dc:format>image/svg+xml</dc:format>
    <dc:type rdf:resource="http://purl.org/dc/dcmitype/StillImage"/>
   </cc:Work>
  </rdf:RDF>
 </metadata>
 <path d="m499.02 765.34c-75.398-0.78653-151.24 19.764-202.16 59.619-31.747 24.847-50.792 56.096-51.379 89.193l-0.23828 13.465 478.75 2.3848 1.7969-11.256c4.2161-26.416-3.8114-52.594-20.961-74.598-17.15-22.004-43.137-40.332-76.041-53.908-39.446-16.275-84.527-24.428-129.77-24.9zm-0.13281 27.576c42.237 0.17246 84.175 7.2232 119.76 21.904 29.627 12.224 51.717 28.365 65.209 45.676 10.768 13.816 16.148 28.069 16.396 42.797l-426.34-2.125c4.3986-18.912 17.245-37.975 39.342-55.27 44.018-34.451 115.24-53.27 185.64-52.982z" color="#000000" style="-inkscape-stroke:none"/>
 <path d="m499.03 764.84c-75.493-0.78751-151.43 19.773-202.47 59.725-31.831 24.913-50.98 56.295-51.57 89.578l-0.24804 13.973 479.68 2.3887 1.8652-11.68c4.2398-26.565-3.8393-52.886-21.061-74.982-17.217-22.091-43.279-40.463-76.244-54.064-39.516-16.304-84.656-24.465-129.95-24.938zm-0.0117 1c45.182 0.47133 90.204 8.6172 129.58 24.863 32.843 13.551 58.756 31.835 75.838 53.752 17.078 21.912 25.054 47.945 20.861 74.213l-1.7285 10.832-477.81-2.3809 0.22851-12.957c0.58376-32.911 19.524-64.027 51.188-88.809 50.799-39.758 126.54-60.299 201.84-59.514zm-0.125 26.576c-70.485-0.28781-141.79 18.531-185.95 53.088-22.163 17.346-35.089 36.502-39.52 55.551l-0.14258 0.60937 427.48 2.1309-8e-3 -0.50976c-0.2502-14.844-5.6811-29.212-16.502-43.096-13.562-17.401-35.723-33.583-65.412-45.832-35.659-14.712-77.656-21.769-119.95-21.941zm-4e-3 1c42.182 0.17223 84.061 7.2175 119.57 21.867 29.565 12.198 51.584 28.298 65.006 45.52 10.589 13.587 15.877 27.559 16.238 41.988l-425.13-2.1192c4.4993-18.576 17.196-37.323 38.988-54.379 43.881-34.344 115.02-53.164 185.33-52.877z" color="#000000" style="-inkscape-stroke:none"/>
 <path d="m244.28 53.352v689.61h481.12v-689.61zm69.295 69.297h342.54v551.01h-342.54z" color="#000000" style="-inkscape-stroke:none"/>
 <path d="m243.78 52.852v690.61h482.12v-690.61zm1 1h480.12v688.61h-480.12v-654.46zm68.295 68.297v552.01h343.54v-552.01zm1 1h341.54v550.01h-341.54z" color="#000000" style="-inkscape-stroke:none"/>
 <path d="m241.28 944.59v31.285h488.21v-31.285h-472.56z" color="#000000" stroke-linecap="square" style="-inkscape-stroke:none"/>
 <path d="m240.78 944.09v32.285h489.21v-32.285h-473.06zm1 1h487.21v30.285h-487.21z" color="#000000" stroke-linecap="square" style="-inkscape-stroke:none"/>
 <path d="m547.33 376.9c-3.6582-0.19711-7.4116 0.42035-10.479 2.1621-6.1338 3.4835-8.559 8.2392-10.568 12.467-2.0094 4.2276-3.4502 8.5671-4.9531 13.146-6.0118 18.318-12.728 39.121-29.766 48.062-22.946 12.042-36.723 5.2032-54.354 0.0137-8.8153-2.5948-19.533-5.5044-30.943-0.68555-11.411 4.8189-19.021 15.852-24.943 31.992-2.5243 6.8809-4.102 12.466-4.0449 18.635 0.057 6.169 3.6214 14.365 9.7051 17.936 6.0837 3.5701 11.412 3.2917 16.078 2.918 4.666-0.37369 9.146-1.2969 13.863-2.2852 18.869-3.9528 40.244-8.538 56.506 1.7461 21.901 13.85 22.868 29.201 27.189 47.064 2.1605 8.9316 4.9984 19.668 14.877 27.141 9.8785 7.4726 23.236 8.5463 40.176 5.6055 7.2214-1.2537 12.848-2.6792 18.162-5.8125 5.3143-3.1333 10.632-10.317 10.682-17.371 0.0501-7.054-2.857-11.531-5.5137-15.385-2.6566-3.854-5.6937-7.2719-8.9082-10.863-12.858-14.365-27.518-30.584-26.742-49.809 1.0443-25.891 13.855-34.404 27.164-47.078 6.6547-6.3368 14.532-14.164 16.064-26.455s-4.2157-24.398-15.232-37.598c-4.6964-5.6267-8.7425-9.7849-14.113-12.82-2.6854-1.5177-6.248-2.5295-9.9062-2.7266z" color="#000000" stroke-linejoin="round" style="-inkscape-stroke:none;paint-order:stroke fill markers"/>
</svg>
