<?xml version="1.0" encoding="UTF-8"?>
<!-- Created with Inkscape (http://www.inkscape.org/) -->
<svg width="1e3" height="1e3" version="1.1" viewBox="0 0 1e3 1e3" xmlns="http://www.w3.org/2000/svg" xmlns:cc="http://creativecommons.org/ns#" xmlns:dc="http://purl.org/dc/elements/1.1/" xmlns:rdf="http://www.w3.org/1999/02/22-rdf-syntax-ns#">
 <metadata>
  <rdf:RDF>
   <cc:Work rdf:about="">
    <dc:format>image/svg+xml</dc:format>
    <dc:type rdf:resource="http://purl.org/dc/dcmitype/StillImage"/>
   </cc:Work>
  </rdf:RDF>
 </metadata>
 <g>
  <path d="m502.94 58.496c-121.01 0-237.11 48.088-322.68 133.66-85.57 85.57-133.66 201.66-133.66 322.68 0 121.01 48.086 237.11 133.66 322.68 85.57 85.57 201.66 133.66 322.68 133.66 121.01 0 237.11-48.088 322.68-133.66 85.57-85.57 133.66-201.66 133.66-322.68 0-121.01-48.086-237.11-133.66-322.68-85.57-85.57-201.66-133.66-322.68-133.66zm0 66.547c103.39 0 202.51 41.058 275.62 114.17 73.108 73.108 114.17 172.23 114.17 275.62s-41.058 202.51-114.17 275.62c-73.108 73.108-172.23 114.17-275.62 114.17-103.39 0-202.51-41.058-275.62-114.17-73.108-73.108-114.16-172.23-114.16-275.62s41.056-202.51 114.16-275.62c73.108-73.108 172.23-114.17 275.62-114.17z" color="#000000" style="-inkscape-stroke:none"/>
  <path d="m503.95 343.53c-94.993 0-172.36 77.365-172.36 172.36 0 94.993 77.363 172.36 172.36 172.36s172.36-77.363 172.36-172.36c0-94.993-77.365-172.36-172.36-172.36zm0 33.273c77.011 0 139.08 62.073 139.08 139.08 0 77.011-62.073 139.08-139.08 139.08s-139.08-62.071-139.08-139.08c0-77.011 62.071-139.08 139.08-139.08z" color="#000000" style="-inkscape-stroke:none"/>
  <g stroke-width="28.997">
   <path d="m399.94 211.79 8.1934 20.15 41.07 100.98 6.7168 16.988h93.961l6.7168-16.988 49.264-121.13-102.96 0.90039-102.96-0.90039z" color="#000000" style="-inkscape-stroke:none"/>
   <path d="m454.91 674.52-6.7168 16.988-49.264 121.13 21.75-0.1914 81.211-0.70899 102.96 0.90039-49.264-121.13-6.7168-16.988h-93.961z" color="#000000" style="-inkscape-stroke:none"/>
   <path d="m349.14 597.42-16.762 7.2617-120.49 50.824 15.516 15.246 57.92 56.916 72.168 73.441 50.824-120.49 7.2617-16.76-66.439-66.441z" color="#000000" style="-inkscape-stroke:none"/>
   <path d="m645.46 226.8-50.824 120.49-7.2637 16.762 66.441 66.441 16.762-7.2637 120.49-50.822-15.514-15.246-57.92-56.916-72.168-73.441z" color="#000000" style="-inkscape-stroke:none"/>
   <path d="m656.7 595.68-66.439 66.441 7.2617 16.762 50.824 120.49 72.168-73.439 73.436-72.164-20.043-8.4551-100.45-42.367-16.762-7.2637z" color="#000000" style="-inkscape-stroke:none"/>
   <path d="m365.46 227.11-72.17 73.439-73.434 72.164 20.041 8.4531 100.45 42.369 16.762 7.2617 66.441-66.439-7.2637-16.762-50.822-120.49z" color="#000000" style="-inkscape-stroke:none"/>
   <path d="m801.23 403.79-20.15 8.1953-100.98 41.068-16.988 6.7168v93.961l16.988 6.7168 121.13 49.264-0.9004-102.96 0.9004-102.96z" color="#000000" style="-inkscape-stroke:none"/>
   <path d="m202.52 404.2 0.19141 21.752 0.70899 81.209-0.9004 102.96 121.13-49.264 16.988-6.7168v-93.961l-16.988-6.7168-121.13-49.264z" color="#000000" style="-inkscape-stroke:none"/>
  </g>
 </g>
</svg>
