<?xml version="1.0" encoding="UTF-8"?>
<!-- Created with Inkscape (http://www.inkscape.org/) -->
<svg width="1e3" height="1e3" version="1.1" viewBox="0 0 1e3 1e3" xmlns="http://www.w3.org/2000/svg" xmlns:cc="http://creativecommons.org/ns#" xmlns:dc="http://purl.org/dc/elements/1.1/" xmlns:rdf="http://www.w3.org/1999/02/22-rdf-syntax-ns#">
 <metadata>
  <rdf:RDF>
   <cc:Work rdf:about="">
    <dc:format>image/svg+xml</dc:format>
    <dc:type rdf:resource="http://purl.org/dc/dcmitype/StillImage"/>
   </cc:Work>
  </rdf:RDF>
 </metadata>
 <path d="m690.77 248.19-8.4102 32.719-126.54 492.31 35.348 9.1445c57.118 14.777 117.85 11.069 173.43-10.373h2e-3c142.47-54.972 217.14-212.38 164.06-351.62-33.263-87.256-111.09-150.1-204.61-166.38zm53.307 86.41c53.807 18.85 96.201 59.25 116.24 111.82 38.425 100.8-14.994 216.03-122.04 257.34-29.797 11.495-61.51 15.991-92.592 13.656z" color="#000000" style="-inkscape-stroke:none"/>
 <path d="m306.02 248.19-33.281 5.7949c-93.515 16.28-171.35 79.125-204.61 166.38-53.083 139.25 21.586 296.65 164.06 351.62h2e-3c55.581 21.442 116.31 25.15 173.43 10.373l35.35-9.1445zm-53.307 86.41 98.393 382.81c-31.082 2.3348-62.794-2.1615-92.592-13.656l-2e-3 -2e-3c-107.05-41.305-160.47-156.54-122.04-257.33 20.039-52.568 62.436-92.969 116.24-111.82z" color="#000000" style="-inkscape-stroke:none"/>
 <g transform="matrix(2.1532,0,0,2.1661,-43.647,-52.943)" stroke="#000" stroke-width="1.0001">
  <rect x="168.87" y="434.71" width="129.28" height="36.641"/>
  <rect transform="rotate(-47.538)" x="-146.45" y="501.52" width="71.171" height="36.641"/>
 </g>
 <path d="m374.4 54.295-122.19 158.74 130.84-0.0683 42.932-56.932h110.8l58.68 56.74h144l-154.57-158.48zm18 36.57h177.07l83.232 85.34h-42.457l-58.68-56.738h-143.82l-42.939 56.939-38.275 0.0195z" color="#000000" style="-inkscape-stroke:none"/>
</svg>
