<?xml version="1.0" encoding="UTF-8"?>
<!-- Created with Inkscape (http://www.inkscape.org/) -->
<svg width="1e3" height="1e3" version="1.1" viewBox="0 0 1e3 1e3" xmlns="http://www.w3.org/2000/svg" xmlns:cc="http://creativecommons.org/ns#" xmlns:dc="http://purl.org/dc/elements/1.1/" xmlns:rdf="http://www.w3.org/1999/02/22-rdf-syntax-ns#">
 <metadata>
  <rdf:RDF>
   <cc:Work rdf:about="">
    <dc:format>image/svg+xml</dc:format>
    <dc:type rdf:resource="http://purl.org/dc/dcmitype/StillImage"/>
   </cc:Work>
  </rdf:RDF>
 </metadata>
 <path d="m430.99 55.709-83.264 7.4238-89.861 10.951-112.7 37.746-38.791 57.809-17.859 64.938 8.6914 61.771 33.541 75.088 37.709 51.502 51.787 28.465 28.65 10.947-0.0586 0.11914-152.38 316.57 124.64 103.13 123.29 66.836 125.29 21.078 78.84-2.3438 98.162-18.205 39.936-30.518 15.299-62.553-38.01-137.67 21.098-34.506 16.51 53.324 24.305 23.879 40.1 3.6152 33.885-15.645 124.38-164.51-9.0859-101.77-50.572-33.275-32.039-20.469-0.82227-2.6309 44.232-42.283 47.971-84.871 2.2148-97.072-27.715-75.883-74.432-32.521-47.885 9.4609-59.715-35.709-215.64-12.035zm2.623 60.742 65.311 0.16992 199.08 11.111 66.91 40.012 52.127-10.301 33.188 14.5 14.867 40.707-1.6055 70.379-36.055 63.791-64.988 62.123 18.668 59.748 50.363 32.174 25.727 16.93 4.3945 49.217-101.08 133.69-5.332 2.4609-0.79493-0.0723-51.123-165.12-104.93 171.61 40.809 147.81-6.4512 26.381-11.377 8.6934-79.295 14.707-68.186 2.0254-109.41-18.406-109.19-59.191-83.455-69.055 127.6-265.09 131.08-73.33-150.29-14.836-34.363-13.129-36.322-19.967-25.941-35.43-27.412-61.365-5.7461-40.838 11.904-43.289 21.758-32.422 87.252-29.223 82.777-10.088z" color="#000000" style="-inkscape-stroke:none"/>
 <rect x="300.15" y="169.91" width="68.624" height="77.898"/>
 <rect x="390.14" y="170.65" width="68.624" height="77.898"/>
 <rect x="482.07" y="172.12" width="68.624" height="77.898"/>
 <rect x="577.24" y="172.85" width="68.624" height="77.898"/>
 <rect x="669.17" y="174.32" width="68.624" height="77.898"/>
 <rect x="283.32" y="286.02" width="68.624" height="77.898"/>
 <rect x="373.31" y="286.76" width="68.624" height="77.898"/>
 <rect x="465.24" y="288.23" width="68.624" height="77.898"/>
 <rect x="560.41" y="288.96" width="68.624" height="77.898"/>
 <rect x="654.14" y="290.43" width="104.88" height="77.898"/>
 <g transform="translate(-64.288 128.16)">
  <path d="m567.36 402.59c-3.6582-0.1971-7.4116 0.42035-10.479 2.1621-6.1338 3.4835-8.557 8.2392-10.566 12.467-2.0094 4.2276-3.4502 8.5671-4.9531 13.146-6.0118 18.318-12.728 39.121-29.766 48.062-22.946 12.042-36.723 5.2052-54.354 0.0156-8.8153-2.5948-19.533-5.5064-30.943-0.6875-11.411 4.8189-19.021 15.852-24.943 31.992h-2e-3c-2.5243 6.8809-4.102 12.466-4.0449 18.635 0.057 6.169 3.6214 14.365 9.7051 17.936 6.0837 3.5701 11.414 3.2917 16.08 2.918 4.666-0.37369 9.146-1.297 13.863-2.2852 18.869-3.9528 40.242-8.538 56.504 1.7461 21.901 13.85 22.868 29.201 27.189 47.064 2.1605 8.9316 4.9984 19.668 14.877 27.141s23.238 8.5463 40.178 5.6055c7.2214-1.2537 12.846-2.6772 18.16-5.8106s10.632-10.319 10.682-17.373c0.0501-7.054-2.8551-11.531-5.5117-15.385-2.6566-3.854-5.6956-7.2719-8.9102-10.863-12.858-14.365-27.518-30.584-26.742-49.809 1.0442-25.891 13.855-34.404 27.164-47.078 6.6547-6.3368 14.534-14.164 16.066-26.455 0.64031-5.137-0.0602-10.244-1.8164-15.41h5.1016l-18.518-22.188c-4.6964-5.6268-8.7445-9.7849-14.115-12.82-2.6854-1.5177-6.248-2.5295-9.9062-2.7266zm1.5859 31.098c0.59355 0.64549 1.0091 0.98523 1.6719 1.7793 8.7872 10.528 9.3598 15.307 9.1582 16.924-0.20159 1.6173-2.1125 4.7239-7.8789 10.215-11.533 10.982-34.088 29.702-35.535 65.572-1.3192 32.707 21.386 55.275 33.613 68.936 1.5671 1.7508 2.3073 2.7801 3.4824 4.1914-0.85586 0.19128-1.3578 0.38167-2.377 0.5586-13.511 2.3457-17.936 0.454-19.236-0.5293-1.2999-0.98329-3.0361-4.1922-4.9082-11.932-3.7442-15.479-8.6776-44.374-39.02-63.562-27.665-17.496-58.56-9.1164-76.504-5.3574-2.3003 0.48187-3.5631 0.60982-5.373 0.92187 0.26222-0.83712 0.3487-1.3683 0.70507-2.3398v-2e-3c4.7239-12.873 8.5749-15.759 10.076-16.393 1.5014-0.63405 5.1466-0.53165 12.785 1.7168 15.277 4.4969 42.767 14.671 74.557-2.0117 28.985-15.211 37.178-46.157 42.895-63.576 0.7327-2.2325 1.254-3.3881 1.8887-5.1113z" color="#000000" style="-inkscape-stroke:none;paint-order:stroke fill markers"/>
  <path d="m581 426.8c39.608 47.456-28.635 40.158-31.126 101.92-2.0947 51.932 74.728 77.574 23.52 86.464-60.902 10.573-20.46-44.878-72.703-77.917-43.927-27.78-104.54 25.93-86.64-22.863 21.294-58.03 49.095 4.72 103.83-24.004 46.022-24.152 29.817-103.5 63.12-63.6z" color="#000000" fill-opacity=".99779" stroke-width="27.044" style="-inkscape-stroke:none;paint-order:stroke fill markers"/>
 </g>
</svg>
