<?xml version="1.0" encoding="UTF-8"?>
<!-- Created with Inkscape (http://www.inkscape.org/) -->
<svg width="1e3" height="1e3" version="1.1" viewBox="0 0 1e3 1e3" xmlns="http://www.w3.org/2000/svg" xmlns:cc="http://creativecommons.org/ns#" xmlns:dc="http://purl.org/dc/elements/1.1/" xmlns:rdf="http://www.w3.org/1999/02/22-rdf-syntax-ns#">
 <metadata>
  <rdf:RDF>
   <cc:Work rdf:about="">
    <dc:format>image/svg+xml</dc:format>
    <dc:type rdf:resource="http://purl.org/dc/dcmitype/StillImage"/>
   </cc:Work>
  </rdf:RDF>
 </metadata>
 <path d="m430.99 55.709-83.264 7.4238-89.861 10.951-112.7 37.746-38.791 57.809-17.859 64.938 8.6914 61.771 33.541 75.088 37.709 51.502 51.787 28.465 28.65 10.947-0.0586 0.11914-152.38 316.57 124.64 103.13 123.29 66.836 125.29 21.078 78.84-2.3438 98.162-18.205 39.936-30.518 15.299-62.553-38.01-137.67 21.098-34.506 16.51 53.324 24.305 23.879 40.1 3.6152 33.885-15.645 124.38-164.51-9.0859-101.77-50.572-33.275-32.039-20.469-0.82227-2.6309 44.232-42.283 47.971-84.871 2.2148-97.072-27.715-75.883-74.432-32.521-47.885 9.4609-59.715-35.709-215.64-12.035zm2.623 60.742 65.311 0.16992 199.08 11.111 66.91 40.012 52.127-10.301 33.188 14.5 14.867 40.707-1.6055 70.379-36.055 63.791-64.988 62.123 18.668 59.748 50.363 32.174 25.727 16.93 4.3945 49.217-101.08 133.69-5.332 2.4609-0.79493-0.0723-51.123-165.12-104.93 171.61 40.809 147.81-6.4512 26.381-11.377 8.6934-79.295 14.707-68.186 2.0254-109.41-18.406-109.19-59.191-83.455-69.055 127.6-265.09 131.08-73.33-150.29-14.836-34.363-13.129-36.322-19.967-25.941-35.43-27.412-61.365-5.7461-40.838 11.904-43.289 21.758-32.422 87.252-29.223 82.777-10.088z" color="#000000" style="-inkscape-stroke:none"/>
 <path d="m300.15 169.91h68.624v77.898h-68.624z"/>
 <path d="m390.14 170.65h68.624v77.898h-68.624z"/>
 <path d="m482.07 172.12h68.624v77.898h-68.624z"/>
 <path d="m577.24 172.85h68.624v77.898h-68.624z"/>
 <path d="m669.17 174.32h68.624v77.898h-68.624z"/>
 <path d="m283.32 286.02h68.624v77.898h-68.624z"/>
 <path d="m373.31 286.76h68.624v77.898h-68.624z"/>
 <path d="m465.24 288.23h68.624v77.898h-68.624z"/>
 <path d="m560.41 288.96h68.624v77.898h-68.624z"/>
 <path d="m654.14 290.43h104.88v77.898h-104.88z"/>
 <path d="m503.07 530.75c-3.6582-0.19711-7.4116 0.42035-10.479 2.1621-6.1338 3.4835-8.559 8.2392-10.568 12.467-2.0094 4.2276-3.4502 8.5671-4.9531 13.146-6.0118 18.318-12.728 39.121-29.766 48.062-22.946 12.042-36.723 5.2032-54.354 0.01367-8.8153-2.5948-19.533-5.5044-30.943-0.68555-11.411 4.8189-19.021 15.852-24.943 31.992-2.5243 6.8809-4.102 12.466-4.0449 18.635 0.057 6.169 3.6214 14.365 9.7051 17.936 6.0837 3.5701 11.412 3.2917 16.078 2.918 4.666-0.37369 9.146-1.2969 13.863-2.2852 18.869-3.9528 40.244-8.538 56.506 1.7461 21.901 13.85 22.868 29.201 27.189 47.064 2.1605 8.9316 4.9984 19.668 14.877 27.141 9.8785 7.4726 23.236 8.5463 40.176 5.6055 7.2214-1.2537 12.848-2.6792 18.162-5.8125 5.3143-3.1333 10.632-10.317 10.682-17.371 0.0501-7.054-2.857-11.531-5.5137-15.385-2.6566-3.854-5.6937-7.2719-8.9082-10.863-12.858-14.365-27.518-30.584-26.742-49.809 1.0443-25.891 13.855-34.404 27.164-47.078 6.6547-6.3368 14.532-14.164 16.064-26.455s-4.2157-24.398-15.232-37.598c-4.6964-5.6267-8.7425-9.7849-14.113-12.82-2.6854-1.5177-6.248-2.5295-9.9062-2.7266z" color="#000000" stroke-linejoin="round" style="-inkscape-stroke:none;paint-order:stroke fill markers"/>
</svg>
