<?xml version="1.0" encoding="UTF-8"?>
<!-- Created with Inkscape (http://www.inkscape.org/) -->
<svg width="1e3" height="1e3" version="1.1" viewBox="0 0 1e3 1e3" xmlns="http://www.w3.org/2000/svg" xmlns:cc="http://creativecommons.org/ns#" xmlns:dc="http://purl.org/dc/elements/1.1/" xmlns:rdf="http://www.w3.org/1999/02/22-rdf-syntax-ns#">
 <metadata>
  <rdf:RDF>
   <cc:Work rdf:about="">
    <dc:format>image/svg+xml</dc:format>
    <dc:type rdf:resource="http://purl.org/dc/dcmitype/StillImage"/>
   </cc:Work>
  </rdf:RDF>
 </metadata>
 <path d="m434.19 53.869c-141.71 0-256.87 115.16-256.87 256.87v407.14c0 141.71 115.16 256.87 256.87 256.87h129.52c141.71 0 256.87-115.16 256.87-256.87v-407.14c0-141.71-115.16-256.87-256.87-256.87zm0 69.346h129.52c104.49 0 187.53 83.037 187.53 187.53v407.14c0 104.49-83.035 187.53-187.53 187.53h-129.52c-104.49 0-187.53-83.035-187.53-187.53v-407.14c0-104.49 83.037-187.53 187.53-187.53z" color="#000000" stroke-linejoin="round" style="-inkscape-stroke:none;paint-order:stroke fill markers"/>
 <path d="m498.42 155.99c-40.737 0-74.074 33.337-74.074 74.074v82.924c0 40.737 33.337 74.074 74.074 74.074s74.074-33.337 74.074-74.074v-82.924c0-40.737-33.337-74.074-74.074-74.074zm0 34.672c22.129 0 39.402 17.274 39.402 39.402v82.924c0 22.129-17.274 39.4-39.402 39.4s-39.402-17.272-39.402-39.4v-82.924c0-22.129 17.274-39.402 39.402-39.402z" color="#000000" stroke-linejoin="round" style="-inkscape-stroke:none;paint-order:stroke fill markers"/>
 <g stroke-linecap="square">
  <path d="m254.02 437.83h488.71" color="#000000" stroke-width="32.367" style="-inkscape-stroke:none"/>
  <path d="m237.84 421.65v32.367h521.08v-32.367h-504.89z" color="#000000" style="-inkscape-stroke:none"/>
 </g>
 <g transform="translate(-14.716 153.8)">
  <path d="m567.36 402.59c-3.6582-0.1971-7.4116 0.42035-10.479 2.1621-6.1338 3.4835-8.557 8.2392-10.566 12.467-2.0094 4.2276-3.4502 8.5671-4.9531 13.146-6.0118 18.318-12.728 39.121-29.766 48.062-22.946 12.042-36.723 5.2052-54.354 0.0156-8.8153-2.5948-19.533-5.5064-30.943-0.6875-11.411 4.8189-19.021 15.852-24.943 31.992h-2e-3c-2.5243 6.8809-4.102 12.466-4.0449 18.635 0.057 6.169 3.6214 14.365 9.7051 17.936 6.0837 3.5701 11.414 3.2917 16.08 2.918 4.666-0.37369 9.146-1.297 13.863-2.2852 18.869-3.9528 40.242-8.538 56.504 1.7461 21.901 13.85 22.868 29.201 27.189 47.064 2.1605 8.9316 4.9984 19.668 14.877 27.141s23.238 8.5463 40.178 5.6055c7.2214-1.2537 12.846-2.6772 18.16-5.8106s10.632-10.319 10.682-17.373c0.0501-7.054-2.8551-11.531-5.5117-15.385-2.6566-3.854-5.6956-7.2719-8.9102-10.863-12.858-14.365-27.518-30.584-26.742-49.809 1.0442-25.891 13.855-34.404 27.164-47.078 6.6547-6.3368 14.534-14.164 16.066-26.455 0.64031-5.137-0.0602-10.244-1.8164-15.41h5.1016l-18.518-22.188c-4.6964-5.6268-8.7445-9.7849-14.115-12.82-2.6854-1.5177-6.248-2.5295-9.9062-2.7266zm1.5859 31.098c0.59355 0.64549 1.0091 0.98523 1.6719 1.7793 8.7872 10.528 9.3598 15.307 9.1582 16.924-0.20159 1.6173-2.1125 4.7239-7.8789 10.215-11.533 10.982-34.088 29.702-35.535 65.572-1.3192 32.707 21.386 55.275 33.613 68.936 1.5671 1.7508 2.3073 2.7801 3.4824 4.1914-0.85586 0.19128-1.3578 0.38167-2.377 0.5586-13.511 2.3457-17.936 0.454-19.236-0.5293-1.2999-0.98329-3.0361-4.1922-4.9082-11.932-3.7442-15.479-8.6776-44.374-39.02-63.562-27.665-17.496-58.56-9.1164-76.504-5.3574-2.3003 0.48187-3.5631 0.60982-5.373 0.92187 0.26222-0.83712 0.3487-1.3683 0.70507-2.3398v-2e-3c4.7239-12.873 8.5749-15.759 10.076-16.393 1.5014-0.63405 5.1466-0.53165 12.785 1.7168 15.277 4.4969 42.767 14.671 74.557-2.0117 28.985-15.211 37.178-46.157 42.895-63.576 0.7327-2.2325 1.254-3.3881 1.8887-5.1113z" color="#000000" style="-inkscape-stroke:none;paint-order:stroke fill markers"/>
  <path d="m581 426.8c39.608 47.456-28.635 40.158-31.126 101.92-2.0947 51.932 74.728 77.574 23.52 86.464-60.902 10.573-20.46-44.878-72.703-77.917-43.927-27.78-104.54 25.93-86.64-22.863 21.294-58.03 49.095 4.72 103.83-24.004 46.022-24.152 29.817-103.5 63.12-63.6z" color="#000000" fill-opacity=".99779" stroke-width="27.044" style="-inkscape-stroke:none;paint-order:stroke fill markers"/>
 </g>
</svg>
