<?xml version="1.0" encoding="UTF-8"?>
<!-- Created with Inkscape (http://www.inkscape.org/) -->
<svg width="1e3" height="1e3" version="1.1" viewBox="0 0 1e3 1e3" xmlns="http://www.w3.org/2000/svg" xmlns:cc="http://creativecommons.org/ns#" xmlns:dc="http://purl.org/dc/elements/1.1/" xmlns:rdf="http://www.w3.org/1999/02/22-rdf-syntax-ns#">
 <metadata>
  <rdf:RDF>
   <cc:Work rdf:about="">
    <dc:format>image/svg+xml</dc:format>
    <dc:type rdf:resource="http://purl.org/dc/dcmitype/StillImage"/>
   </cc:Work>
  </rdf:RDF>
 </metadata>
 <path d="m434.19 53.869c-141.71 0-256.87 115.16-256.87 256.87v407.14c0 141.71 115.16 256.87 256.87 256.87h129.52c141.71 0 256.87-115.16 256.87-256.87v-407.14c0-141.71-115.16-256.87-256.87-256.87zm0 69.346h129.52c104.49 0 187.53 83.037 187.53 187.53v407.14c0 104.49-83.035 187.53-187.53 187.53h-129.52c-104.49 0-187.53-83.035-187.53-187.53v-407.14c0-104.49 83.037-187.53 187.53-187.53z" color="#000000" stroke-linejoin="round" style="-inkscape-stroke:none;paint-order:stroke fill markers"/>
 <path d="m498.42 155.99c-40.737 0-74.074 33.337-74.074 74.074v82.924c0 40.737 33.337 74.074 74.074 74.074s74.074-33.337 74.074-74.074v-82.924c0-40.737-33.337-74.074-74.074-74.074zm0 34.672c22.129 0 39.402 17.274 39.402 39.402v82.924c0 22.129-17.274 39.4-39.402 39.4s-39.402-17.272-39.402-39.4v-82.924c0-22.129 17.274-39.402 39.402-39.402z" color="#000000" stroke-linejoin="round" style="-inkscape-stroke:none;paint-order:stroke fill markers"/>
 <g stroke-linecap="square">
  <path d="m254.02 437.83h488.71" color="#000000" stroke-width="32.367" style="-inkscape-stroke:none"/>
  <path d="m237.84 421.65v32.367h521.08v-32.367h-504.89z" color="#000000" style="-inkscape-stroke:none"/>
 </g>
 <path d="m550.75 585.45c-3.6582-0.19711-7.4116 0.42035-10.479 2.1621-6.1338 3.4835-8.559 8.2392-10.568 12.467-2.0094 4.2276-3.4502 8.5671-4.9531 13.146-6.0118 18.318-12.728 39.121-29.766 48.062-22.946 12.042-36.723 5.2032-54.354 0.0137-8.8153-2.5948-19.533-5.5044-30.943-0.68555-11.411 4.8189-19.021 15.852-24.943 31.992-2.5243 6.8809-4.102 12.466-4.0449 18.635 0.057 6.169 3.6214 14.365 9.7051 17.936 6.0837 3.5701 11.412 3.2917 16.078 2.918 4.666-0.37369 9.146-1.2969 13.863-2.2852 18.869-3.9528 40.244-8.538 56.506 1.7461 21.901 13.85 22.868 29.201 27.189 47.064 2.1605 8.9316 4.9984 19.668 14.877 27.141 9.8785 7.4726 23.236 8.5463 40.176 5.6055 7.2214-1.2537 12.848-2.6792 18.162-5.8125 5.3143-3.1333 10.632-10.317 10.682-17.371 0.0501-7.054-2.857-11.531-5.5137-15.385-2.6566-3.854-5.6937-7.2719-8.9082-10.863-12.858-14.365-27.518-30.584-26.742-49.809 1.0443-25.891 13.855-34.404 27.164-47.078 6.6547-6.3368 14.532-14.164 16.064-26.455s-4.2157-24.398-15.232-37.598c-4.6964-5.6267-8.7425-9.7849-14.113-12.82-2.6854-1.5177-6.248-2.5295-9.9062-2.7266z" color="#000000" stroke-linejoin="round" style="-inkscape-stroke:none;paint-order:stroke fill markers"/>
</svg>
