<?xml version="1.0" encoding="UTF-8"?>
<!-- Created with Inkscape (http://www.inkscape.org/) -->
<svg width="1e3" height="1e3" version="1.1" viewBox="0 0 1e3 1e3" xmlns="http://www.w3.org/2000/svg" xmlns:cc="http://creativecommons.org/ns#" xmlns:dc="http://purl.org/dc/elements/1.1/" xmlns:rdf="http://www.w3.org/1999/02/22-rdf-syntax-ns#">
 <metadata>
  <rdf:RDF>
   <cc:Work rdf:about="">
    <dc:format>image/svg+xml</dc:format>
    <dc:type rdf:resource="http://purl.org/dc/dcmitype/StillImage"/>
   </cc:Work>
  </rdf:RDF>
 </metadata>
 <path d="m150.64 286.51v351.67h170.57v-351.67zm30.361 30.361h109.85v290.95h-109.85z" color="#000000" style="-inkscape-stroke:none"/>
 <path d="m147.03 341.77h0.0719v44.139h-0.0719z" color="#000000" stroke-width="29.244" style="-inkscape-stroke:none"/>
 <path d="m132.41 327.15v73.383h29.316v-73.383z" color="#000000" style="-inkscape-stroke:none"/>
 <path d="m147.3 437.25h0.0719v41.341h-0.0719z" color="#000000" stroke-width="28.302" style="-inkscape-stroke:none"/>
 <path d="m133.15 423.1v69.643h28.375v-69.643z" color="#000000" style="-inkscape-stroke:none"/>
 <path d="m146.28 528.72h0.0719v44.441h-0.0719z" color="#000000" stroke-width="29.343" style="-inkscape-stroke:none"/>
 <path d="m131.61 514.05v73.783h29.414v-73.783z" color="#000000" style="-inkscape-stroke:none"/>
 <path d="m322.94 342.55h0.072v44.139h-0.072z" color="#000000" stroke-width="29.244" style="-inkscape-stroke:none"/>
 <path d="m308.32 327.93v73.383h29.316v-73.383z" color="#000000" style="-inkscape-stroke:none"/>
 <path d="m323.21 437.98h0.072v41.341h-0.072z" color="#000000" stroke-width="28.302" style="-inkscape-stroke:none"/>
 <path d="m309.06 423.83v69.645h28.375v-69.645z" color="#000000" style="-inkscape-stroke:none"/>
 <path d="m322.19 529.51h0.072v44.441h-0.072z" color="#000000" stroke-width="29.343" style="-inkscape-stroke:none"/>
 <path d="m307.52 514.84v73.785h29.416v-73.785z" color="#000000" style="-inkscape-stroke:none"/>
 <path d="m416.47 287.37v351.67h170.57v-351.67zm30.361 30.361h109.85v290.95h-109.85z" color="#000000" style="-inkscape-stroke:none"/>
 <path d="m412.86 342.53h0.0719v44.139h-0.0719z" color="#000000" stroke-width="29.244" style="-inkscape-stroke:none"/>
 <path d="m398.24 327.91v73.383h29.316v-73.383z" color="#000000" style="-inkscape-stroke:none"/>
 <path d="m413.13 437.96h0.072v41.341h-0.072z" color="#000000" stroke-width="28.302" style="-inkscape-stroke:none"/>
 <path d="m398.98 423.81v69.643h28.375v-69.643z" color="#000000" style="-inkscape-stroke:none"/>
 <path d="m412.11 529.49h0.0719v44.441h-0.0719z" color="#000000" stroke-width="29.343" style="-inkscape-stroke:none"/>
 <path d="m397.44 514.82v73.783h29.414v-73.783z" color="#000000" style="-inkscape-stroke:none"/>
 <path d="m588.77 343.31h0.0719v44.139h-0.0719z" color="#000000" stroke-width="29.244" style="-inkscape-stroke:none"/>
 <path d="m574.15 328.69v73.383h29.316v-73.383z" color="#000000" style="-inkscape-stroke:none"/>
 <path d="m589.04 438.7h0.0719v41.341h-0.0719z" color="#000000" stroke-width="28.302" style="-inkscape-stroke:none"/>
 <path d="m574.89 424.55v69.643h28.375v-69.643z" color="#000000" style="-inkscape-stroke:none"/>
 <path d="m588.02 530.27h0.0719v44.441h-0.0719z" color="#000000" stroke-width="29.343" style="-inkscape-stroke:none"/>
 <path d="m573.35 515.6v73.785h29.416v-73.785z" color="#000000" style="-inkscape-stroke:none"/>
 <path d="m685 286.99v351.67h170.57v-351.67zm30.361 30.359h109.85v290.95h-109.85z" color="#000000" style="-inkscape-stroke:none"/>
 <path d="m681.39 342.19h0.072v44.139h-0.072z" color="#000000" stroke-width="29.244" style="-inkscape-stroke:none"/>
 <path d="m666.77 327.57v73.383h29.316v-73.383z" color="#000000" style="-inkscape-stroke:none"/>
 <path d="m681.66 437.64h0.0719v41.341h-0.0719z" color="#000000" stroke-width="28.302" style="-inkscape-stroke:none"/>
 <path d="m667.51 423.49v69.645h28.373v-69.645z" color="#000000" style="-inkscape-stroke:none"/>
 <path d="m680.64 529.14h0.072v44.441h-0.072z" color="#000000" stroke-width="29.343" style="-inkscape-stroke:none"/>
 <path d="m665.97 514.47v73.783h29.414v-73.783z" color="#000000" style="-inkscape-stroke:none"/>
 <path d="m857.3 342.97h0.0719v44.139h-0.0719z" color="#000000" stroke-width="29.244" style="-inkscape-stroke:none"/>
 <path d="m842.68 328.35v73.383h29.316v-73.383z" color="#000000" style="-inkscape-stroke:none"/>
 <path d="m857.57 438.38h0.0719v41.341h-0.0719z" color="#000000" stroke-width="28.302" style="-inkscape-stroke:none"/>
 <path d="m843.42 424.23v69.643h28.373v-69.643z" color="#000000" style="-inkscape-stroke:none"/>
 <path d="m856.55 529.93h0.0719v44.441h-0.0719z" color="#000000" stroke-width="29.343" style="-inkscape-stroke:none"/>
 <path d="m841.88 515.26v73.785h29.414v-73.785z" color="#000000" style="-inkscape-stroke:none"/>
 <rect x="82.133" y="801.75" width="837.51" height="80.002"/>
 <path d="m67.908 133.36a27.253 27.253 0 0 0-27.25 27.25v597.07a27.253 27.253 0 0 0 27.25 27.25h877.28a27.253 27.253 0 0 0 27.25-27.25v-597.07a27.253 27.253 0 0 0-27.25-27.25zm27.25 54.5h822.78v542.57h-822.78z" color="#000000" stroke-linejoin="round" style="-inkscape-stroke:none"/>
</svg>
