<?xml version="1.0" encoding="UTF-8"?>
<!-- Created with Inkscape (http://www.inkscape.org/) -->
<svg width="1e3" height="1e3" version="1.1" viewBox="0 0 1e3 1e3" xmlns="http://www.w3.org/2000/svg" xmlns:cc="http://creativecommons.org/ns#" xmlns:dc="http://purl.org/dc/elements/1.1/" xmlns:rdf="http://www.w3.org/1999/02/22-rdf-syntax-ns#">
 <metadata>
  <rdf:RDF>
   <cc:Work rdf:about="">
    <dc:format>image/svg+xml</dc:format>
    <dc:type rdf:resource="http://purl.org/dc/dcmitype/StillImage"/>
   </cc:Work>
  </rdf:RDF>
 </metadata>
 <path d="m495.69 105.95c-227.34 0-412.28 184.94-412.28 412.28 0 109.33 43.444 214.22 120.75 291.53 77.31 77.31 182.2 120.75 291.53 120.75 109.33 0 214.22-43.444 291.53-120.75 77.31-77.31 120.75-182.2 120.75-291.53 0-109.33-43.444-214.22-120.75-291.53-77.31-77.31-182.2-120.75-291.53-120.75zm0 60.123c93.41 0 182.96 37.094 249.01 103.14 66.051 66.051 103.14 155.6 103.14 249.01s-37.094 182.96-103.14 249.01c-66.051 66.051-155.6 103.14-249.01 103.14-93.41 0-182.96-37.094-249.01-103.14s-103.14-155.6-103.14-249.01c0-194.85 157.31-352.16 352.16-352.16z" color="#000000" style="-inkscape-stroke:none"/>
 <g stroke-width="19.002" aria-label="?">
  <path d="m451.02 704.84h75.339v94.266h-75.339zm73.112-54.556h-70.885v-57.154q0-37.484 10.392-61.607 10.392-24.123 43.793-56.04l33.402-33.03q21.154-19.67 30.432-37.113 9.6493-17.443 9.6493-35.628 0-33.03-24.494-53.442-24.123-20.412-64.205-20.412-29.319 0-62.721 12.989-33.03 12.989-69.03 37.855v-69.772q34.886-21.154 70.514-31.546 35.999-10.392 74.226-10.392 68.288 0 109.48 35.999 41.566 35.999 41.566 95.009 0 28.206-13.361 53.814-13.361 25.237-46.762 57.154l-32.659 31.917q-17.443 17.443-24.866 27.463-7.0514 9.6493-10.02 18.928-2.2268 7.7937-3.3402 18.928t-1.1134 30.432z"/>
 </g>
</svg>
