<?xml version="1.0" encoding="UTF-8"?>
<!-- Created with Inkscape (http://www.inkscape.org/) -->
<svg width="1e3" height="1e3" version="1.1" viewBox="0 0 1e3 1e3" xmlns="http://www.w3.org/2000/svg" xmlns:cc="http://creativecommons.org/ns#" xmlns:dc="http://purl.org/dc/elements/1.1/" xmlns:rdf="http://www.w3.org/1999/02/22-rdf-syntax-ns#">
 <metadata>
  <rdf:RDF>
   <cc:Work rdf:about="">
    <dc:format>image/svg+xml</dc:format>
    <dc:type rdf:resource="http://purl.org/dc/dcmitype/StillImage"/>
   </cc:Work>
  </rdf:RDF>
 </metadata>
 <path d="m45.611 56.345v914.93h909.67v-914.93zm400.11 116.75c96.997 0 174.34 16.852 232.04 50.556 57.696 33.704 86.545 78.74 86.545 135.11 0 26.731-7.3172 52.154-21.95 76.27-14.215 23.825-40.345 52.01-78.392 84.552-10.452 8.426-43.69 32.832-99.714 73.219-56.024 40.096-135.04 96.319-237.06 168.67h442.13v74.091h-594.52v-74.091c48.08-34.576 113.51-80.92 196.29-139.03 83.2-58.401 135.46-96.028 156.78-112.88 40.555-31.67 68.776-58.401 84.663-80.192 16.306-22.082 24.459-43.729 24.459-64.94 0-34.576-17.56-62.759-52.679-84.551-34.701-21.792-80.065-32.687-136.09-32.687-39.719 0-81.735 4.7935-126.05 14.382-43.899 9.5882-90.935 24.116-141.11 43.583v-88.909c51.007-14.237 98.669-24.988 142.99-32.251 44.318-7.2638 84.872-10.896 121.66-10.896z" opacity=".5"/>
</svg>
