<?xml version="1.0" encoding="UTF-8"?>
<!-- Created with Inkscape (http://www.inkscape.org/) -->
<svg width="1e3" height="1e3" version="1.1" viewBox="0 0 1e3 1e3" xmlns="http://www.w3.org/2000/svg" xmlns:cc="http://creativecommons.org/ns#" xmlns:dc="http://purl.org/dc/elements/1.1/" xmlns:rdf="http://www.w3.org/1999/02/22-rdf-syntax-ns#">
 <metadata>
  <rdf:RDF>
   <cc:Work rdf:about="">
    <dc:format>image/svg+xml</dc:format>
    <dc:type rdf:resource="http://purl.org/dc/dcmitype/StillImage"/>
   </cc:Work>
  </rdf:RDF>
 </metadata>
 <path d="m45.15 51.968v917.51h912.23v-917.51zm514.44 117.07c31.864 0 63.938 2.1857 96.222 6.5563 32.703 4.3706 66.663 10.926 101.88 19.668v80.419c-31.864-10.489-64.148-18.502-96.85-24.038-32.284-5.536-64.356-8.3038-96.221-8.3038-83.853 0-148 19.668-192.44 59.003-44.023 39.335-69.179 98.774-75.468 178.32 24.737-25.349 55.763-44.725 93.078-58.128 37.315-13.694 78.402-20.542 123.26-20.542 94.335 0 168.75 19.959 223.26 59.877 54.924 39.626 82.386 93.675 82.386 162.15 0 67.015-28.51 120.77-85.53 161.27-57.02 40.501-132.91 60.751-227.66 60.751-108.59 0-191.6-28.846-249.04-86.537-57.439-57.983-86.159-141.9-86.159-251.74 0-103.15 35.217-185.31 105.65-246.5 70.437-61.479 164.98-92.219 283.63-92.219zm-54.085 302.88c-57.02 0-102.3 13.549-135.84 40.646-33.122 27.098-49.684 64.248-49.684 111.45 0 46.911 16.562 84.06 49.684 111.45 33.541 27.098 78.822 40.646 135.84 40.646 57.02 0 102.09-13.549 135.21-40.646 33.541-27.389 50.311-64.538 50.311-111.45 0-47.202-16.77-84.353-50.311-111.45-33.122-27.098-78.194-40.646-135.21-40.646z" opacity=".5"/>
</svg>
