<?xml version="1.0" encoding="UTF-8"?>
<!-- Created with Inkscape (http://www.inkscape.org/) -->
<svg width="1e3" height="1e3" version="1.1" viewBox="0 0 1e3 1e3" xmlns="http://www.w3.org/2000/svg" xmlns:cc="http://creativecommons.org/ns#" xmlns:dc="http://purl.org/dc/elements/1.1/" xmlns:rdf="http://www.w3.org/1999/02/22-rdf-syntax-ns#">
 <metadata>
  <rdf:RDF>
   <cc:Work rdf:about="">
    <dc:format>image/svg+xml</dc:format>
    <dc:type rdf:resource="http://purl.org/dc/dcmitype/StillImage"/>
   </cc:Work>
  </rdf:RDF>
 </metadata>
 <path d="m45.141 55.056v914.97h909.71v-914.97zm173.72 128.52h497.33v74.093h-381.31v159.52c18.397-4.3584 36.793-7.5542 55.19-9.5882 18.397-2.3245 36.793-3.4867 55.19-3.4867 104.53 0 187.31 19.904 248.35 59.711 61.043 39.807 91.565 93.707 91.565 161.7 0 70.026-31.358 124.51-94.074 163.44-62.716 38.645-151.14 57.968-265.29 57.968-39.302 0-79.441-2.3244-120.41-6.9734-40.556-4.649-82.575-11.622-126.06-20.92v-88.477c37.629 14.238 76.512 24.842 116.65 31.816 40.138 6.9735 82.576 10.46 127.31 10.46 72.332 0 129.61-13.22 171.84-39.661s63.343-62.325 63.343-107.65c0-45.328-21.115-81.213-63.343-107.65-42.229-26.441-99.508-39.661-171.84-39.661-33.866 0-67.733 2.6153-101.6 7.8454-33.448 5.2301-67.733 13.366-102.85 24.407z" opacity=".5"/>
</svg>
