<?xml version="1.0" encoding="UTF-8"?>
<!-- Created with Inkscape (http://www.inkscape.org/) -->
<svg width="1e3" height="1e3" version="1.1" viewBox="0 0 1e3 1e3" xmlns="http://www.w3.org/2000/svg" xmlns:cc="http://creativecommons.org/ns#" xmlns:dc="http://purl.org/dc/elements/1.1/" xmlns:rdf="http://www.w3.org/1999/02/22-rdf-syntax-ns#">
 <metadata>
  <rdf:RDF>
   <cc:Work rdf:about="">
    <dc:format>image/svg+xml</dc:format>
    <dc:type rdf:resource="http://purl.org/dc/dcmitype/StillImage"/>
   </cc:Work>
  </rdf:RDF>
 </metadata>
 <path d="m40.663 52.11v919.95h914.66v-919.95zm417.44 117.39c96.688 0 173.2 15.338 229.53 46.014 56.331 30.383 84.497 71.576 84.497 123.58 0 36.226-14.924 66.901-44.772 92.026-29.847 24.832-72.306 42.07-127.38 51.71 60.955 9.0565 108.46 27.899 142.51 56.529 34.471 28.63 51.706 63.981 51.706 106.05 0 64.564-31.948 114.52-95.847 149.87-63.898 35.35-154.7 53.025-272.41 53.025-39.516 0-80.293-2.7752-122.33-8.326-41.618-5.2586-84.707-13.293-129.27-24.102v-85.453c35.312 14.315 73.987 25.125 116.03 32.428 42.038 7.3037 85.968 10.955 131.79 10.955 79.873 0 140.62-10.955 182.24-32.866 42.038-21.911 63.057-53.754 63.057-95.531 0-38.563-19.547-68.655-58.643-90.274-38.675-21.911-92.694-32.866-162.06-32.866h-109.72v-72.745h114.76c62.637 0 110.56-8.6179 143.77-25.855 33.21-17.529 49.816-42.653 49.816-75.374 0-33.597-17.236-59.306-51.708-77.127-34.051-18.113-83.025-27.169-146.92-27.169-34.892 0-72.306 2.6283-112.24 7.8869-39.936 5.2586-83.866 13.44-131.79 24.541v-78.881c48.344-9.3487 93.535-16.36 135.57-21.034 42.459-4.6743 82.395-7.0114 119.81-7.0114z" opacity=".5"/>
</svg>
