<?xml version="1.0" encoding="UTF-8"?>
<!-- Created with Inkscape (http://www.inkscape.org/) -->
<svg width="1e3" height="1e3" version="1.1" viewBox="0 0 1e3 1e3" xmlns="http://www.w3.org/2000/svg" xmlns:cc="http://creativecommons.org/ns#" xmlns:dc="http://purl.org/dc/elements/1.1/" xmlns:rdf="http://www.w3.org/1999/02/22-rdf-syntax-ns#">
 <metadata>
  <rdf:RDF>
   <cc:Work rdf:about="">
    <dc:format>image/svg+xml</dc:format>
    <dc:type rdf:resource="http://purl.org/dc/dcmitype/StillImage"/>
   </cc:Work>
  </rdf:RDF>
 </metadata>
 <path d="m500.08 53.758c-115.03 1e-6 -225.18 48.938-305.85 135.12-80.675 86.187-125.59 202.43-125.59 323.48 0 121.04 44.912 237.29 125.59 323.48 80.675 86.187 190.83 135.13 305.85 135.13s225.18-48.94 305.85-135.13c80.675-86.187 125.59-202.43 125.59-323.48 0-121.04-44.912-237.29-125.59-323.48-80.675-86.187-190.83-135.12-305.85-135.12zm0 67.783c95.848 0 187.93 40.554 256.37 113.66 68.435 73.11 107.29 172.92 107.29 277.15 0 104.24-38.856 204.04-107.29 277.15-68.435 73.11-160.52 113.66-256.37 113.66-95.848 0-187.93-40.554-256.37-113.66s-107.29-172.92-107.29-277.15c1e-5 -104.24 38.856-204.04 107.29-277.15s160.52-113.66 256.37-113.66z" color="#000000" opacity=".5" style="-inkscape-stroke:none"/>
 <path d="m517.74 247.93c-16.656-0.52537-33.369 0.6872-49.82 3.6621l12.062 66.703c15.606-2.8222 31.701-3.4312 47.541-1.8242h2e-3c14.136 1.4335 28.143 4.6816 41.496 9.6113l4e-3 2e-3h4e-3c7.0719 2.6091 13.985 5.6903 20.67 9.207l31.559-59.99c-9.291-4.8877-18.902-9.1713-28.766-12.811l6e-3 4e-3c-18.711-6.9078-38.264-11.446-58.133-13.461h-2e-3c-5.5274-0.56072-11.072-0.92842-16.623-1.1035zm-123.77 30.191c-1.7268 0.96013-3.4116 1.9274-5.0586 2.8965l-2e-3 2e-3h-2e-3c-20.435 12.027-38.969 26.929-55.137 44.002-18.292 19.306-33.489 41.307-45.182 65.018l60.795 29.98c8.7391-17.721 20.11-34.148 33.598-48.383l8e-3 -8e-3c11.91-12.577 25.531-23.498 40.297-32.189l4e-3 -2e-3c1.2264-0.72158 2.432-1.4142 3.6191-2.0742zm289.8 43.891-48.443 47.414c13.587 13.882 25.124 29.964 34.1 47.369l4e-3 4e-3 2e-3 6e-3c8.7421 16.94 15.1 35.218 18.838 54l66.48-13.233c-4.9625-24.933-13.378-49.169-25.078-71.844-12.015-23.299-27.448-44.861-45.902-63.717zm-419.16 141.29c-1.3216 7.432-2.3331 14.901-3.0449 22.383l-2e-3 4e-3v6e-3c-1.8453 19.463-1.6778 39.101 0.51563 58.545 2.7266 24.174 8.6198 47.993 17.629 70.699l63.006-24.998c-6.7486-17.009-11.218-35.021-13.279-53.299v-2e-3c-1.6658-14.766-1.7928-29.737-0.38868-44.547 0.54121-5.6848 1.3068-11.334 2.3008-16.924zm495.53 49.182-67.785 0.0137c4e-3 17.586-2.1493 35.163-6.4434 52.102l-2e-3 8e-3v6e-3c-4.688 18.522-11.968 36.405-21.562 52.818-1.1249 1.9242-2.2679 3.806-3.4277 5.6445l57.33 36.166c1.5967-2.5309 3.1328-5.0658 4.6152-7.6016v-2e-3h2e-3c12.867-22.012 22.517-45.762 28.75-70.383 5.7087-22.519 8.5282-45.657 8.5234-68.771zm-388.65 127.56-53.264 41.926c4.2721 5.4272 8.7582 10.678 13.439 15.74 15.965 17.265 34.317 32.39 54.6 44.672 18.622 11.284 38.77 20.098 59.879 26.002l18.26-65.277c-15.02-4.2013-29.562-10.544-43.018-18.699l-0.012-8e-3c-14.672-8.8844-28.17-19.981-39.941-32.711h-2e-3c-3.4697-3.752-6.7879-7.6383-9.9414-11.645zm251.98 26.635c-12.465 10.723-26.349 19.759-41.09 26.645l-6e-3 4e-3 -6e-3 2e-3c-13.169 6.1587-27.132 10.645-41.359 13.258l-4e-3 2e-3h-0.00353c-6.8167 1.2534-13.713 2.0887-20.627 2.4961l3.9883 67.666c9.6939-0.57124 19.345-1.7392 28.891-3.4941l8e-3 -2e-3c20.008-3.6752 39.45-9.933 57.809-18.518l0.0137-6e-3c20.527-9.5908 39.554-22.009 56.592-36.666z" color="#000000" stroke-dasharray="135.569, 67.7843" style="-inkscape-stroke:none"/>
</svg>
