<?xml version="1.0" encoding="UTF-8"?>
<!-- Created with Inkscape (http://www.inkscape.org/) -->
<svg width="1e3" height="1e3" version="1.1" viewBox="0 0 1e3 1e3" xmlns="http://www.w3.org/2000/svg" xmlns:cc="http://creativecommons.org/ns#" xmlns:dc="http://purl.org/dc/elements/1.1/" xmlns:rdf="http://www.w3.org/1999/02/22-rdf-syntax-ns#">
 <metadata>
  <rdf:RDF>
   <cc:Work rdf:about="">
    <dc:format>image/svg+xml</dc:format>
    <dc:type rdf:resource="http://purl.org/dc/dcmitype/StillImage"/>
   </cc:Work>
  </rdf:RDF>
 </metadata>
 <g>
  <path d="m430.49 55.01c-140.76 0-255.15 114.4-255.15 255.15v404.4c0 140.76 114.4 255.15 255.15 255.15h128.65c140.76 0 255.15-114.39 255.15-255.15v-404.4c0-140.76-114.39-255.15-255.15-255.15zm0 68.879h128.65c103.79 0 186.27 82.481 186.27 186.27v404.4c0 103.79-82.479 186.27-186.27 186.27h-128.65c-103.79 0-186.27-82.479-186.27-186.27v-404.4c0-103.79 82.481-186.27 186.27-186.27z" color="#000000" opacity=".4" stroke-linejoin="round" style="-inkscape-stroke:none;paint-order:stroke fill markers"/>
  <path d="m494.28 156.45c-40.463 0-73.576 33.113-73.576 73.576v82.367c0 40.463 33.113 73.576 73.576 73.576s73.576-33.113 73.576-73.576v-82.367c0-40.463-33.113-73.576-73.576-73.576zm0 34.441c21.979 0 39.137 17.156 39.137 39.135v82.367c0 21.979-17.158 39.137-39.137 39.137-21.979 0-39.135-17.158-39.135-39.137v-82.367c0-21.979 17.156-39.135 39.135-39.135z" color="#000000" opacity=".4" stroke-linejoin="round" style="-inkscape-stroke:none;paint-order:stroke fill markers"/>
  <path d="m244.53 421.7v31.619h501.17v-31.619h-485.36z" color="#000000" opacity=".4" stroke-linecap="square" style="-inkscape-stroke:none"/>
  <path d="m498.41 495.79c-25.151 0-44.672 21.961-44.672 47.375 0 25.414 19.521 47.373 44.672 47.373 25.151 0 44.672-21.959 44.672-47.373 0-25.414-19.521-47.375-44.672-47.375zm0 27.232c9.1529 0 17.439 8.2682 17.439 20.143s-8.2866 20.143-17.439 20.143c-9.1529 0-17.439-8.2682-17.439-20.143s8.2866-20.143 17.439-20.143z" color="#000000" style="-inkscape-stroke:none"/>
  <path d="m435.51 568.79c-25.151 0-44.672 21.961-44.672 47.375 0 25.414 19.521 47.373 44.672 47.373 25.151 0 44.672-21.959 44.672-47.373 0-25.414-19.521-47.375-44.672-47.375zm0 27.232c9.1529 0 17.439 8.2682 17.439 20.143s-8.2866 20.143-17.439 20.143c-9.1529 0-17.439-8.2682-17.439-20.143s8.2866-20.143 17.439-20.143z" color="#000000" style="-inkscape-stroke:none"/>
  <path d="m562.52 568.04c-25.151 0-44.672 21.961-44.672 47.375 0 25.414 19.521 47.373 44.672 47.373 25.151 0 44.672-21.959 44.672-47.373 0-25.414-19.521-47.375-44.672-47.375zm0 27.232c9.1529 0 17.441 8.2682 17.441 20.143s-8.2885 20.143-17.441 20.143-17.439-8.2682-17.439-20.143 8.2866-20.143 17.439-20.143z" color="#000000" style="-inkscape-stroke:none"/>
  <path d="m436.31 668.05c-25.151 0-44.672 21.959-44.672 47.373s19.521 47.375 44.672 47.375c25.151 0 44.672-21.961 44.672-47.375s-19.521-47.373-44.672-47.373zm0 27.23c9.1529 0 17.439 8.2682 17.439 20.143s-8.2866 20.143-17.439 20.143c-9.1529 0-17.441-8.2682-17.441-20.143s8.2885-20.143 17.441-20.143z" color="#000000" style="-inkscape-stroke:none"/>
  <path d="m563.32 667.3c-25.151 0-44.672 21.959-44.672 47.373s19.521 47.375 44.672 47.375c25.151 0 44.672-21.961 44.672-47.375s-19.521-47.373-44.672-47.373zm0 27.23c9.1529 0 17.439 8.2682 17.439 20.143s-8.2866 20.143-17.439 20.143-17.439-8.2682-17.439-20.143 8.2866-20.143 17.439-20.143z" color="#000000" style="-inkscape-stroke:none"/>
  <path d="m499.87 742.74c-25.151 0-44.672 21.959-44.672 47.373 0 25.414 19.521 47.375 44.672 47.375s44.674-21.961 44.674-47.375c0-25.414-19.523-47.373-44.674-47.373zm0 27.232c9.1529 0 17.441 8.2662 17.441 20.141 0 11.874-8.2885 20.143-17.441 20.143s-17.439-8.2682-17.439-20.143c0-11.874 8.2866-20.141 17.439-20.141z" color="#000000" style="-inkscape-stroke:none"/>
 </g>
</svg>
