<?xml version="1.0" encoding="UTF-8"?>
<!-- Created with Inkscape (http://www.inkscape.org/) -->
<svg width="1e3" height="1e3" version="1.1" viewBox="0 0 1e3 1e3" xmlns="http://www.w3.org/2000/svg" xmlns:cc="http://creativecommons.org/ns#" xmlns:dc="http://purl.org/dc/elements/1.1/" xmlns:rdf="http://www.w3.org/1999/02/22-rdf-syntax-ns#">
 <metadata>
  <rdf:RDF>
   <cc:Work rdf:about="">
    <dc:format>image/svg+xml</dc:format>
    <dc:type rdf:resource="http://purl.org/dc/dcmitype/StillImage"/>
   </cc:Work>
  </rdf:RDF>
 </metadata>
 <path d="m496 61.414c-117.83 0-230.82 47.872-313.95 132.8-83.128 84.929-129.71 199.94-129.71 319.79s46.577 234.86 129.71 319.79c83.128 84.929 196.12 132.8 313.95 132.8s230.82-47.872 313.95-132.8c83.128-84.929 129.71-199.94 129.71-319.79s-46.577-234.86-129.71-319.79c-83.128-84.929-196.12-132.8-313.95-132.8zm0 63.111c100.76 0 197.41 40.846 268.85 113.83 71.44 72.988 111.7 172.16 111.7 275.64s-40.258 202.65-111.7 275.64c-71.44 72.988-168.09 113.83-268.85 113.83s-197.41-40.846-268.85-113.83c-71.44-72.988-111.7-172.16-111.7-275.64s40.258-202.65 111.7-275.64c71.44-72.988 168.09-113.83 268.85-113.83z" color="#000000" style="-inkscape-stroke:none"/>
 <g transform="matrix(1.0713,0,0,1.0629,270.04,280.01)" stroke="#000">
  <g stroke="#000">
   <g>
    <path d="m360.66 258.05v-233.05c0-13.807-11.191-25-25-25h-205.56c-13.807 0-25 11.193-25 25v206.27c-10.569-3.184-22.145-4.271-34.058-2.768-41.505 5.236-71.325 39.798-66.605 77.193 4.719 37.396 42.189 63.464 83.694 58.226 40.015-5.049 66.969-37.146 66.969-73.181v-240.74h155.56v146.79c-10.591-3.2-22.19-4.297-34.134-2.79-41.504 5.237-71.323 39.798-66.604 77.193s42.188 63.464 83.694 58.227c39.341-4.966 67.045-36.149 67.045-71.374z" color="#000000" style="-inkscape-stroke:none"/>
    <path d="m130.1-0.5c-14.077 0-25.5 11.423-25.5 25.5v205.63c-10.464-3.0588-21.875-4.1089-33.621-2.627-41.747 5.2665-71.795 40.059-67.037 77.752 4.7565 37.694 42.505 63.929 84.252 58.66 40.248-5.0784 67.406-37.393 67.406-73.678v-240.24h154.56v145.65c-10.486-3.0746-21.92-4.1344-33.697-2.6484-41.746 5.2675-71.794 40.059-67.037 77.752 4.7565 37.692 42.504 63.928 84.252 58.66 39.569-4.9947 67.48-36.38 67.482-71.865v-4e-3 -233.05c0-14.077-11.421-25.5-25.5-25.5zm0 1h205.56c13.539 0 24.5 10.963 24.5 24.5v233.05c-2e-3 34.961-27.497 65.936-66.607 70.873-41.264 5.2065-78.453-20.696-83.135-57.793-4.6814-37.097 24.908-71.428 66.17-76.635 11.874-1.4982 23.403-0.40647 33.928 2.7734l0.64454 0.19336v-147.96h-156.56v241.24c0 35.786-26.75 67.666-66.531 72.686-41.263 5.2075-78.453-20.695-83.135-57.793-4.6824-37.097 24.908-71.429 66.172-76.635 11.843-1.4942 23.347-0.41398 33.85 2.75l0.64453 0.19531v-206.94c0-13.537 10.963-24.5 24.5-24.5z" color="#000000" style="-inkscape-stroke:none"/>
   </g>
  </g>
 </g>
 <g transform="matrix(1.0713,0,0,1.0629,309.28,339.58)" opacity=".6" stroke="#1a1a1a">
  <path d="m360.66 258.05v-233.05c0-13.807-11.191-25-25-25h-205.56c-13.807 0-25 11.193-25 25v206.27c-10.569-3.184-22.145-4.271-34.058-2.768-41.505 5.236-71.325 39.798-66.605 77.193 4.719 37.396 42.189 63.464 83.694 58.226 40.015-5.049 66.969-37.146 66.969-73.181v-240.74h155.56v146.79c-10.591-3.2-22.19-4.297-34.134-2.79-41.504 5.237-71.323 39.798-66.604 77.193s42.188 63.464 83.694 58.227c39.341-4.966 67.045-36.149 67.045-71.374z" color="#000000" style="-inkscape-stroke:none"/>
  <path d="m130.1-0.5c-14.077 0-25.5 11.423-25.5 25.5v205.63c-10.464-3.0588-21.875-4.1089-33.621-2.627-41.747 5.2665-71.795 40.059-67.037 77.752 4.7565 37.694 42.505 63.929 84.252 58.66 40.248-5.0784 67.406-37.393 67.406-73.678v-240.24h154.56v145.65c-10.486-3.0746-21.92-4.1344-33.697-2.6484-41.746 5.2675-71.794 40.059-67.037 77.752 4.7565 37.692 42.504 63.928 84.252 58.66 39.569-4.9947 67.48-36.38 67.482-71.865v-4e-3 -233.05c0-14.077-11.421-25.5-25.5-25.5zm0 1h205.56c13.539 0 24.5 10.963 24.5 24.5v233.05c-2e-3 34.961-27.497 65.936-66.607 70.873-41.264 5.2065-78.453-20.696-83.135-57.793-4.6814-37.097 24.908-71.428 66.17-76.635 11.874-1.4982 23.403-0.40647 33.928 2.7734l0.64454 0.19336v-147.96h-156.56v241.24c0 35.786-26.75 67.666-66.531 72.686-41.263 5.2075-78.453-20.695-83.135-57.793-4.6824-37.097 24.908-71.429 66.172-76.635 11.843-1.4942 23.347-0.41398 33.85 2.75l0.64453 0.19531v-206.94c0-13.537 10.963-24.5 24.5-24.5z" color="#000000" fill="#1a1a1a" style="-inkscape-stroke:none"/>
  <g fill="#1a1a1a">
   <path d="m130.1-0.5c-14.077 0-25.5 11.423-25.5 25.5v205.63c-10.464-3.0588-21.875-4.1089-33.621-2.627-41.747 5.2665-71.795 40.059-67.037 77.752 4.7565 37.694 42.505 63.929 84.252 58.66 40.248-5.0784 67.406-37.393 67.406-73.678v-240.24h154.56v145.65c-10.486-3.0746-21.92-4.1344-33.697-2.6484-41.746 5.2675-71.794 40.059-67.037 77.752 4.7565 37.692 42.504 63.928 84.252 58.66 39.569-4.9947 67.48-36.38 67.482-71.865v-4e-3 -233.05c0-14.077-11.421-25.5-25.5-25.5zm0 1h205.56c13.539 0 24.5 10.963 24.5 24.5v233.05c-2e-3 34.961-27.497 65.936-66.607 70.873-41.264 5.2065-78.453-20.696-83.135-57.793-4.6814-37.097 24.908-71.428 66.17-76.635 11.874-1.4982 23.403-0.40647 33.928 2.7734l0.64454 0.19336v-147.96h-156.56v241.24c0 35.786-26.75 67.666-66.531 72.686-41.263 5.2075-78.453-20.695-83.135-57.793-4.6824-37.097 24.908-71.429 66.172-76.635 11.843-1.4942 23.347-0.41398 33.85 2.75l0.64453 0.19531v-206.94c0-13.537 10.963-24.5 24.5-24.5z" color="#000000" style="-inkscape-stroke:none"/>
   <path d="m130.1-1c-14.348 0-26 11.652-26 26v205c-10.356-2.9376-21.603-3.9512-33.184-2.4902-41.988 5.297-72.266 40.321-67.471 78.311 4.7941 37.991 42.822 64.393 84.811 59.094 40.482-5.1079 67.844-37.64 67.844-74.174v-239.74h153.56v144.52c-10.378-2.9532-21.648-3.9768-33.26-2.5117-41.987 5.298-72.265 40.321-67.471 78.311 4.7941 37.99 42.821 64.392 84.811 59.094 39.798-5.0237 67.918-36.614 67.92-72.361v-233.05c0-14.348-11.65-26-26-26zm0 2h205.56c13.269 0 24 10.733 24 24v233.05c-2e-3 34.699-27.288 65.469-66.17 70.377-41.023 5.1761-77.932-20.56-82.576-57.359-4.6439-36.8 24.715-70.9 65.736-76.076 11.804-1.4894 23.263-0.40397 33.721 2.7559l1.2891 0.38672v-149.13h-157.56v241.74c0 35.536-26.546 67.199-66.094 72.189-41.022 5.177-77.932-20.559-82.576-57.359-4.6449-36.8 24.716-70.901 65.738-76.076 11.774-1.4854 23.207-0.41153 33.643 2.7324l1.2891 0.39063v-207.62c0-13.267 10.733-24 24-24zm155.13 192.36c0.0165-3.5e-4 0.0324 2e-3 0.0488 2e-3 -2.8916 0.0625-5.8126 0.26927-8.7559 0.64063 2.9269-0.3693 5.8324-0.58137 8.707-0.64258zm7.1973 0.21875c0.44625 0.0295 0.90534 8e-3 1.3496 0.0449-0.44436-0.0361-0.90328-0.016-1.3496-0.0449zm-44.484 9.4356c-4.2791 2.2804-8.2858 4.9154-11.977 7.8535 3.6908-2.9381 7.6974-5.5731 11.977-7.8535zm-168.22 24.85c0.01713-3.7e-4 0.03365 2e-3 0.05078 2e-3 -2.8845 0.0633-5.7988 0.26831-8.7344 0.63867 2.9185-0.36814 5.8164-0.57885 8.6836-0.64062zm7.0859 0.21094c0.47741 0.0308 0.9682 8e-3 1.4434 0.0469-0.47531-0.0383-0.96579-0.0167-1.4434-0.0469zm-61.623 21.924c3.52e-4 -3.3e-4 0.0016 3.4e-4 2e-3 0-3.3633 3.2282-6.3883 6.7322-9.0293 10.463 2.6409-3.7307 5.6642-7.2347 9.0273-10.463zm-15.756 22.279c-1.8295 4.1297-3.2296 8.4342-4.1582 12.859 0.92858-4.4252 2.3288-8.7297 4.1582-12.859zm78.697 91.646c-5.1881 0.65475-10.312 0.81972-15.318 0.53516 5.0059 0.28456 10.13 0.11959 15.318-0.53516z" color="#000000" style="-inkscape-stroke:none"/>
  </g>
 </g>
</svg>
