<?xml version="1.0" encoding="UTF-8"?>
<!-- Created with Inkscape (http://www.inkscape.org/) -->
<svg width="1e3" height="1e3" version="1.1" viewBox="0 0 1e3 1e3" xmlns="http://www.w3.org/2000/svg" xmlns:cc="http://creativecommons.org/ns#" xmlns:dc="http://purl.org/dc/elements/1.1/" xmlns:rdf="http://www.w3.org/1999/02/22-rdf-syntax-ns#">
 <metadata>
  <rdf:RDF>
   <cc:Work rdf:about="">
    <dc:format>image/svg+xml</dc:format>
    <dc:type rdf:resource="http://purl.org/dc/dcmitype/StillImage"/>
   </cc:Work>
  </rdf:RDF>
 </metadata>
 <path d="m495.18 53.395c-118.95 0-233.02 48.326-316.94 134.06-83.919 85.738-130.94 201.85-130.94 322.83s47.021 237.09 130.94 322.83c83.919 85.738 197.98 134.06 316.94 134.06s233.02-48.326 316.94-134.06c83.919-85.738 130.94-201.85 130.94-322.83s-47.021-237.09-130.94-322.83c-83.919-85.738-197.98-134.06-316.94-134.06zm0 63.711c101.72 0 199.29 41.235 271.4 114.92 72.119 73.683 112.76 173.8 112.76 278.27s-40.641 204.58-112.76 278.27c-72.119 73.683-169.69 114.92-271.4 114.92-101.72 0-199.29-41.235-271.4-114.92s-112.76-173.8-112.76-278.27c0-104.47 40.641-204.58 112.76-278.27s169.69-114.92 271.4-114.92z" color="#000000" style="-inkscape-stroke:none"/>
 <g>
  <path d="m784 522.98a104.95 103.75 0 0 1-104.95 103.75 104.95 103.75 0 0 1-104.95-103.75 104.95 103.75 0 0 1 104.95-103.75 104.95 103.75 0 0 1 104.95 103.75z" color="#000000" stroke-width="5.973" style="-inkscape-stroke:none"/>
  <path d="m679.05 416.24c-59.558 0-107.94 47.804-107.94 106.74s48.38 106.74 107.94 106.74 107.94-47.804 107.94-106.74-48.378-106.74-107.94-106.74zm0 5.9727c56.367 0 101.96 45.097 101.96 100.76 0 55.667-45.596 100.76-101.96 100.76s-101.96-45.097-101.96-100.76c0-55.667 45.598-100.76 101.96-100.76z" color="#000000" style="-inkscape-stroke:none"/>
 </g>
 <path d="m312.38 400.88c-66.472 0-120.88 53.671-120.88 119.68s54.407 119.68 120.88 119.68 120.88-53.671 120.88-119.68-54.405-119.68-120.88-119.68zm0 31.855c49.453 0 89.021 39.23 89.021 87.822s-39.569 87.822-89.021 87.822-89.023-39.23-89.023-87.822 39.571-87.822 89.023-87.822z" color="#000000" style="-inkscape-stroke:none"/>
</svg>
