<?xml version="1.0" encoding="UTF-8"?>
<!-- Created with Inkscape (http://www.inkscape.org/) -->
<svg width="1e3" height="1e3" version="1.1" viewBox="0 0 1e3 1e3" xmlns="http://www.w3.org/2000/svg" xmlns:cc="http://creativecommons.org/ns#" xmlns:dc="http://purl.org/dc/elements/1.1/" xmlns:rdf="http://www.w3.org/1999/02/22-rdf-syntax-ns#">
 <metadata>
  <rdf:RDF>
   <cc:Work rdf:about="">
    <dc:format>image/svg+xml</dc:format>
    <dc:type rdf:resource="http://purl.org/dc/dcmitype/StillImage"/>
   </cc:Work>
  </rdf:RDF>
 </metadata>
 <g>
  <path d="m497.86 53.098c-119.8 0-234.68 48.672-319.2 135.02-84.518 86.351-131.87 203.29-131.87 325.14 0 121.85 47.355 238.79 131.87 325.14 84.518 86.351 199.4 135.02 319.2 135.02 119.8 0 234.68-48.672 319.2-135.02 84.518-86.351 131.88-203.29 131.88-325.14 0-121.85-47.357-238.79-131.88-325.14-84.518-86.351-199.4-135.02-319.2-135.02zm0 64.166c102.44 0 200.71 41.53 273.34 115.74 72.634 74.21 113.56 175.04 113.56 280.26 0 105.22-40.93 206.05-113.56 280.26-72.634 74.21-170.9 115.74-273.34 115.74-102.44 0-200.71-41.53-273.34-115.74s-113.56-175.04-113.56-280.26c0-105.22 40.93-206.05 113.56-280.26 72.634-74.21 170.9-115.74 273.34-115.74z" color="#000000" style="-inkscape-stroke:none"/>
  <path d="m549.66 191.09-21.455 60.473c73.15 25.954 112.11 54.314 130.24 77.604 18.133 23.29 18.922 41.023 14.111 60.51-9.6217 38.974-53.623 76.959-53.623 76.959l18.469 23.566-18.58-23.473c-64.34 50.928-99.279 97.323-112.29 142.46-13.014 45.134-0.48119 86.975 20.645 116.22 42.251 58.496 113.6 80.799 113.6 80.799l21.188-60.566s-57.461-22.758-82.773-57.803c-12.656-17.522-18.592-34.572-11.008-60.875 7.5843-26.303 32.312-63.892 90.465-109.92l-0.00196-0.0039c0.75266-0.54773 59.249-43.293 76.207-111.98 8.5337-34.567 3.5227-77.678-25.775-115.31-29.298-37.63-79.398-70.264-159.42-98.656z" color="#000000" style="-inkscape-stroke:none"/>
  <path d="m411.92 246.9-21.457 60.473c61.303 21.751 93.378 45.393 107.84 63.971s14.804 31.606 11.025 46.912c-7.5576 30.612-43.572 62.338-43.572 62.338l18.561 23.684-18.672-23.59c-54.867 43.429-85.192 83.326-96.613 122.94-11.421 39.609-0.31555 76.895 18.197 102.53 37.026 51.261 98.412 70.08 98.412 70.08l21.188-60.566s-47.497-19.274-67.584-47.084c-10.043-13.905-14.55-26.4-8.5586-47.178 5.9912-20.777 26.102-51.869 74.781-90.4l-0.00195-0.00195c0.74202-0.53353 51.265-37.037 66.158-97.363 7.5018-30.386 2.9381-68.792-22.691-101.71-25.629-32.919-68.839-60.835-137.01-85.023z" color="#000000" style="-inkscape-stroke:none"/>
  <path d="m287.37 317.81-22.125 60.23c46.323 17.017 69.649 35.219 79.67 48.545s10.009 21.623 7.4141 32.508c-5.1907 21.77-31.293 46.213-31.293 46.213l19.174 23.631-19.287-23.535c-42.93 35.183-67.289 67.998-76.543 101.23-9.2543 33.23-0.18809 65.003 14.895 86.623 30.165 43.239 79.281 58.502 79.281 58.502l21.852-60.33s-34.708-15.101-48.51-34.885c-6.9011-9.8921-9.8548-17.795-5.7051-32.695 4.1497-14.901 18.621-38.671 55.402-68.814l-0.00196-0.00196c0.73139-0.5388 41.084-30.448 53.15-81.055 6.0883-25.534 2.3-58.234-18.545-85.953-20.845-27.72-55.475-50.612-108.83-70.211z" color="#000000" style="-inkscape-stroke:none"/>
 </g>
</svg>
