<?xml version="1.0" encoding="UTF-8"?>
<!-- Created with Inkscape (http://www.inkscape.org/) -->
<svg width="1e3" height="1e3" version="1.1" viewBox="0 0 1e3 1e3" xmlns="http://www.w3.org/2000/svg" xmlns:cc="http://creativecommons.org/ns#" xmlns:dc="http://purl.org/dc/elements/1.1/" xmlns:rdf="http://www.w3.org/1999/02/22-rdf-syntax-ns#">
 <metadata>
  <rdf:RDF>
   <cc:Work rdf:about="">
    <dc:format>image/svg+xml</dc:format>
    <dc:type rdf:resource="http://purl.org/dc/dcmitype/StillImage"/>
   </cc:Work>
  </rdf:RDF>
 </metadata>
 <path d="m496.69 52.59c-119.38 0-233.85 48.5-318.06 134.54-84.217 86.045-131.4 202.57-131.4 323.98s47.187 237.94 131.4 323.99c84.217 86.045 198.69 134.54 318.06 134.54s233.85-48.5 318.06-134.54c84.217-86.045 131.41-202.57 131.41-323.99s-47.189-237.94-131.41-323.98c-84.217-86.045-198.69-134.54-318.06-134.54zm0 63.939c102.08 0 200 41.384 272.37 115.33 72.376 73.946 113.16 174.42 113.16 279.26s-40.785 205.32-113.16 279.26c-72.376 73.946-170.29 115.33-272.37 115.33s-199.99-41.384-272.37-115.33c-72.376-73.946-113.16-174.42-113.16-279.26s40.785-205.31 113.16-279.26c72.376-73.946 170.29-115.33 272.37-115.33z" color="#000000" style="-inkscape-stroke:none"/>
 <g>
  <path d="m246.95 295.12h85.9v72.457h-85.9z" color="#000000" stroke-width="60.415" style="-inkscape-stroke:none"/>
  <path d="m216.74 264.91v132.87h146.31v-132.87zm60.416 60.416h25.484v12.041h-25.484z" color="#000000" style="-inkscape-stroke:none"/>
 </g>
 <g>
  <path d="m455.29 295.81h85.9v72.457h-85.9z" color="#000000" stroke-width="60.415" style="-inkscape-stroke:none"/>
  <path d="m425.08 265.6v132.87h146.32v-132.87zm60.416 60.416h25.484v12.041h-25.484z" color="#000000" style="-inkscape-stroke:none"/>
 </g>
 <g opacity=".8">
  <path d="m664.48 297.23h85.9v72.457h-85.9z" color="#000000" stroke-width="60.415" style="-inkscape-stroke:none"/>
  <path d="m634.27 267.02v132.87h146.31v-132.87zm60.414 60.414h25.484v12.043h-25.484z" color="#000000" style="-inkscape-stroke:none"/>
 </g>
 <g>
  <path d="m248.65 485.42h85.9v72.457h-85.9z" color="#000000" stroke-width="60.415" style="-inkscape-stroke:none"/>
  <path d="m218.44 455.21v132.87h146.31v-132.87zm60.414 60.414h25.484v12.043h-25.484z" color="#000000" style="-inkscape-stroke:none"/>
 </g>
 <g opacity=".8">
  <path d="m456.99 486.1h85.9v72.457h-85.9z" color="#000000" stroke-width="60.415" style="-inkscape-stroke:none"/>
  <path d="m426.78 455.89v132.87h146.31v-132.87zm60.414 60.414h25.484v12.043h-25.484z" color="#000000" style="-inkscape-stroke:none"/>
 </g>
 <g opacity=".6">
  <path d="m666.18 487.52h85.9v72.457h-85.9z" color="#000000" stroke-width="60.415" style="-inkscape-stroke:none"/>
  <path d="m635.97 457.31v132.87h146.31v-132.87zm60.414 60.414h25.486v12.043h-25.486z" color="#000000" style="-inkscape-stroke:none"/>
 </g>
 <g opacity=".8">
  <path d="m248.82 670.78h85.9v72.457h-85.9z" color="#000000" stroke-width="60.415" style="-inkscape-stroke:none"/>
  <path d="m218.61 640.57v132.87h146.31v-132.87zm60.414 60.416h25.484v12.041h-25.484z" color="#000000" style="-inkscape-stroke:none"/>
 </g>
 <g opacity=".6">
  <path d="m457.16 671.46h85.9v72.457h-85.9z" color="#000000" stroke-width="60.415" style="-inkscape-stroke:none"/>
  <path d="m426.95 641.25v132.87h146.31v-132.87zm60.414 60.416h25.484v12.041h-25.484z" color="#000000" style="-inkscape-stroke:none"/>
 </g>
 <g opacity=".4">
  <path d="m666.35 672.88h85.9v72.457h-85.9z" color="#000000" stroke-width="60.415" style="-inkscape-stroke:none"/>
  <path d="m636.14 642.67v132.87h146.31v-132.87zm60.414 60.416h25.486v12.041h-25.486z" color="#000000" style="-inkscape-stroke:none"/>
 </g>
</svg>
