<?xml version="1.0" encoding="UTF-8"?>
<!-- Created with Inkscape (http://www.inkscape.org/) -->
<svg width="1e3" height="1e3" version="1.1" viewBox="0 0 1e3 1e3" xmlns="http://www.w3.org/2000/svg" xmlns:cc="http://creativecommons.org/ns#" xmlns:dc="http://purl.org/dc/elements/1.1/" xmlns:rdf="http://www.w3.org/1999/02/22-rdf-syntax-ns#">
 <metadata>
  <rdf:RDF>
   <cc:Work rdf:about="">
    <dc:format>image/svg+xml</dc:format>
    <dc:type rdf:resource="http://purl.org/dc/dcmitype/StillImage"/>
   </cc:Work>
  </rdf:RDF>
 </metadata>
 <path d="m500.49 56.703c-118.95 0-233.02 48.328-316.94 134.07-83.919 85.738-130.94 201.85-130.94 322.83s47.021 237.09 130.94 322.83c83.919 85.738 197.98 134.06 316.94 134.06 118.95 0 233.02-48.326 316.94-134.06s130.94-201.85 130.94-322.83-47.021-237.09-130.94-322.83-197.98-134.07-316.94-134.07zm0 63.713c101.72 0 199.29 41.235 271.4 114.92 72.119 73.683 112.76 173.8 112.76 278.27s-40.641 204.58-112.76 278.27c-72.119 73.683-169.69 114.92-271.4 114.92-101.72 0-199.29-41.235-271.4-114.92-72.119-73.683-112.76-173.8-112.76-278.27s40.641-204.58 112.76-278.27c72.119-73.683 169.69-114.92 271.4-114.92z" color="#000000" style="-inkscape-stroke:none"/>
 <path d="m500.49 56.203c-119.09 0-233.28 48.384-317.29 134.22-84.011 85.833-131.08 202.07-131.08 323.18s47.071 237.35 131.08 323.18c84.011 85.833 198.2 134.21 317.29 134.21s233.28-48.382 317.29-134.21c84.011-85.833 131.08-202.07 131.08-323.18s-47.071-237.35-131.08-323.18c-84.011-85.833-198.2-134.22-317.29-134.22zm0 1c118.82 0 232.75 48.273 316.58 133.92 83.826 85.644 130.8 201.63 130.8 322.48s-46.971 236.84-130.8 322.48c-83.826 85.643-197.76 133.91-316.58 133.91s-232.75-48.271-316.58-133.91c-83.826-85.644-130.8-201.63-130.8-322.48s46.971-236.84 130.8-322.48c83.826-85.643 197.76-133.92 316.58-133.92zm0 62.713c-101.85 0-199.55 41.291-271.76 115.07-72.212 73.777-112.9 174.02-112.9 278.62s40.691 204.84 112.9 278.62c72.211 73.777 169.91 115.07 271.76 115.07s199.55-41.291 271.76-115.07c72.212-73.777 112.9-174.02 112.9-278.62s-40.691-204.84-112.9-278.62c-72.211-73.777-169.91-115.07-271.76-115.07zm0 1c101.58 0 199.02 41.179 271.05 114.77 72.026 73.588 112.62 173.58 112.62 277.92s-40.591 204.33-112.62 277.92c-72.026 73.588-169.47 114.77-271.05 114.77s-199.02-41.179-271.05-114.77c-72.026-73.588-112.62-173.58-112.62-277.92s40.591-204.33 112.62-277.92c72.026-73.588 169.47-114.77 271.05-114.77z" color="#000000" style="-inkscape-stroke:none"/>
 <path d="m499.13 291.89c-114.84 0-206.25 101.07-206.25 222.54s91.406 222.54 206.25 222.54 206.24-101.07 206.24-222.54-91.404-222.54-206.24-222.54zm0 50.75c84.943 0 155.49 75.477 155.49 171.79 0 96.308-70.551 171.79-155.49 171.79s-155.5-75.477-155.5-171.79c0-96.308 70.553-171.79 155.5-171.79z" color="#000000" style="-inkscape-stroke:none"/>
 <path d="m499.13 291.39c-115.13 0-206.75 101.32-206.75 223.04s91.612 223.04 206.75 223.04 206.74-101.32 206.74-223.04-91.61-223.04-206.74-223.04zm0 1c114.55 0 205.74 100.82 205.74 222.04s-91.197 222.04-205.74 222.04-205.75-100.82-205.75-222.04 91.199-222.04 205.75-222.04zm0 49.75c-85.239 0-156 75.733-156 172.29 0 96.552 70.757 172.29 156 172.29s155.99-75.733 155.99-172.29c0-96.552-70.755-172.29-155.99-172.29zm0 1c84.647 0 154.99 75.222 154.99 171.29 0 96.063-70.348 171.29-154.99 171.29s-155-75.222-155-171.29c0-96.063 70.349-171.29 155-171.29z" color="#000000" style="-inkscape-stroke:none"/>
 <g transform="matrix(1.564 0 0 1.231 -281.49 -118.46)">
  <path d="m499.06 419.58c15.678 0 28.3 19.414 28.3 43.53v99.5c0 24.116-12.622 43.53-28.3 43.53s-28.3-19.414-28.3-43.53v-99.5c0-24.116 12.622-43.53 28.3-43.53z" color="#000000" style="-inkscape-stroke:none"/>
  <path d="m499.06 408.43c-12.443 0-22.846 7.7457-29.381 17.797-6.5344 10.051-10.072 22.883-10.072 36.887v99.5c0 14.004 3.5379 26.838 10.072 36.889 6.5344 10.051 16.938 17.797 29.381 17.797s22.846-7.7457 29.381-17.797c6.5344-10.051 10.074-22.885 10.074-36.889v-99.5c0-14.004-3.5398-26.836-10.074-36.887-6.5344-10.051-16.938-17.797-29.381-17.797zm0 22.309c3.2347 0 6.9819 1.9616 10.678 7.6465 3.6959 5.6849 6.4688 14.617 6.4688 24.729v99.5c0 10.112-2.7729 19.044-6.4688 24.729-3.6959 5.6849-7.4431 7.6484-10.678 7.6484-3.2346 0-6.9799-1.9635-10.676-7.6484-3.6959-5.6849-6.4688-14.617-6.4688-24.729v-99.5c0-10.112 2.7729-19.044 6.4688-24.729 3.6959-5.6849 7.4411-7.6465 10.676-7.6465z" color="#000000" style="-inkscape-stroke:none"/>
  <path d="m499.06 408.43c-12.443 0-22.846 7.7457-29.381 17.797-6.5344 10.051-10.072 22.883-10.072 36.887v99.5c0 14.004 3.5379 26.838 10.072 36.889 6.5344 10.051 16.938 17.797 29.381 17.797s22.846-7.7457 29.381-17.797c6.5344-10.051 10.074-22.885 10.074-36.889v-99.5c0-14.004-3.5398-26.836-10.074-36.887-6.5344-10.051-16.938-17.797-29.381-17.797zm0 22.309c3.2347 0 6.9819 1.9616 10.678 7.6465 3.6959 5.6849 6.4688 14.617 6.4688 24.729v99.5c0 10.112-2.7729 19.044-6.4688 24.729-3.6959 5.6849-7.4431 7.6484-10.678 7.6484-3.2346 0-6.9799-1.9635-10.676-7.6484-3.6959-5.6849-6.4688-14.617-6.4688-24.729v-99.5c0-10.112 2.7729-19.044 6.4688-24.729 3.6959-5.6849 7.4411-7.6465 10.676-7.6465z" color="#000000" style="-inkscape-stroke:none"/>
  <path d="m499.06 407.93c-12.651 0-23.198 7.8674-29.801 18.023-6.5954 10.145-10.152 23.072-10.152 37.16v99.5c0 14.088 3.5569 27.017 10.152 37.162 6.6026 10.156 17.15 18.023 29.801 18.023s23.198-7.8674 29.801-18.023c6.5954-10.145 10.154-23.074 10.154-37.162v-99.5c0-14.088-3.5589-27.015-10.154-37.16-6.6026-10.156-17.15-18.023-29.801-18.023zm0 1c12.236 0 22.495 7.6241 28.961 17.57 6.4734 9.9573 9.9941 22.694 9.9941 36.613v99.5c0 13.92-3.5208 26.658-9.9941 36.615-6.4662 9.9462-16.725 17.57-28.961 17.57s-22.495-7.6241-28.961-17.57c-6.4733-9.9572-9.9922-22.696-9.9922-36.615v-99.5c0-13.92 3.5188-26.656 9.9922-36.613 6.4662-9.9462 16.725-17.57 28.961-17.57zm0 21.309c-3.4368 1e-5 -7.3444 2.1028-11.096 7.873-3.764 5.7898-6.5488 14.799-6.5488 25.002v99.5c0 10.203 2.7848 19.212 6.5488 25.002 3.7513 5.7702 7.6587 7.875 11.096 7.875 3.437 0 7.3463-2.1047 11.098-7.875 3.764-5.7898 6.5488-14.799 6.5488-25.002v-99.5c0-10.203-2.7848-19.212-6.5488-25.002-3.7514-5.7704-7.6609-7.873-11.098-7.873zm0 1c3.0325 0 6.6175 1.8204 10.258 7.4199 3.6277 5.5801 6.3887 14.435 6.3887 24.455v99.5c0 10.02-2.761 18.875-6.3887 24.455-3.6404 5.5996-7.2255 7.4219-10.258 7.4219-3.0323 0-6.6154-1.8222-10.256-7.4219-3.6277-5.5801-6.3887-14.435-6.3887-24.455v-99.5c0-10.02 2.761-18.875 6.3887-24.455 3.6404-5.5996 7.2234-7.4199 10.256-7.4199z" color="#000000" style="-inkscape-stroke:none"/>
 </g>
</svg>
