<?xml version="1.0" encoding="UTF-8"?>
<!-- Created with Inkscape (http://www.inkscape.org/) -->
<svg width="1e3" height="1e3" version="1.1" viewBox="0 0 1e3 1e3" xmlns="http://www.w3.org/2000/svg" xmlns:cc="http://creativecommons.org/ns#" xmlns:dc="http://purl.org/dc/elements/1.1/" xmlns:rdf="http://www.w3.org/1999/02/22-rdf-syntax-ns#">
 <metadata>
  <rdf:RDF>
   <cc:Work rdf:about="">
    <dc:format>image/svg+xml</dc:format>
    <dc:type rdf:resource="http://purl.org/dc/dcmitype/StillImage"/>
   </cc:Work>
  </rdf:RDF>
 </metadata>
 <path d="m499.8 56.555c-118.69 1e-6 -232.5 48.219-316.23 133.77-83.731 85.546-130.65 201.39-130.65 322.11 0 120.71 46.916 236.56 130.65 322.11 83.731 85.546 197.54 133.77 316.23 133.77 118.69 0 232.5-48.219 316.23-133.77 83.731-85.546 130.65-201.39 130.65-322.11 0-120.71-46.916-236.56-130.65-322.11-83.731-85.546-197.54-133.77-316.23-133.77zm0 63.57c101.49 0 198.84 41.142 270.8 114.66 71.958 73.518 112.51 173.41 112.51 277.64s-40.55 204.13-112.51 277.64c-71.958 73.518-169.31 114.66-270.8 114.66s-198.84-41.144-270.8-114.66c-71.958-73.518-112.51-173.41-112.51-277.64s40.55-204.13 112.51-277.64c71.958-73.518 169.31-114.66 270.8-114.66z" color="#000000" style="-inkscape-stroke:none"/>
 <g stroke="#000">
  <ellipse cx="508.78" cy="744.24" rx="104.72" ry="103.52" stroke-width="5.9596"/>
  <ellipse cx="499.54" cy="485.81" rx="121.49" ry="120.1" opacity=".7" stroke-width="6.9142"/>
  <ellipse cx="491.86" cy="248" rx="72.865" ry="72.033" opacity=".3" stroke-width="4.1468"/>
 </g>
</svg>
