<?xml version="1.0" encoding="UTF-8"?>
<!-- Created with Inkscape (http://www.inkscape.org/) -->
<svg width="1e3" height="1e3" version="1.1" viewBox="0 0 1e3 1e3" xmlns="http://www.w3.org/2000/svg" xmlns:cc="http://creativecommons.org/ns#" xmlns:dc="http://purl.org/dc/elements/1.1/" xmlns:rdf="http://www.w3.org/1999/02/22-rdf-syntax-ns#">
 <metadata>
  <rdf:RDF>
   <cc:Work rdf:about="">
    <dc:format>image/svg+xml</dc:format>
    <dc:type rdf:resource="http://purl.org/dc/dcmitype/StillImage"/>
   </cc:Work>
  </rdf:RDF>
 </metadata>
 <g stroke="#000">
  <path d="m499.46 55.055c-118.95 1e-6 -233.02 48.326-316.94 134.06-83.919 85.738-130.94 201.85-130.94 322.83s47.021 237.09 130.94 322.83c83.919 85.738 197.98 134.06 316.94 134.06s233.02-48.326 316.94-134.06c83.919-85.738 130.94-201.85 130.94-322.83s-47.021-237.09-130.94-322.83c-83.919-85.738-197.98-134.06-316.94-134.06zm0 63.711c101.72 0 199.29 41.235 271.4 114.92 72.119 73.683 112.76 173.8 112.76 278.27s-40.639 204.58-112.76 278.27c-72.119 73.683-169.69 114.92-271.4 114.92-101.72 0-199.29-41.235-271.41-114.92s-112.76-173.8-112.76-278.27c0-104.47 40.639-204.58 112.76-278.27s169.69-114.92 271.41-114.92z" color="#000000" style="-inkscape-stroke:none"/>
  <path transform="matrix(2.9225 0 0 2.9518 -268.01 -258.54)" d="m258.93 159.77c-27.819 0.94795-55.167 12.36-75.008 34.6-35.529 39.821-34.316 103.46 6.5879 139.43v-2e-3c36.191 31.835 93.764 30.568 126.03-6.7715 28.138-32.56 26.811-84.082-6.9824-112.62-28.932-24.434-74.424-23.045-99.225 7.2305-20.726 25.3-19.263 64.796 7.5391 85.828 21.669 17.005 55.224 15.456 72.439-7.9492 13.27-18.041 11.604-45.775-8.5547-59.066-7.2175-4.7589-15.935-6.592-24.357-5.2774-8.4224 1.3146-16.833 6.2586-21.369 14.891-2.8926 5.5039-3.6295 11.726-2.0801 17.887s6.586 12.708 14.258 14.465c5.6951 1.3041 8.9198-0.0917 12.852-2.8516 1.9659-1.3799 4.31-3.5425 5.1524-7.3965 0.84236-3.854-1.0019-8.2442-3.3398-10.613l-12.051 11.895c-0.33417-0.33863-1.6131-2.7885-1.1523-4.8965s1.478-2.7184 1.6621-2.8477c0.36816-0.25842-1.7862-0.35418 0.65625 0.20508-1.1428-0.26169-1.1855-0.38135-1.6152-2.0898-0.42969-1.7085-0.0459-4.5578 0.64844-5.8789 1.8797-3.577 4.9049-5.3994 8.9902-6.0371 4.0853-0.63766 8.9464 0.39072 12.424 2.6836h2e-3c11.233 7.4062 12.199 24.068 4.2344 34.896-11.088 15.075-33.757 16.111-48.346 4.6621-18.826-14.773-19.887-43.475-4.8945-61.777 18.458-22.533 53.211-23.597 75.201-5.0254 26.216 22.141 27.269 62.959 5.0957 88.617-25.822 29.885-72.711 30.921-102.03 5.1289-33.544-29.503-34.558-82.472-5.1367-115.45 33.184-37.196 92.233-38.184 128.87-5.123 40.845 36.863 41.803 102 5.0976 142.28l12.516 11.404c42.908-47.094 41.798-122.88-6.2695-166.26-21.731-19.61-50.022-29.126-77.842-28.178z" color="#000000" style="-inkscape-stroke:none"/>
 </g>
</svg>
