<?xml version="1.0" encoding="UTF-8"?>
<!-- Created with Inkscape (http://www.inkscape.org/) -->
<svg width="1e3" height="1e3" version="1.1" viewBox="0 0 1e3 1e3" xmlns="http://www.w3.org/2000/svg" xmlns:cc="http://creativecommons.org/ns#" xmlns:dc="http://purl.org/dc/elements/1.1/" xmlns:rdf="http://www.w3.org/1999/02/22-rdf-syntax-ns#">
 <metadata>
  <rdf:RDF>
   <cc:Work rdf:about="">
    <dc:format>image/svg+xml</dc:format>
    <dc:type rdf:resource="http://purl.org/dc/dcmitype/StillImage"/>
   </cc:Work>
  </rdf:RDF>
 </metadata>
 <path d="m501.32 55.678c-118.79 0-232.7 48.262-316.5 133.88-83.804 85.621-130.76 201.57-130.76 322.39s46.956 236.77 130.76 322.39c83.804 85.621 197.71 133.88 316.5 133.88s232.7-48.262 316.5-133.88c83.804-85.621 130.76-201.57 130.76-322.39s-46.956-236.77-130.76-322.39c-83.804-85.621-197.71-133.88-316.5-133.88zm0 63.625c101.58 0 199.01 41.178 271.03 114.76 72.02 73.582 112.61 173.56 112.61 277.89s-40.585 204.3-112.61 277.89c-72.02 73.582-169.46 114.76-271.03 114.76-101.58 0-199.01-41.18-271.03-114.76-72.02-73.582-112.61-173.56-112.61-277.89s40.585-204.3 112.61-277.89 169.46-114.76 271.03-114.76z" color="#000000" style="-inkscape-stroke:none"/>
 <g transform="matrix(.36998 1.7148 -1.3808 .45948 1091.5 -307.83)" stroke="#000">
  <path d="m264.97 324.42-20.311 18.893c36.98 39.758 33.667 71.474 22.98 96.703-10.687 25.229-30.457 41.635-30.457 41.635l8.7578 10.756-8.8086-10.713c-55.467 45.598-68.004 91.044-63.762 124.42 4.2422 33.376 24.211 54.482 24.211 54.482l20.189-19.02s-13.807-14.743-16.885-38.961c-3.0772-24.21 3.5166-58.088 53.811-99.453 0.0178-0.0146 0.033-0.0284 0.0508-0.043v-2e-3c0.15311-0.12295 24.703-19.868 38.434-52.281 13.773-32.515 14.899-80.068-28.211-126.42zm65.002 17.391-20.311 18.891c36.98 39.758 33.667 71.476 22.98 96.705-10.687 25.229-30.457 41.635-30.457 41.635l8.7559 10.756-8.8066-10.715c-55.467 45.598-68.004 91.046-63.762 124.42 4.2422 33.376 24.211 54.482 24.211 54.482l20.189-19.021s-13.805-14.741-16.883-38.959c-3.0782-24.218 3.5168-58.111 53.859-99.496l-2e-3 -2e-3c0.14695-0.118 24.704-19.866 38.436-52.283 13.773-32.515 14.899-80.066-28.211-126.41zm67.059 16.947-20.311 18.893c36.98 39.758 33.667 71.474 22.98 96.703s-30.457 41.635-30.457 41.635l8.7559 10.756-8.8066-10.713c-55.467 45.598-68.004 91.044-63.762 124.42 4.2422 33.376 24.211 54.482 24.211 54.482l20.189-19.02s-13.807-14.743-16.885-38.961c-3.0772-24.21 3.5166-58.088 53.811-99.453 0.0178-0.0146 0.033-0.0284 0.0508-0.043v-2e-3c0.15315-0.12298 24.703-19.868 38.434-52.281 13.773-32.515 14.899-80.068-28.211-126.42zm65.002 17.391-20.311 18.891c36.98 39.758 33.667 71.476 22.98 96.705-10.687 25.229-30.457 41.635-30.457 41.635l8.7578 10.754-8.8086-10.713c-55.467 45.598-68.004 91.046-63.762 124.42 4.2422 33.376 24.211 54.482 24.211 54.482l20.189-19.02s-13.807-14.743-16.885-38.961c-3.0782-24.218 3.5187-58.111 53.861-99.496l-2e-3 -2e-3c0.14696-0.118 24.704-19.866 38.436-52.283 13.773-32.515 14.899-80.066-28.211-126.41z" color="#000000" style="-inkscape-stroke:none"/>
 </g>
</svg>
