<?xml version="1.0" encoding="UTF-8"?>
<!-- Created with Inkscape (http://www.inkscape.org/) -->
<svg width="1e3" height="1e3" version="1.1" viewBox="0 0 1e3 1e3" xmlns="http://www.w3.org/2000/svg" xmlns:cc="http://creativecommons.org/ns#" xmlns:dc="http://purl.org/dc/elements/1.1/" xmlns:rdf="http://www.w3.org/1999/02/22-rdf-syntax-ns#">
 <metadata>
  <rdf:RDF>
   <cc:Work rdf:about="">
    <dc:format>image/svg+xml</dc:format>
    <dc:type rdf:resource="http://purl.org/dc/dcmitype/StillImage"/>
   </cc:Work>
  </rdf:RDF>
 </metadata>
 <g>
  <path d="m505.18 55.273c-118.95 1e-6 -233.02 48.326-316.94 134.06s-130.94 201.85-130.94 322.83c0 120.98 47.021 237.09 130.94 322.83 83.919 85.738 197.98 134.06 316.94 134.06s233.02-48.326 316.94-134.06c83.919-85.738 130.94-201.85 130.94-322.83s-47.021-237.09-130.94-322.83-197.98-134.06-316.94-134.06zm0 63.713c101.72 0 199.29 41.235 271.4 114.92 72.119 73.683 112.76 173.8 112.76 278.27s-40.641 204.58-112.76 278.27c-72.119 73.683-169.69 114.92-271.4 114.92-101.72 0-199.29-41.235-271.4-114.92s-112.76-173.8-112.76-278.27c0-104.47 40.641-204.58 112.76-278.27s169.69-114.92 271.4-114.92z" color="#000000" style="-inkscape-stroke:none"/>
  <path d="m514.93 271.94c-180.86 2e-3 -324.36 163.29-325.57 360.11l67.854 0.41602c1.0078-164.43 118-292.67 257.71-292.67 139.71 2e-3 256.7 128.24 257.71 292.66l67.852-0.41796c-1.2116-196.81-144.72-360.1-325.57-360.1z" color="#000000" style="-inkscape-stroke:none"/>
  <path d="m513.01 332.1c-146.74 3e-3 -262.07 136.56-263.04 300.22l55.682 0.33008c0.81876-137.98 95.57-244.86 207.36-244.86 111.79 2e-3 206.54 106.88 207.36 244.86l55.682-0.33008c-0.9711-163.66-116.3-300.21-263.04-300.22z" color="#000000" opacity=".74031" style="-inkscape-stroke:none"/>
  <path d="m513.71 387.37c-116.42-2e-3 -207.03 111.47-207.79 244.39l44.646 0.25586c0.64482-113.01 75.699-200.01 163.15-200h2e-3c87.444-3e-3 162.5 86.988 163.15 199.99l44.646-0.25586c-0.76337-132.92-91.373-244.39-207.79-244.38z" color="#000000" opacity=".5" style="-inkscape-stroke:none"/>
 </g>
</svg>
