<?xml version="1.0" encoding="UTF-8"?>
<!-- Created with Inkscape (http://www.inkscape.org/) -->
<svg width="1e3" height="1e3" version="1.1" viewBox="0 0 1e3 1e3" xmlns="http://www.w3.org/2000/svg" xmlns:cc="http://creativecommons.org/ns#" xmlns:dc="http://purl.org/dc/elements/1.1/" xmlns:rdf="http://www.w3.org/1999/02/22-rdf-syntax-ns#">
 <metadata>
  <rdf:RDF>
   <cc:Work rdf:about="">
    <dc:format>image/svg+xml</dc:format>
    <dc:type rdf:resource="http://purl.org/dc/dcmitype/StillImage"/>
   </cc:Work>
  </rdf:RDF>
 </metadata>
 <path d="m505.18 55.273c-118.95 1e-6 -233.02 48.326-316.94 134.06s-130.94 201.85-130.94 322.83 47.021 237.09 130.94 322.83c83.919 85.738 197.98 134.06 316.94 134.06s233.02-48.326 316.94-134.06c83.919-85.738 130.94-201.85 130.94-322.83s-47.021-237.09-130.94-322.83-197.98-134.06-316.94-134.06zm0 63.713c101.72 0 199.29 41.235 271.4 114.92 72.119 73.683 112.76 173.8 112.76 278.27s-40.641 204.58-112.76 278.27c-72.119 73.683-169.69 114.92-271.4 114.92-101.72 0-199.29-41.235-271.4-114.92s-112.76-173.8-112.76-278.27 40.641-204.58 112.76-278.27 169.69-114.92 271.4-114.92z" color="#000000" style="-inkscape-stroke:none"/>
 <path d="m514.92 271.94 0.01367 0.00195c-180.86 2e-3 -324.36 163.29-325.57 360.11l11.369 0.07031v0.19727h32.275l24.211 0.14844c3.1e-4 -0.04983 0.00358-0.09862 0.00391-0.14844h515.41c3e-4 0.04589 0.00362 0.09082 0.00391 0.13672l22.195-0.13672h25.766v-0.1582l19.891-0.12305c-1.2116-196.81-144.72-360.1-325.57-360.1zm0.00781 67.859c124.33 0.00177 230.6 101.6 253.21 239.84h-51.674c-20.54-108.7-101.94-192.28-202.73-192.27h-0.01367c-100.79-0.00173-182.19 83.576-202.73 192.27h-49.262c22.615-138.25 128.88-239.84 253.21-239.84zm-1.207 92.219h0.00195c73.343-0.00251 137.94 61.208 157.26 147.62h-314.53c19.318-86.416 83.921-147.63 157.27-147.62z" style="-inkscape-stroke:none"/>
</svg>
