<?xml version="1.0" encoding="UTF-8"?>
<!-- Created with Inkscape (http://www.inkscape.org/) -->
<svg width="1e3" height="1e3" version="1.1" viewBox="0 0 1e3 1e3" xmlns="http://www.w3.org/2000/svg" xmlns:cc="http://creativecommons.org/ns#" xmlns:dc="http://purl.org/dc/elements/1.1/" xmlns:rdf="http://www.w3.org/1999/02/22-rdf-syntax-ns#">
 <metadata>
  <rdf:RDF>
   <cc:Work rdf:about="">
    <dc:format>image/svg+xml</dc:format>
    <dc:type rdf:resource="http://purl.org/dc/dcmitype/StillImage"/>
   </cc:Work>
  </rdf:RDF>
 </metadata>
 <path d="m495.46 57.055c-118.95 1e-6 -233.02 48.326-316.94 134.06-83.919 85.738-130.94 201.85-130.94 322.83s47.021 237.09 130.94 322.83c83.919 85.738 197.98 134.06 316.94 134.06s233.02-48.326 316.94-134.06c83.919-85.738 130.94-201.85 130.94-322.83s-47.021-237.09-130.94-322.83c-83.919-85.738-197.98-134.06-316.94-134.06zm0 63.711c101.72 0 199.29 41.235 271.4 114.92 72.119 73.683 112.76 173.8 112.76 278.27s-40.639 204.58-112.76 278.27c-72.119 73.683-169.69 114.92-271.4 114.92-101.72 0-199.29-41.235-271.41-114.92s-112.76-173.8-112.76-278.27c0-104.47 40.639-204.58 112.76-278.27s169.69-114.92 271.41-114.92z" color="#000000" style="-inkscape-stroke:none"/>
 <path d="m454.23 181.96-11.141 115.93-101.82 56.543 106.81 46.42 22.312 114.31 77.156-87.238 115.61 14.102-16.385-27.807-42.742-72.533 49.135-105.59-113.7 25.227zm25.535 67.299 50.256 46.789 67.035-14.875-28.971 62.256 34.861 59.158-68.16-8.3144-45.49 51.436-13.154-67.395-62.975-27.367 60.029-33.338z" color="#000000" style="-inkscape-stroke:none"/>
 <g>
  <path d="m394.94 682.68-63.365-39.968-68.569 29.988 18.109-73.132-49.466-56.504 74.557-5.2298 37.997-64.91 27.97 69.899 72.949 16.388-57.27 48.43z" color="#000000" fill-opacity=".50196" stroke-width="25.831" style="-inkscape-stroke:none"/>
  <path d="m346.39 443.63-47.887 81.805-93.705 6.5723 62.162 71.006-22.789 92.029 86.307-37.746 79.791 50.33-2.4707-26.152-6.4512-68.32 71.949-60.844-91.656-20.59zm-4.3711 58.602 20.691 51.711 54.242 12.186-42.592 36.018 5.252 55.604-46.938-29.607-50.832 22.23 13.43-54.234-36.771-42.004 55.408-3.8848z" color="#000000" style="-inkscape-stroke:none"/>
 </g>
 <g opacity=".5">
  <path d="m656.65 711.15-32.979-49.462-59.441-0.87361 36.85-46.649-17.538-56.803 55.754 20.63 48.602-34.232-2.3926 59.399 47.576 35.646-57.232 16.079z" color="#000000" fill-opacity=".50196" stroke-width="20.459" style="-inkscape-stroke:none"/>
  <path d="m698.95 523.46-61.152 43.07-70.148-25.957 22.066 71.469-46.365 58.695 74.789 1.0977 41.494 62.234 6.6934-19.617 17.463-51.176 72.01-20.23-59.861-44.85zm-22.111 40.6-1.7754 44.061 35.291 26.441-42.453 11.928-14.242 41.738-24.465-36.691-44.094-0.64648 27.336-34.605-13.01-42.137 41.359 15.305z" color="#000000" style="-inkscape-stroke:none"/>
 </g>
</svg>
