<?xml version="1.0" encoding="UTF-8"?>
<!-- Created with Inkscape (http://www.inkscape.org/) -->
<svg width="1e3" height="1e3" version="1.1" viewBox="0 0 1e3 1e3" xmlns="http://www.w3.org/2000/svg" xmlns:cc="http://creativecommons.org/ns#" xmlns:dc="http://purl.org/dc/elements/1.1/" xmlns:rdf="http://www.w3.org/1999/02/22-rdf-syntax-ns#">
 <metadata>
  <rdf:RDF>
   <cc:Work rdf:about="">
    <dc:format>image/svg+xml</dc:format>
    <dc:type rdf:resource="http://purl.org/dc/dcmitype/StillImage"/>
   </cc:Work>
  </rdf:RDF>
 </metadata>
 <path d="m495.12 55.055c-118.95 1e-6 -233.02 48.326-316.94 134.06-83.919 85.738-130.94 201.85-130.94 322.83s47.021 237.09 130.94 322.83c83.919 85.738 197.98 134.06 316.94 134.06s233.02-48.326 316.94-134.06 130.94-201.85 130.94-322.83-47.021-237.09-130.94-322.83-197.98-134.06-316.94-134.06zm0 63.711c101.72 0 199.29 41.235 271.41 114.92s112.76 173.8 112.76 278.27-40.639 204.58-112.76 278.27-169.69 114.92-271.41 114.92-199.29-41.235-271.4-114.92-112.76-173.8-112.76-278.27 40.641-204.58 112.76-278.27 169.69-114.92 271.4-114.92z" color="#000000" style="-inkscape-stroke:none"/>
 <path d="m495.98 242.98-263.71 456.76 52.189-0.0488 460.51-0.42578zm-1.4805 122.96 149.09 273.21-307 0.28516z" color="#000000" style="-inkscape-stroke:none"/>
</svg>
