<?xml version="1.0" encoding="UTF-8"?>
<!-- Created with Inkscape (http://www.inkscape.org/) -->
<svg width="1e3" height="1e3" version="1.1" viewBox="0 0 1e3 1e3" xmlns="http://www.w3.org/2000/svg" xmlns:cc="http://creativecommons.org/ns#" xmlns:dc="http://purl.org/dc/elements/1.1/" xmlns:rdf="http://www.w3.org/1999/02/22-rdf-syntax-ns#">
 <metadata>
  <rdf:RDF>
   <cc:Work rdf:about="">
    <dc:format>image/svg+xml</dc:format>
    <dc:type rdf:resource="http://purl.org/dc/dcmitype/StillImage"/>
   </cc:Work>
  </rdf:RDF>
 </metadata>
 <path d="m501.32 56.023c-118.95 1e-6 -233.02 48.326-316.94 134.06s-130.94 201.85-130.94 322.83 47.021 237.09 130.94 322.83c83.919 85.738 197.98 134.06 316.94 134.06s233.02-48.326 316.94-134.06c83.919-85.738 130.94-201.85 130.94-322.83s-47.021-237.09-130.94-322.83-197.98-134.06-316.94-134.06zm0 63.713c101.72 0 199.29 41.235 271.4 114.92s112.76 173.8 112.76 278.27c1e-5 104.47-40.641 204.58-112.76 278.27s-169.69 114.92-271.4 114.92c-101.72 0-199.29-41.235-271.4-114.92-72.119-73.683-112.76-173.8-112.76-278.27s40.641-204.58 112.76-278.27c72.119-73.683 169.69-114.92 271.4-114.92z" color="#000000" style="-inkscape-stroke:none"/>
 <path d="m199.85 385.63 14.129-7.157c14.129-7.6973 42.305-21.201 70.729 14.314 28.135 36.055 56.435 122.48 84.446 165.69 28.423 43.213 56.846 43.213 84.858 0 28.3-43.212 56.435-129.64 84.858-172.85 28.176-43.213 56.435-43.213 84.858 0 28.053 43.213 56.435 129.64 84.446 122.48 28.382-7.6973 56.435-107.63 70.852-158.54l14.006-50.37v432.13h-593.18z" stroke="#000" stroke-width=".74583"/>
</svg>
